<?xml version="1.0" encoding="utf-8"?>
<svg xmlns="http://www.w3.org/2000/svg" xmlns:xlink="http://www.w3.org/1999/xlink" width="600" height="400" viewBox="0 0 2400 1600">
<defs>
  <clipPath id="clip230">
    <rect x="0" y="0" width="2400" height="1600"/>
  </clipPath>
</defs>
<path clip-path="url(#clip230)" d="M0 1600 L2400 1600 L2400 0 L0 0  Z" fill="#ffffff" fill-rule="evenodd" fill-opacity="1"/>
<defs>
  <clipPath id="clip231">
    <rect x="480" y="0" width="1681" height="1600"/>
  </clipPath>
</defs>
<path clip-path="url(#clip230)" d="M251.56 1410.9 L2352.76 1410.9 L2352.76 47.2441 L251.56 47.2441  Z" fill="#ffffff" fill-rule="evenodd" fill-opacity="1"/>
<defs>
  <clipPath id="clip232">
    <rect x="251" y="47" width="2102" height="1365"/>
  </clipPath>
</defs>
<polyline clip-path="url(#clip232)" style="stroke:#000000; stroke-linecap:round; stroke-linejoin:round; stroke-width:2; stroke-opacity:0.1; fill:none" points="502.707,1410.9 502.707,47.2441 "/>
<polyline clip-path="url(#clip232)" style="stroke:#000000; stroke-linecap:round; stroke-linejoin:round; stroke-width:2; stroke-opacity:0.1; fill:none" points="890.056,1410.9 890.056,47.2441 "/>
<polyline clip-path="url(#clip232)" style="stroke:#000000; stroke-linecap:round; stroke-linejoin:round; stroke-width:2; stroke-opacity:0.1; fill:none" points="1277.4,1410.9 1277.4,47.2441 "/>
<polyline clip-path="url(#clip232)" style="stroke:#000000; stroke-linecap:round; stroke-linejoin:round; stroke-width:2; stroke-opacity:0.1; fill:none" points="1664.75,1410.9 1664.75,47.2441 "/>
<polyline clip-path="url(#clip232)" style="stroke:#000000; stroke-linecap:round; stroke-linejoin:round; stroke-width:2; stroke-opacity:0.1; fill:none" points="2052.1,1410.9 2052.1,47.2441 "/>
<polyline clip-path="url(#clip230)" style="stroke:#000000; stroke-linecap:round; stroke-linejoin:round; stroke-width:4; stroke-opacity:1; fill:none" points="251.56,1410.9 2352.76,1410.9 "/>
<polyline clip-path="url(#clip230)" style="stroke:#000000; stroke-linecap:round; stroke-linejoin:round; stroke-width:4; stroke-opacity:1; fill:none" points="502.707,1410.9 502.707,1392 "/>
<polyline clip-path="url(#clip230)" style="stroke:#000000; stroke-linecap:round; stroke-linejoin:round; stroke-width:4; stroke-opacity:1; fill:none" points="890.056,1410.9 890.056,1392 "/>
<polyline clip-path="url(#clip230)" style="stroke:#000000; stroke-linecap:round; stroke-linejoin:round; stroke-width:4; stroke-opacity:1; fill:none" points="1277.4,1410.9 1277.4,1392 "/>
<polyline clip-path="url(#clip230)" style="stroke:#000000; stroke-linecap:round; stroke-linejoin:round; stroke-width:4; stroke-opacity:1; fill:none" points="1664.75,1410.9 1664.75,1392 "/>
<polyline clip-path="url(#clip230)" style="stroke:#000000; stroke-linecap:round; stroke-linejoin:round; stroke-width:4; stroke-opacity:1; fill:none" points="2052.1,1410.9 2052.1,1392 "/>
<path clip-path="url(#clip230)" d="M468.48 1485.02 L476.119 1485.02 L476.119 1458.66 L467.809 1460.32 L467.809 1456.06 L476.073 1454.4 L480.749 1454.4 L480.749 1485.02 L488.388 1485.02 L488.388 1488.96 L468.48 1488.96 L468.48 1485.02 Z" fill="#000000" fill-rule="nonzero" fill-opacity="1" /><path clip-path="url(#clip230)" d="M507.832 1457.48 Q504.221 1457.48 502.392 1461.04 Q500.587 1464.58 500.587 1471.71 Q500.587 1478.82 502.392 1482.38 Q504.221 1485.92 507.832 1485.92 Q511.466 1485.92 513.272 1482.38 Q515.1 1478.82 515.1 1471.71 Q515.1 1464.58 513.272 1461.04 Q511.466 1457.48 507.832 1457.48 M507.832 1453.77 Q513.642 1453.77 516.698 1458.38 Q519.776 1462.96 519.776 1471.71 Q519.776 1480.44 516.698 1485.04 Q513.642 1489.63 507.832 1489.63 Q502.022 1489.63 498.943 1485.04 Q495.888 1480.44 495.888 1471.71 Q495.888 1462.96 498.943 1458.38 Q502.022 1453.77 507.832 1453.77 Z" fill="#000000" fill-rule="nonzero" fill-opacity="1" /><path clip-path="url(#clip230)" d="M524.347 1458.35 L537.606 1458.35 L537.606 1461.55 L519.776 1461.55 L519.776 1458.35 Q521.939 1456.11 525.663 1452.35 Q529.406 1448.57 530.365 1447.48 Q532.189 1445.43 532.904 1444.02 Q533.638 1442.59 533.638 1441.22 Q533.638 1438.98 532.058 1437.57 Q530.497 1436.16 527.976 1436.16 Q526.19 1436.16 524.196 1436.78 Q522.221 1437.4 519.964 1438.66 L519.964 1434.82 Q522.259 1433.9 524.253 1433.43 Q526.246 1432.96 527.901 1432.96 Q532.265 1432.96 534.86 1435.14 Q537.456 1437.32 537.456 1440.97 Q537.456 1442.7 536.797 1444.26 Q536.158 1445.8 534.446 1447.91 Q533.976 1448.46 531.456 1451.07 Q528.936 1453.67 524.347 1458.35 Z" fill="#000000" fill-rule="nonzero" fill-opacity="1" /><path clip-path="url(#clip230)" d="M855.5 1485.02 L863.139 1485.02 L863.139 1458.66 L854.828 1460.32 L854.828 1456.06 L863.092 1454.4 L867.768 1454.4 L867.768 1485.02 L875.407 1485.02 L875.407 1488.96 L855.5 1488.96 L855.5 1485.02 Z" fill="#000000" fill-rule="nonzero" fill-opacity="1" /><path clip-path="url(#clip230)" d="M894.851 1457.48 Q891.24 1457.48 889.412 1461.04 Q887.606 1464.58 887.606 1471.71 Q887.606 1478.82 889.412 1482.38 Q891.24 1485.92 894.851 1485.92 Q898.486 1485.92 900.291 1482.38 Q902.12 1478.82 902.12 1471.71 Q902.12 1464.58 900.291 1461.04 Q898.486 1457.48 894.851 1457.48 M894.851 1453.77 Q900.661 1453.77 903.717 1458.38 Q906.796 1462.96 906.796 1471.71 Q906.796 1480.44 903.717 1485.04 Q900.661 1489.63 894.851 1489.63 Q889.041 1489.63 885.962 1485.04 Q882.907 1480.44 882.907 1471.71 Q882.907 1462.96 885.962 1458.38 Q889.041 1453.77 894.851 1453.77 Z" fill="#000000" fill-rule="nonzero" fill-opacity="1" /><path clip-path="url(#clip230)" d="M919.491 1446.41 Q922.218 1446.99 923.741 1448.83 Q925.284 1450.68 925.284 1453.38 Q925.284 1457.54 922.425 1459.82 Q919.566 1462.09 914.3 1462.09 Q912.532 1462.09 910.651 1461.73 Q908.789 1461.4 906.796 1460.7 L906.796 1457.03 Q908.376 1457.95 910.256 1458.42 Q912.137 1458.89 914.187 1458.89 Q917.761 1458.89 919.623 1457.48 Q921.503 1456.07 921.503 1453.38 Q921.503 1450.9 919.754 1449.51 Q918.024 1448.1 914.921 1448.1 L911.648 1448.1 L911.648 1444.98 L915.071 1444.98 Q917.873 1444.98 919.359 1443.87 Q920.845 1442.74 920.845 1440.63 Q920.845 1438.47 919.303 1437.32 Q917.779 1436.16 914.921 1436.16 Q913.36 1436.16 911.573 1436.49 Q909.786 1436.83 907.642 1437.55 L907.642 1434.16 Q909.805 1433.56 911.686 1433.26 Q913.585 1432.96 915.259 1432.96 Q919.585 1432.96 922.105 1434.93 Q924.625 1436.89 924.625 1440.24 Q924.625 1442.57 923.29 1444.19 Q921.955 1445.79 919.491 1446.41 Z" fill="#000000" fill-rule="nonzero" fill-opacity="1" /><path clip-path="url(#clip230)" d="M1241.86 1485.02 L1249.5 1485.02 L1249.5 1458.66 L1241.19 1460.32 L1241.19 1456.06 L1249.45 1454.4 L1254.13 1454.4 L1254.13 1485.02 L1261.77 1485.02 L1261.77 1488.96 L1241.86 1488.96 L1241.86 1485.02 Z" fill="#000000" fill-rule="nonzero" fill-opacity="1" /><path clip-path="url(#clip230)" d="M1281.21 1457.48 Q1277.6 1457.48 1275.77 1461.04 Q1273.97 1464.58 1273.97 1471.71 Q1273.97 1478.82 1275.77 1482.38 Q1277.6 1485.92 1281.21 1485.92 Q1284.85 1485.92 1286.65 1482.38 Q1288.48 1478.82 1288.48 1471.71 Q1288.48 1464.58 1286.65 1461.04 Q1284.85 1457.48 1281.21 1457.48 M1281.21 1453.77 Q1287.02 1453.77 1290.08 1458.38 Q1293.16 1462.96 1293.16 1471.71 Q1293.16 1480.44 1290.08 1485.04 Q1287.02 1489.63 1281.21 1489.63 Q1275.4 1489.63 1272.32 1485.04 Q1269.27 1480.44 1269.27 1471.71 Q1269.27 1462.96 1272.32 1458.38 Q1275.4 1453.77 1281.21 1453.77 Z" fill="#000000" fill-rule="nonzero" fill-opacity="1" /><path clip-path="url(#clip230)" d="M1305.83 1436.78 L1296.24 1451.77 L1305.83 1451.77 L1305.83 1436.78 M1304.84 1433.47 L1309.61 1433.47 L1309.61 1451.77 L1313.62 1451.77 L1313.62 1454.93 L1309.61 1454.93 L1309.61 1461.55 L1305.83 1461.55 L1305.83 1454.93 L1293.16 1454.93 L1293.16 1451.26 L1304.84 1433.47 Z" fill="#000000" fill-rule="nonzero" fill-opacity="1" /><path clip-path="url(#clip230)" d="M1630.36 1485.02 L1638 1485.02 L1638 1458.66 L1629.69 1460.32 L1629.69 1456.06 L1637.95 1454.4 L1642.63 1454.4 L1642.63 1485.02 L1650.26 1485.02 L1650.26 1488.96 L1630.36 1488.96 L1630.36 1485.02 Z" fill="#000000" fill-rule="nonzero" fill-opacity="1" /><path clip-path="url(#clip230)" d="M1669.71 1457.48 Q1666.1 1457.48 1664.27 1461.04 Q1662.46 1464.58 1662.46 1471.71 Q1662.46 1478.82 1664.27 1482.38 Q1666.1 1485.92 1669.71 1485.92 Q1673.34 1485.92 1675.15 1482.38 Q1676.98 1478.82 1676.98 1471.71 Q1676.98 1464.58 1675.15 1461.04 Q1673.34 1457.48 1669.71 1457.48 M1669.71 1453.77 Q1675.52 1453.77 1678.57 1458.38 Q1681.65 1462.96 1681.65 1471.71 Q1681.65 1480.44 1678.57 1485.04 Q1675.52 1489.63 1669.71 1489.63 Q1663.9 1489.63 1660.82 1485.04 Q1657.76 1480.44 1657.76 1471.71 Q1657.76 1462.96 1660.82 1458.38 Q1663.9 1453.77 1669.71 1453.77 Z" fill="#000000" fill-rule="nonzero" fill-opacity="1" /><path clip-path="url(#clip230)" d="M1682.84 1433.47 L1697.75 1433.47 L1697.75 1436.66 L1686.32 1436.66 L1686.32 1443.55 Q1687.14 1443.27 1687.97 1443.13 Q1688.8 1442.98 1689.63 1442.98 Q1694.33 1442.98 1697.08 1445.56 Q1699.82 1448.14 1699.82 1452.54 Q1699.82 1457.07 1697 1459.59 Q1694.18 1462.09 1689.04 1462.09 Q1687.28 1462.09 1685.43 1461.79 Q1683.61 1461.49 1681.65 1460.89 L1681.65 1457.07 Q1683.35 1457.99 1685.15 1458.44 Q1686.96 1458.89 1688.97 1458.89 Q1692.22 1458.89 1694.12 1457.18 Q1696.02 1455.47 1696.02 1452.54 Q1696.02 1449.6 1694.12 1447.89 Q1692.22 1446.18 1688.97 1446.18 Q1687.45 1446.18 1685.92 1446.52 Q1684.42 1446.86 1682.84 1447.57 L1682.84 1433.47 Z" fill="#000000" fill-rule="nonzero" fill-opacity="1" /><path clip-path="url(#clip230)" d="M2017.09 1485.02 L2024.73 1485.02 L2024.73 1458.66 L2016.42 1460.32 L2016.42 1456.06 L2024.69 1454.4 L2029.36 1454.4 L2029.36 1485.02 L2037 1485.02 L2037 1488.96 L2017.09 1488.96 L2017.09 1485.02 Z" fill="#000000" fill-rule="nonzero" fill-opacity="1" /><path clip-path="url(#clip230)" d="M2056.45 1457.48 Q2052.83 1457.48 2051.01 1461.04 Q2049.2 1464.58 2049.2 1471.71 Q2049.2 1478.82 2051.01 1482.38 Q2052.83 1485.92 2056.45 1485.92 Q2060.08 1485.92 2061.89 1482.38 Q2063.71 1478.82 2063.71 1471.71 Q2063.71 1464.58 2061.89 1461.04 Q2060.08 1457.48 2056.45 1457.48 M2056.45 1453.77 Q2062.26 1453.77 2065.31 1458.38 Q2068.39 1462.96 2068.39 1471.71 Q2068.39 1480.44 2065.31 1485.04 Q2062.26 1489.63 2056.45 1489.63 Q2050.64 1489.63 2047.56 1485.04 Q2044.5 1480.44 2044.5 1471.71 Q2044.5 1462.96 2047.56 1458.38 Q2050.64 1453.77 2056.45 1453.77 Z" fill="#000000" fill-rule="nonzero" fill-opacity="1" /><path clip-path="url(#clip230)" d="M2078.41 1445.99 Q2075.86 1445.99 2074.35 1447.74 Q2072.87 1449.49 2072.87 1452.54 Q2072.87 1455.57 2074.35 1457.33 Q2075.86 1459.08 2078.41 1459.08 Q2080.97 1459.08 2082.46 1457.33 Q2083.96 1455.57 2083.96 1452.54 Q2083.96 1449.49 2082.46 1447.74 Q2080.97 1445.99 2078.41 1445.99 M2085.96 1434.09 L2085.96 1437.55 Q2084.53 1436.87 2083.06 1436.51 Q2081.61 1436.16 2080.18 1436.16 Q2076.42 1436.16 2074.43 1438.69 Q2072.45 1441.23 2072.17 1446.37 Q2073.28 1444.73 2074.95 1443.87 Q2076.63 1442.98 2078.64 1442.98 Q2082.87 1442.98 2085.32 1445.56 Q2087.78 1448.12 2087.78 1452.54 Q2087.78 1456.86 2085.22 1459.48 Q2082.67 1462.09 2078.41 1462.09 Q2073.54 1462.09 2070.97 1458.37 Q2068.39 1454.62 2068.39 1447.53 Q2068.39 1440.88 2071.55 1436.93 Q2074.71 1432.96 2080.03 1432.96 Q2081.46 1432.96 2082.91 1433.24 Q2084.38 1433.52 2085.96 1434.09 Z" fill="#000000" fill-rule="nonzero" fill-opacity="1" /><path clip-path="url(#clip230)" d="M1284.17 1526.67 L1292.83 1526.67 L1313.9 1566.42 L1313.9 1526.67 L1320.14 1526.67 L1320.14 1574.19 L1311.48 1574.19 L1290.41 1534.43 L1290.41 1574.19 L1284.17 1574.19 L1284.17 1526.67 Z" fill="#000000" fill-rule="nonzero" fill-opacity="1" /><polyline clip-path="url(#clip232)" style="stroke:#000000; stroke-linecap:round; stroke-linejoin:round; stroke-width:2; stroke-opacity:0.1; fill:none" points="251.56,1211.87 2352.76,1211.87 "/>
<polyline clip-path="url(#clip232)" style="stroke:#000000; stroke-linecap:round; stroke-linejoin:round; stroke-width:2; stroke-opacity:0.1; fill:none" points="251.56,602.894 2352.76,602.894 "/>
<polyline clip-path="url(#clip230)" style="stroke:#000000; stroke-linecap:round; stroke-linejoin:round; stroke-width:4; stroke-opacity:1; fill:none" points="251.56,1410.9 251.56,47.2441 "/>
<polyline clip-path="url(#clip230)" style="stroke:#000000; stroke-linecap:round; stroke-linejoin:round; stroke-width:4; stroke-opacity:1; fill:none" points="251.56,1211.87 270.458,1211.87 "/>
<polyline clip-path="url(#clip230)" style="stroke:#000000; stroke-linecap:round; stroke-linejoin:round; stroke-width:4; stroke-opacity:1; fill:none" points="251.56,602.894 270.458,602.894 "/>
<path clip-path="url(#clip230)" d="M114.931 1231.66 L122.57 1231.66 L122.57 1205.29 L114.26 1206.96 L114.26 1202.7 L122.524 1201.03 L127.2 1201.03 L127.2 1231.66 L134.839 1231.66 L134.839 1235.59 L114.931 1235.59 L114.931 1231.66 Z" fill="#000000" fill-rule="nonzero" fill-opacity="1" /><path clip-path="url(#clip230)" d="M154.283 1204.11 Q150.672 1204.11 148.843 1207.68 Q147.038 1211.22 147.038 1218.35 Q147.038 1225.46 148.843 1229.02 Q150.672 1232.56 154.283 1232.56 Q157.917 1232.56 159.723 1229.02 Q161.552 1225.46 161.552 1218.35 Q161.552 1211.22 159.723 1207.68 Q157.917 1204.11 154.283 1204.11 M154.283 1200.41 Q160.093 1200.41 163.149 1205.02 Q166.227 1209.6 166.227 1218.35 Q166.227 1227.08 163.149 1231.68 Q160.093 1236.27 154.283 1236.27 Q148.473 1236.27 145.394 1231.68 Q142.339 1227.08 142.339 1218.35 Q142.339 1209.6 145.394 1205.02 Q148.473 1200.41 154.283 1200.41 Z" fill="#000000" fill-rule="nonzero" fill-opacity="1" /><path clip-path="url(#clip230)" d="M166.227 1194.51 L190.339 1194.51 L190.339 1197.71 L166.227 1197.71 L166.227 1194.51 Z" fill="#000000" fill-rule="nonzero" fill-opacity="1" /><path clip-path="url(#clip230)" d="M198.577 1180.1 L213.491 1180.1 L213.491 1183.3 L202.056 1183.3 L202.056 1190.18 Q202.884 1189.9 203.711 1189.77 Q204.539 1189.62 205.366 1189.62 Q210.068 1189.62 212.814 1192.2 Q215.56 1194.77 215.56 1199.17 Q215.56 1203.71 212.739 1206.23 Q209.918 1208.73 204.783 1208.73 Q203.015 1208.73 201.172 1208.43 Q199.348 1208.13 197.392 1207.53 L197.392 1203.71 Q199.085 1204.63 200.89 1205.08 Q202.696 1205.53 204.708 1205.53 Q207.962 1205.53 209.861 1203.82 Q211.761 1202.11 211.761 1199.17 Q211.761 1196.24 209.861 1194.53 Q207.962 1192.82 204.708 1192.82 Q203.185 1192.82 201.661 1193.16 Q200.157 1193.49 198.577 1194.21 L198.577 1180.1 Z" fill="#000000" fill-rule="nonzero" fill-opacity="1" /><path clip-path="url(#clip230)" d="M144.855 622.687 L152.493 622.687 L152.493 596.321 L144.183 597.988 L144.183 593.729 L152.447 592.062 L157.123 592.062 L157.123 622.687 L164.762 622.687 L164.762 626.622 L144.855 626.622 L144.855 622.687 Z" fill="#000000" fill-rule="nonzero" fill-opacity="1" /><path clip-path="url(#clip230)" d="M184.206 595.141 Q180.595 595.141 178.766 598.705 Q176.961 602.247 176.961 609.377 Q176.961 616.483 178.766 620.048 Q180.595 623.59 184.206 623.59 Q187.84 623.59 189.646 620.048 Q191.475 616.483 191.475 609.377 Q191.475 602.247 189.646 598.705 Q187.84 595.141 184.206 595.141 M184.206 591.437 Q190.016 591.437 193.072 596.043 Q196.151 600.627 196.151 609.377 Q196.151 618.103 193.072 622.71 Q190.016 627.293 184.206 627.293 Q178.396 627.293 175.317 622.71 Q172.262 618.103 172.262 609.377 Q172.262 600.627 175.317 596.043 Q178.396 591.437 184.206 591.437 Z" fill="#000000" fill-rule="nonzero" fill-opacity="1" /><path clip-path="url(#clip230)" d="M205.855 573.633 Q202.921 573.633 201.436 576.529 Q199.969 579.407 199.969 585.2 Q199.969 590.974 201.436 593.87 Q202.921 596.748 205.855 596.748 Q208.808 596.748 210.275 593.87 Q211.761 590.974 211.761 585.2 Q211.761 579.407 210.275 576.529 Q208.808 573.633 205.855 573.633 M205.855 570.624 Q210.576 570.624 213.059 574.366 Q215.56 578.09 215.56 585.2 Q215.56 592.29 213.059 596.033 Q210.576 599.757 205.855 599.757 Q201.135 599.757 198.633 596.033 Q196.151 592.29 196.151 585.2 Q196.151 578.09 198.633 574.366 Q201.135 570.624 205.855 570.624 Z" fill="#000000" fill-rule="nonzero" fill-opacity="1" /><path clip-path="url(#clip230)" d="M16.4842 858.899 L16.4842 818.7 L21.895 818.7 L21.895 835.569 L64.0042 835.569 L64.0042 842.03 L21.895 842.03 L21.895 858.899 L16.4842 858.899 Z" fill="#000000" fill-rule="nonzero" fill-opacity="1" /><path clip-path="url(#clip230)" d="M28.3562 814.753 L28.3562 808.896 L64.0042 808.896 L64.0042 814.753 L28.3562 814.753 M14.479 814.753 L14.479 808.896 L21.895 808.896 L21.895 814.753 L14.479 814.753 Z" fill="#000000" fill-rule="nonzero" fill-opacity="1" /><path clip-path="url(#clip230)" d="M35.1993 768.888 Q31.2526 766.692 29.3747 763.636 Q27.4968 760.581 27.4968 756.443 Q27.4968 750.873 31.4117 747.849 Q35.2948 744.825 42.4881 744.825 L64.0042 744.825 L64.0042 750.714 L42.679 750.714 Q37.5546 750.714 35.072 752.528 Q32.5894 754.342 32.5894 758.066 Q32.5894 762.618 35.6131 765.259 Q38.6368 767.901 43.8567 767.901 L64.0042 767.901 L64.0042 773.789 L42.679 773.789 Q37.5228 773.789 35.072 775.604 Q32.5894 777.418 32.5894 781.206 Q32.5894 785.693 35.6449 788.335 Q38.6686 790.977 43.8567 790.977 L64.0042 790.977 L64.0042 796.865 L28.3562 796.865 L28.3562 790.977 L33.8944 790.977 Q30.616 788.972 29.0564 786.171 Q27.4968 783.37 27.4968 779.519 Q27.4968 775.636 29.4702 772.93 Q31.4436 770.193 35.1993 768.888 Z" fill="#000000" fill-rule="nonzero" fill-opacity="1" /><path clip-path="url(#clip230)" d="M44.7161 702.653 L47.5806 702.653 L47.5806 729.58 Q53.6281 729.198 56.8109 725.951 Q59.9619 722.673 59.9619 716.848 Q59.9619 713.474 59.1344 710.323 Q58.3069 707.141 56.6518 704.021 L62.1899 704.021 Q63.5267 707.172 64.227 710.483 Q64.9272 713.793 64.9272 717.198 Q64.9272 725.728 59.9619 730.725 Q54.9967 735.691 46.5303 735.691 Q37.7774 735.691 32.6531 730.98 Q27.4968 726.238 27.4968 718.217 Q27.4968 711.024 32.1438 706.854 Q36.7589 702.653 44.7161 702.653 M42.9973 708.509 Q38.1912 708.573 35.3266 711.215 Q32.4621 713.825 32.4621 718.153 Q32.4621 723.055 35.2312 726.015 Q38.0002 728.943 43.0292 729.389 L42.9973 708.509 Z" fill="#000000" fill-rule="nonzero" fill-opacity="1" /><path clip-path="url(#clip230)" d="M14.5426 658.252 Q21.8632 662.517 29.0246 664.586 Q36.186 666.655 43.5384 666.655 Q50.8908 666.655 58.1159 664.586 Q65.3091 662.485 72.5979 658.252 L72.5979 663.344 Q65.1182 668.119 57.8931 670.506 Q50.668 672.861 43.5384 672.861 Q36.4406 672.861 29.2474 670.506 Q22.0542 668.151 14.5426 663.344 L14.5426 658.252 Z" fill="#000000" fill-rule="nonzero" fill-opacity="1" /><path clip-path="url(#clip230)" d="M29.4065 624.164 L34.9447 624.164 Q33.6716 626.646 33.035 629.32 Q32.3984 631.993 32.3984 634.858 Q32.3984 639.218 33.7352 641.415 Q35.072 643.579 37.7456 643.579 Q39.7826 643.579 40.9603 642.019 Q42.1061 640.46 43.1565 635.749 L43.6021 633.744 Q44.9389 627.506 47.3897 624.896 Q49.8086 622.254 54.1691 622.254 Q59.1344 622.254 62.0308 626.201 Q64.9272 630.115 64.9272 636.99 Q64.9272 639.855 64.3543 642.974 Q63.8132 646.062 62.6992 649.499 L56.6518 649.499 Q58.3387 646.253 59.198 643.102 Q60.0256 639.95 60.0256 636.863 Q60.0256 632.725 58.6251 630.497 Q57.1929 628.269 54.6147 628.269 Q52.2276 628.269 50.9545 629.893 Q49.6813 631.484 48.5037 636.927 L48.0262 638.964 Q46.8804 644.406 44.5251 646.825 Q42.138 649.244 38.0002 649.244 Q32.9713 649.244 30.2341 645.68 Q27.4968 642.115 27.4968 635.558 Q27.4968 632.312 27.9743 629.447 Q28.4517 626.582 29.4065 624.164 Z" fill="#000000" fill-rule="nonzero" fill-opacity="1" /><path clip-path="url(#clip230)" d="M14.5426 613.851 L14.5426 608.759 Q22.0542 603.984 29.2474 601.629 Q36.4406 599.242 43.5384 599.242 Q50.668 599.242 57.8931 601.629 Q65.1182 603.984 72.5979 608.759 L72.5979 613.851 Q65.3091 609.618 58.1159 607.549 Q50.8908 605.448 43.5384 605.448 Q36.186 605.448 29.0246 607.549 Q21.8632 609.618 14.5426 613.851 Z" fill="#000000" fill-rule="nonzero" fill-opacity="1" /><polyline clip-path="url(#clip232)" style="stroke:#009af9; stroke-linecap:round; stroke-linejoin:round; stroke-width:4; stroke-opacity:1; fill:none" points="311.028,1170.68 427.632,1115.42 544.235,1098.65 660.839,1112.97 777.442,1106.18 894.046,1105.21 1010.65,1099.7 1127.25,1084.69 1243.86,1034.64 1360.46,1010.01 1477.06,977.771 1593.67,933.175 1710.27,893.711 1826.87,856.677 1943.48,797.139 2060.08,757.1 2176.68,712.47 2293.29,663.608 "/>
<line clip-path="url(#clip232)" x1="311.028" y1="1170.68" x2="311.028" y2="1154.68" style="stroke:#009af9; stroke-width:4; stroke-opacity:1"/>
<line clip-path="url(#clip232)" x1="311.028" y1="1170.68" x2="295.028" y2="1170.68" style="stroke:#009af9; stroke-width:4; stroke-opacity:1"/>
<line clip-path="url(#clip232)" x1="311.028" y1="1170.68" x2="311.028" y2="1186.68" style="stroke:#009af9; stroke-width:4; stroke-opacity:1"/>
<line clip-path="url(#clip232)" x1="311.028" y1="1170.68" x2="327.028" y2="1170.68" style="stroke:#009af9; stroke-width:4; stroke-opacity:1"/>
<line clip-path="url(#clip232)" x1="427.632" y1="1115.42" x2="427.632" y2="1099.42" style="stroke:#009af9; stroke-width:4; stroke-opacity:1"/>
<line clip-path="url(#clip232)" x1="427.632" y1="1115.42" x2="411.632" y2="1115.42" style="stroke:#009af9; stroke-width:4; stroke-opacity:1"/>
<line clip-path="url(#clip232)" x1="427.632" y1="1115.42" x2="427.632" y2="1131.42" style="stroke:#009af9; stroke-width:4; stroke-opacity:1"/>
<line clip-path="url(#clip232)" x1="427.632" y1="1115.42" x2="443.632" y2="1115.42" style="stroke:#009af9; stroke-width:4; stroke-opacity:1"/>
<line clip-path="url(#clip232)" x1="544.235" y1="1098.65" x2="544.235" y2="1082.65" style="stroke:#009af9; stroke-width:4; stroke-opacity:1"/>
<line clip-path="url(#clip232)" x1="544.235" y1="1098.65" x2="528.235" y2="1098.65" style="stroke:#009af9; stroke-width:4; stroke-opacity:1"/>
<line clip-path="url(#clip232)" x1="544.235" y1="1098.65" x2="544.235" y2="1114.65" style="stroke:#009af9; stroke-width:4; stroke-opacity:1"/>
<line clip-path="url(#clip232)" x1="544.235" y1="1098.65" x2="560.235" y2="1098.65" style="stroke:#009af9; stroke-width:4; stroke-opacity:1"/>
<line clip-path="url(#clip232)" x1="660.839" y1="1112.97" x2="660.839" y2="1096.97" style="stroke:#009af9; stroke-width:4; stroke-opacity:1"/>
<line clip-path="url(#clip232)" x1="660.839" y1="1112.97" x2="644.839" y2="1112.97" style="stroke:#009af9; stroke-width:4; stroke-opacity:1"/>
<line clip-path="url(#clip232)" x1="660.839" y1="1112.97" x2="660.839" y2="1128.97" style="stroke:#009af9; stroke-width:4; stroke-opacity:1"/>
<line clip-path="url(#clip232)" x1="660.839" y1="1112.97" x2="676.839" y2="1112.97" style="stroke:#009af9; stroke-width:4; stroke-opacity:1"/>
<line clip-path="url(#clip232)" x1="777.442" y1="1106.18" x2="777.442" y2="1090.18" style="stroke:#009af9; stroke-width:4; stroke-opacity:1"/>
<line clip-path="url(#clip232)" x1="777.442" y1="1106.18" x2="761.442" y2="1106.18" style="stroke:#009af9; stroke-width:4; stroke-opacity:1"/>
<line clip-path="url(#clip232)" x1="777.442" y1="1106.18" x2="777.442" y2="1122.18" style="stroke:#009af9; stroke-width:4; stroke-opacity:1"/>
<line clip-path="url(#clip232)" x1="777.442" y1="1106.18" x2="793.442" y2="1106.18" style="stroke:#009af9; stroke-width:4; stroke-opacity:1"/>
<line clip-path="url(#clip232)" x1="894.046" y1="1105.21" x2="894.046" y2="1089.21" style="stroke:#009af9; stroke-width:4; stroke-opacity:1"/>
<line clip-path="url(#clip232)" x1="894.046" y1="1105.21" x2="878.046" y2="1105.21" style="stroke:#009af9; stroke-width:4; stroke-opacity:1"/>
<line clip-path="url(#clip232)" x1="894.046" y1="1105.21" x2="894.046" y2="1121.21" style="stroke:#009af9; stroke-width:4; stroke-opacity:1"/>
<line clip-path="url(#clip232)" x1="894.046" y1="1105.21" x2="910.046" y2="1105.21" style="stroke:#009af9; stroke-width:4; stroke-opacity:1"/>
<line clip-path="url(#clip232)" x1="1010.65" y1="1099.7" x2="1010.65" y2="1083.7" style="stroke:#009af9; stroke-width:4; stroke-opacity:1"/>
<line clip-path="url(#clip232)" x1="1010.65" y1="1099.7" x2="994.649" y2="1099.7" style="stroke:#009af9; stroke-width:4; stroke-opacity:1"/>
<line clip-path="url(#clip232)" x1="1010.65" y1="1099.7" x2="1010.65" y2="1115.7" style="stroke:#009af9; stroke-width:4; stroke-opacity:1"/>
<line clip-path="url(#clip232)" x1="1010.65" y1="1099.7" x2="1026.65" y2="1099.7" style="stroke:#009af9; stroke-width:4; stroke-opacity:1"/>
<line clip-path="url(#clip232)" x1="1127.25" y1="1084.69" x2="1127.25" y2="1068.69" style="stroke:#009af9; stroke-width:4; stroke-opacity:1"/>
<line clip-path="url(#clip232)" x1="1127.25" y1="1084.69" x2="1111.25" y2="1084.69" style="stroke:#009af9; stroke-width:4; stroke-opacity:1"/>
<line clip-path="url(#clip232)" x1="1127.25" y1="1084.69" x2="1127.25" y2="1100.69" style="stroke:#009af9; stroke-width:4; stroke-opacity:1"/>
<line clip-path="url(#clip232)" x1="1127.25" y1="1084.69" x2="1143.25" y2="1084.69" style="stroke:#009af9; stroke-width:4; stroke-opacity:1"/>
<line clip-path="url(#clip232)" x1="1243.86" y1="1034.64" x2="1243.86" y2="1018.64" style="stroke:#009af9; stroke-width:4; stroke-opacity:1"/>
<line clip-path="url(#clip232)" x1="1243.86" y1="1034.64" x2="1227.86" y2="1034.64" style="stroke:#009af9; stroke-width:4; stroke-opacity:1"/>
<line clip-path="url(#clip232)" x1="1243.86" y1="1034.64" x2="1243.86" y2="1050.64" style="stroke:#009af9; stroke-width:4; stroke-opacity:1"/>
<line clip-path="url(#clip232)" x1="1243.86" y1="1034.64" x2="1259.86" y2="1034.64" style="stroke:#009af9; stroke-width:4; stroke-opacity:1"/>
<line clip-path="url(#clip232)" x1="1360.46" y1="1010.01" x2="1360.46" y2="994.01" style="stroke:#009af9; stroke-width:4; stroke-opacity:1"/>
<line clip-path="url(#clip232)" x1="1360.46" y1="1010.01" x2="1344.46" y2="1010.01" style="stroke:#009af9; stroke-width:4; stroke-opacity:1"/>
<line clip-path="url(#clip232)" x1="1360.46" y1="1010.01" x2="1360.46" y2="1026.01" style="stroke:#009af9; stroke-width:4; stroke-opacity:1"/>
<line clip-path="url(#clip232)" x1="1360.46" y1="1010.01" x2="1376.46" y2="1010.01" style="stroke:#009af9; stroke-width:4; stroke-opacity:1"/>
<line clip-path="url(#clip232)" x1="1477.06" y1="977.771" x2="1477.06" y2="961.771" style="stroke:#009af9; stroke-width:4; stroke-opacity:1"/>
<line clip-path="url(#clip232)" x1="1477.06" y1="977.771" x2="1461.06" y2="977.771" style="stroke:#009af9; stroke-width:4; stroke-opacity:1"/>
<line clip-path="url(#clip232)" x1="1477.06" y1="977.771" x2="1477.06" y2="993.771" style="stroke:#009af9; stroke-width:4; stroke-opacity:1"/>
<line clip-path="url(#clip232)" x1="1477.06" y1="977.771" x2="1493.06" y2="977.771" style="stroke:#009af9; stroke-width:4; stroke-opacity:1"/>
<line clip-path="url(#clip232)" x1="1593.67" y1="933.175" x2="1593.67" y2="917.175" style="stroke:#009af9; stroke-width:4; stroke-opacity:1"/>
<line clip-path="url(#clip232)" x1="1593.67" y1="933.175" x2="1577.67" y2="933.175" style="stroke:#009af9; stroke-width:4; stroke-opacity:1"/>
<line clip-path="url(#clip232)" x1="1593.67" y1="933.175" x2="1593.67" y2="949.175" style="stroke:#009af9; stroke-width:4; stroke-opacity:1"/>
<line clip-path="url(#clip232)" x1="1593.67" y1="933.175" x2="1609.67" y2="933.175" style="stroke:#009af9; stroke-width:4; stroke-opacity:1"/>
<line clip-path="url(#clip232)" x1="1710.27" y1="893.711" x2="1710.27" y2="877.711" style="stroke:#009af9; stroke-width:4; stroke-opacity:1"/>
<line clip-path="url(#clip232)" x1="1710.27" y1="893.711" x2="1694.27" y2="893.711" style="stroke:#009af9; stroke-width:4; stroke-opacity:1"/>
<line clip-path="url(#clip232)" x1="1710.27" y1="893.711" x2="1710.27" y2="909.711" style="stroke:#009af9; stroke-width:4; stroke-opacity:1"/>
<line clip-path="url(#clip232)" x1="1710.27" y1="893.711" x2="1726.27" y2="893.711" style="stroke:#009af9; stroke-width:4; stroke-opacity:1"/>
<line clip-path="url(#clip232)" x1="1826.87" y1="856.677" x2="1826.87" y2="840.677" style="stroke:#009af9; stroke-width:4; stroke-opacity:1"/>
<line clip-path="url(#clip232)" x1="1826.87" y1="856.677" x2="1810.87" y2="856.677" style="stroke:#009af9; stroke-width:4; stroke-opacity:1"/>
<line clip-path="url(#clip232)" x1="1826.87" y1="856.677" x2="1826.87" y2="872.677" style="stroke:#009af9; stroke-width:4; stroke-opacity:1"/>
<line clip-path="url(#clip232)" x1="1826.87" y1="856.677" x2="1842.87" y2="856.677" style="stroke:#009af9; stroke-width:4; stroke-opacity:1"/>
<line clip-path="url(#clip232)" x1="1943.48" y1="797.139" x2="1943.48" y2="781.139" style="stroke:#009af9; stroke-width:4; stroke-opacity:1"/>
<line clip-path="url(#clip232)" x1="1943.48" y1="797.139" x2="1927.48" y2="797.139" style="stroke:#009af9; stroke-width:4; stroke-opacity:1"/>
<line clip-path="url(#clip232)" x1="1943.48" y1="797.139" x2="1943.48" y2="813.139" style="stroke:#009af9; stroke-width:4; stroke-opacity:1"/>
<line clip-path="url(#clip232)" x1="1943.48" y1="797.139" x2="1959.48" y2="797.139" style="stroke:#009af9; stroke-width:4; stroke-opacity:1"/>
<line clip-path="url(#clip232)" x1="2060.08" y1="757.1" x2="2060.08" y2="741.1" style="stroke:#009af9; stroke-width:4; stroke-opacity:1"/>
<line clip-path="url(#clip232)" x1="2060.08" y1="757.1" x2="2044.08" y2="757.1" style="stroke:#009af9; stroke-width:4; stroke-opacity:1"/>
<line clip-path="url(#clip232)" x1="2060.08" y1="757.1" x2="2060.08" y2="773.1" style="stroke:#009af9; stroke-width:4; stroke-opacity:1"/>
<line clip-path="url(#clip232)" x1="2060.08" y1="757.1" x2="2076.08" y2="757.1" style="stroke:#009af9; stroke-width:4; stroke-opacity:1"/>
<line clip-path="url(#clip232)" x1="2176.68" y1="712.47" x2="2176.68" y2="696.47" style="stroke:#009af9; stroke-width:4; stroke-opacity:1"/>
<line clip-path="url(#clip232)" x1="2176.68" y1="712.47" x2="2160.68" y2="712.47" style="stroke:#009af9; stroke-width:4; stroke-opacity:1"/>
<line clip-path="url(#clip232)" x1="2176.68" y1="712.47" x2="2176.68" y2="728.47" style="stroke:#009af9; stroke-width:4; stroke-opacity:1"/>
<line clip-path="url(#clip232)" x1="2176.68" y1="712.47" x2="2192.68" y2="712.47" style="stroke:#009af9; stroke-width:4; stroke-opacity:1"/>
<line clip-path="url(#clip232)" x1="2293.29" y1="663.608" x2="2293.29" y2="647.608" style="stroke:#009af9; stroke-width:4; stroke-opacity:1"/>
<line clip-path="url(#clip232)" x1="2293.29" y1="663.608" x2="2277.29" y2="663.608" style="stroke:#009af9; stroke-width:4; stroke-opacity:1"/>
<line clip-path="url(#clip232)" x1="2293.29" y1="663.608" x2="2293.29" y2="679.608" style="stroke:#009af9; stroke-width:4; stroke-opacity:1"/>
<line clip-path="url(#clip232)" x1="2293.29" y1="663.608" x2="2309.29" y2="663.608" style="stroke:#009af9; stroke-width:4; stroke-opacity:1"/>
<polyline clip-path="url(#clip232)" style="stroke:#e26f46; stroke-linecap:round; stroke-linejoin:round; stroke-width:8; stroke-opacity:1; fill:none" stroke-dasharray="32, 20" points="311.028,1372.3 1446.59,958.065 1837.86,824.189 1910.74,799.477 1954.52,784.66 1991.91,772.022 2020.29,762.44 2046.19,753.704 2071.92,745.028 2091.89,738.299 2107.65,732.995 2123.29,727.729 2137.69,722.886 2152.29,717.975 2165.09,713.67 2177.45,709.517 2187.19,706.244 2198.37,702.491 2207.99,699.259 2216.41,696.431 2224.54,693.704 2233.2,690.797 2240.68,688.287 2248.86,685.544 2256.09,683.119 2262.93,680.826 2269.31,678.686 2275.61,676.573 2282.25,674.347 2291.46,671.262 2293.29,670.65 "/>
<polyline clip-path="url(#clip232)" style="stroke:#3da44d; stroke-linecap:round; stroke-linejoin:round; stroke-width:4; stroke-opacity:1; fill:none" stroke-dasharray="16, 10" points="311.028,1332.41 1330.18,691.497 1446.59,618.293 1736.94,435.707 1837.86,372.241 1878.21,346.862 1910.74,326.409 1934.05,311.749 1954.52,298.876 1991.91,275.361 2020.29,257.516 2046.19,241.231 2071.92,225.048 2091.89,212.488 2107.65,202.581 2123.29,192.743 2137.69,183.691 2152.29,174.509 2165.09,166.455 2177.45,158.685 2187.19,152.559 2198.37,145.531 2207.99,139.479 2216.41,134.181 2224.54,129.072 2233.2,123.625 2240.68,118.92 2248.86,113.779 2256.09,109.231 2262.93,104.931 2269.31,100.917 2272.49,98.9171 2275.61,96.9543 2278.97,94.8449 2282.25,92.7767 2286.92,89.8425 2291.46,86.9875 2292.38,86.4112 2293.29,85.838 "/>
<polyline clip-path="url(#clip232)" style="stroke:#c271d2; stroke-linecap:round; stroke-linejoin:round; stroke-width:4; stroke-opacity:1; fill:none" stroke-dasharray="16, 10" points="311.028,1272.14 1446.59,915.08 1837.86,792.054 1910.74,769.138 1954.52,755.371 1991.91,743.614 2020.29,734.691 2046.19,726.549 2071.92,718.457 2091.89,712.177 2107.65,707.224 2123.29,702.305 2137.69,697.779 2152.29,693.188 2165.09,689.161 2177.45,685.276 2187.19,682.213 2198.37,678.699 2207.99,675.673 2216.41,673.024 2224.54,670.469 2233.2,667.746 2240.68,665.393 2248.86,662.823 2256.09,660.549 2262.93,658.399 2269.31,656.392 2275.61,654.41 2282.25,652.322 2291.46,649.427 2293.29,648.852 "/>
<path clip-path="url(#clip230)" d="M1831.69 351.899 L2282.72 351.899 L2282.72 92.6992 L1831.69 92.6992  Z" fill="#ffffff" fill-rule="evenodd" fill-opacity="1"/>
<polyline clip-path="url(#clip230)" style="stroke:#000000; stroke-linecap:round; stroke-linejoin:round; stroke-width:4; stroke-opacity:1; fill:none" points="1831.69,351.899 2282.72,351.899 2282.72,92.6992 1831.69,92.6992 1831.69,351.899 "/>
<polyline clip-path="url(#clip230)" style="stroke:#009af9; stroke-linecap:round; stroke-linejoin:round; stroke-width:4; stroke-opacity:1; fill:none" points="1855.04,144.539 1995.12,144.539 "/>
<line clip-path="url(#clip230)" x1="1925.08" y1="144.539" x2="1925.08" y2="122.922" style="stroke:#009af9; stroke-width:4.55111; stroke-opacity:1"/>
<line clip-path="url(#clip230)" x1="1925.08" y1="144.539" x2="1903.46" y2="144.539" style="stroke:#009af9; stroke-width:4.55111; stroke-opacity:1"/>
<line clip-path="url(#clip230)" x1="1925.08" y1="144.539" x2="1925.08" y2="166.156" style="stroke:#009af9; stroke-width:4.55111; stroke-opacity:1"/>
<line clip-path="url(#clip230)" x1="1925.08" y1="144.539" x2="1946.7" y2="144.539" style="stroke:#009af9; stroke-width:4.55111; stroke-opacity:1"/>
<path clip-path="url(#clip230)" d="M2018.47 127.259 L2047.7 127.259 L2047.7 131.194 L2035.44 131.194 L2035.44 161.819 L2030.74 161.819 L2030.74 131.194 L2018.47 131.194 L2018.47 127.259 Z" fill="#000000" fill-rule="nonzero" fill-opacity="1" /><path clip-path="url(#clip230)" d="M2050.57 135.893 L2054.83 135.893 L2054.83 161.819 L2050.57 161.819 L2050.57 135.893 M2050.57 125.801 L2054.83 125.801 L2054.83 131.194 L2050.57 131.194 L2050.57 125.801 Z" fill="#000000" fill-rule="nonzero" fill-opacity="1" /><path clip-path="url(#clip230)" d="M2083.93 140.87 Q2085.53 138 2087.75 136.634 Q2089.97 135.268 2092.98 135.268 Q2097.03 135.268 2099.23 138.116 Q2101.43 140.94 2101.43 146.171 L2101.43 161.819 L2097.15 161.819 L2097.15 146.31 Q2097.15 142.583 2095.83 140.778 Q2094.51 138.972 2091.8 138.972 Q2088.49 138.972 2086.57 141.171 Q2084.65 143.37 2084.65 147.166 L2084.65 161.819 L2080.37 161.819 L2080.37 146.31 Q2080.37 142.56 2079.05 140.778 Q2077.73 138.972 2074.97 138.972 Q2071.71 138.972 2069.79 141.194 Q2067.87 143.393 2067.87 147.166 L2067.87 161.819 L2063.58 161.819 L2063.58 135.893 L2067.87 135.893 L2067.87 139.921 Q2069.32 137.537 2071.36 136.403 Q2073.4 135.268 2076.2 135.268 Q2079.02 135.268 2080.99 136.704 Q2082.98 138.139 2083.93 140.87 Z" fill="#000000" fill-rule="nonzero" fill-opacity="1" /><path clip-path="url(#clip230)" d="M2109.93 135.893 L2114.19 135.893 L2114.19 161.819 L2109.93 161.819 L2109.93 135.893 M2109.93 125.801 L2114.19 125.801 L2114.19 131.194 L2109.93 131.194 L2109.93 125.801 Z" fill="#000000" fill-rule="nonzero" fill-opacity="1" /><path clip-path="url(#clip230)" d="M2144.65 146.171 L2144.65 161.819 L2140.39 161.819 L2140.39 146.31 Q2140.39 142.629 2138.95 140.801 Q2137.52 138.972 2134.65 138.972 Q2131.2 138.972 2129.21 141.171 Q2127.22 143.37 2127.22 147.166 L2127.22 161.819 L2122.93 161.819 L2122.93 135.893 L2127.22 135.893 L2127.22 139.921 Q2128.75 137.583 2130.81 136.426 Q2132.89 135.268 2135.6 135.268 Q2140.06 135.268 2142.36 138.046 Q2144.65 140.801 2144.65 146.171 Z" fill="#000000" fill-rule="nonzero" fill-opacity="1" /><path clip-path="url(#clip230)" d="M2170.2 148.555 Q2170.2 143.926 2168.28 141.379 Q2166.38 138.833 2162.93 138.833 Q2159.51 138.833 2157.59 141.379 Q2155.69 143.926 2155.69 148.555 Q2155.69 153.162 2157.59 155.708 Q2159.51 158.254 2162.93 158.254 Q2166.38 158.254 2168.28 155.708 Q2170.2 153.162 2170.2 148.555 M2174.46 158.602 Q2174.46 165.222 2171.52 168.44 Q2168.58 171.68 2162.52 171.68 Q2160.27 171.68 2158.28 171.333 Q2156.29 171.009 2154.42 170.315 L2154.42 166.171 Q2156.29 167.19 2158.12 167.676 Q2159.95 168.162 2161.85 168.162 Q2166.04 168.162 2168.12 165.963 Q2170.2 163.787 2170.2 159.365 L2170.2 157.259 Q2168.88 159.551 2166.82 160.685 Q2164.76 161.819 2161.89 161.819 Q2157.12 161.819 2154.21 158.185 Q2151.29 154.551 2151.29 148.555 Q2151.29 142.537 2154.21 138.903 Q2157.12 135.268 2161.89 135.268 Q2164.76 135.268 2166.82 136.403 Q2168.88 137.537 2170.2 139.829 L2170.2 135.893 L2174.46 135.893 L2174.46 158.602 Z" fill="#000000" fill-rule="nonzero" fill-opacity="1" /><polyline clip-path="url(#clip230)" style="stroke:#e26f46; stroke-linecap:round; stroke-linejoin:round; stroke-width:8; stroke-opacity:1; fill:none" stroke-dasharray="32, 20" points="1855.04,196.379 1995.12,196.379 "/>
<path clip-path="url(#clip230)" d="M2034.49 182.27 Q2029.39 182.27 2026.38 186.067 Q2023.4 189.863 2023.4 196.414 Q2023.4 202.942 2026.38 206.738 Q2029.39 210.534 2034.49 210.534 Q2039.58 210.534 2042.54 206.738 Q2045.53 202.942 2045.53 196.414 Q2045.53 189.863 2042.54 186.067 Q2039.58 182.27 2034.49 182.27 M2034.49 178.474 Q2041.75 178.474 2046.11 183.358 Q2050.46 188.22 2050.46 196.414 Q2050.46 204.585 2046.11 209.469 Q2041.75 214.33 2034.49 214.33 Q2027.19 214.33 2022.82 209.469 Q2018.47 204.608 2018.47 196.414 Q2018.47 188.22 2022.82 183.358 Q2027.19 178.474 2034.49 178.474 Z" fill="#000000" fill-rule="nonzero" fill-opacity="1" /><path clip-path="url(#clip230)" d="M2067.82 177.687 Q2064.72 183.011 2063.21 188.22 Q2061.71 193.428 2061.71 198.775 Q2061.71 204.122 2063.21 209.377 Q2064.74 214.608 2067.82 219.909 L2064.12 219.909 Q2060.64 214.469 2058.91 209.215 Q2057.19 203.96 2057.19 198.775 Q2057.19 193.613 2058.91 188.382 Q2060.62 183.15 2064.12 177.687 L2067.82 177.687 Z" fill="#000000" fill-rule="nonzero" fill-opacity="1" /><path clip-path="url(#clip230)" d="M2076.27 179.099 L2082.56 179.099 L2097.89 208.011 L2097.89 179.099 L2102.43 179.099 L2102.43 213.659 L2096.13 213.659 L2080.81 184.747 L2080.81 213.659 L2076.27 213.659 L2076.27 179.099 Z" fill="#000000" fill-rule="nonzero" fill-opacity="1" /><path clip-path="url(#clip230)" d="M2126.62 177.641 L2130.87 177.641 L2130.87 213.659 L2126.62 213.659 L2126.62 177.641 Z" fill="#000000" fill-rule="nonzero" fill-opacity="1" /><path clip-path="url(#clip230)" d="M2149.83 190.719 Q2146.41 190.719 2144.42 193.405 Q2142.43 196.067 2142.43 200.719 Q2142.43 205.372 2144.39 208.057 Q2146.38 210.719 2149.83 210.719 Q2153.24 210.719 2155.23 208.034 Q2157.22 205.349 2157.22 200.719 Q2157.22 196.113 2155.23 193.428 Q2153.24 190.719 2149.83 190.719 M2149.83 187.108 Q2155.39 187.108 2158.56 190.719 Q2161.73 194.331 2161.73 200.719 Q2161.73 207.085 2158.56 210.719 Q2155.39 214.33 2149.83 214.33 Q2144.25 214.33 2141.08 210.719 Q2137.93 207.085 2137.93 200.719 Q2137.93 194.331 2141.08 190.719 Q2144.25 187.108 2149.83 187.108 Z" fill="#000000" fill-rule="nonzero" fill-opacity="1" /><path clip-path="url(#clip230)" d="M2185.85 200.395 Q2185.85 195.766 2183.93 193.219 Q2182.03 190.673 2178.58 190.673 Q2175.16 190.673 2173.24 193.219 Q2171.34 195.766 2171.34 200.395 Q2171.34 205.002 2173.24 207.548 Q2175.16 210.094 2178.58 210.094 Q2182.03 210.094 2183.93 207.548 Q2185.85 205.002 2185.85 200.395 M2190.11 210.442 Q2190.11 217.062 2187.17 220.28 Q2184.23 223.52 2178.17 223.52 Q2175.92 223.52 2173.93 223.173 Q2171.94 222.849 2170.06 222.155 L2170.06 218.011 Q2171.94 219.03 2173.77 219.516 Q2175.6 220.002 2177.49 220.002 Q2181.68 220.002 2183.77 217.803 Q2185.85 215.627 2185.85 211.205 L2185.85 209.099 Q2184.53 211.391 2182.47 212.525 Q2180.41 213.659 2177.54 213.659 Q2172.77 213.659 2169.86 210.025 Q2166.94 206.391 2166.94 200.395 Q2166.94 194.377 2169.86 190.743 Q2172.77 187.108 2177.54 187.108 Q2180.41 187.108 2182.47 188.243 Q2184.53 189.377 2185.85 191.669 L2185.85 187.733 L2190.11 187.733 L2190.11 210.442 Z" fill="#000000" fill-rule="nonzero" fill-opacity="1" /><path clip-path="url(#clip230)" d="M2214.14 179.099 L2220.43 179.099 L2235.76 208.011 L2235.76 179.099 L2240.3 179.099 L2240.3 213.659 L2234 213.659 L2218.68 184.747 L2218.68 213.659 L2214.14 213.659 L2214.14 179.099 Z" fill="#000000" fill-rule="nonzero" fill-opacity="1" /><path clip-path="url(#clip230)" d="M2248.74 177.687 L2252.45 177.687 Q2255.92 183.15 2257.63 188.382 Q2259.37 193.613 2259.37 198.775 Q2259.37 203.96 2257.63 209.215 Q2255.92 214.469 2252.45 219.909 L2248.74 219.909 Q2251.82 214.608 2253.33 209.377 Q2254.86 204.122 2254.86 198.775 Q2254.86 193.428 2253.33 188.22 Q2251.82 183.011 2248.74 177.687 Z" fill="#000000" fill-rule="nonzero" fill-opacity="1" /><polyline clip-path="url(#clip230)" style="stroke:#3da44d; stroke-linecap:round; stroke-linejoin:round; stroke-width:4; stroke-opacity:1; fill:none" stroke-dasharray="16, 10" points="1855.04,248.219 1995.12,248.219 "/>
<path clip-path="url(#clip230)" d="M2034.49 234.11 Q2029.39 234.11 2026.38 237.907 Q2023.4 241.703 2023.4 248.254 Q2023.4 254.782 2026.38 258.578 Q2029.39 262.374 2034.49 262.374 Q2039.58 262.374 2042.54 258.578 Q2045.53 254.782 2045.53 248.254 Q2045.53 241.703 2042.54 237.907 Q2039.58 234.11 2034.49 234.11 M2034.49 230.314 Q2041.75 230.314 2046.11 235.198 Q2050.46 240.06 2050.46 248.254 Q2050.46 256.425 2046.11 261.309 Q2041.75 266.17 2034.49 266.17 Q2027.19 266.17 2022.82 261.309 Q2018.47 256.448 2018.47 248.254 Q2018.47 240.06 2022.82 235.198 Q2027.19 230.314 2034.49 230.314 Z" fill="#000000" fill-rule="nonzero" fill-opacity="1" /><path clip-path="url(#clip230)" d="M2067.82 229.527 Q2064.72 234.851 2063.21 240.06 Q2061.71 245.268 2061.71 250.615 Q2061.71 255.962 2063.21 261.217 Q2064.74 266.448 2067.82 271.749 L2064.12 271.749 Q2060.64 266.309 2058.91 261.055 Q2057.19 255.8 2057.19 250.615 Q2057.19 245.453 2058.91 240.222 Q2060.62 234.99 2064.12 229.527 L2067.82 229.527 Z" fill="#000000" fill-rule="nonzero" fill-opacity="1" /><path clip-path="url(#clip230)" d="M2076.27 230.939 L2082.56 230.939 L2097.89 259.851 L2097.89 230.939 L2102.43 230.939 L2102.43 265.499 L2096.13 265.499 L2080.81 236.587 L2080.81 265.499 L2076.27 265.499 L2076.27 230.939 Z" fill="#000000" fill-rule="nonzero" fill-opacity="1" /><path clip-path="url(#clip230)" d="M2129.21 230.939 L2141.78 243.833 L2137.12 243.833 L2126.94 234.689 L2116.75 243.833 L2112.1 243.833 L2124.67 230.939 L2129.21 230.939 Z" fill="#000000" fill-rule="nonzero" fill-opacity="1" /><path clip-path="url(#clip230)" d="M2155.9 261.564 L2172.22 261.564 L2172.22 265.499 L2150.27 265.499 L2150.27 261.564 Q2152.93 258.809 2157.52 254.18 Q2162.12 249.527 2163.31 248.184 Q2165.55 245.661 2166.43 243.925 Q2167.33 242.166 2167.33 240.476 Q2167.33 237.722 2165.39 235.985 Q2163.47 234.249 2160.37 234.249 Q2158.17 234.249 2155.71 235.013 Q2153.28 235.777 2150.5 237.328 L2150.5 232.606 Q2153.33 231.472 2155.78 230.893 Q2158.24 230.314 2160.27 230.314 Q2165.64 230.314 2168.84 232.999 Q2172.03 235.685 2172.03 240.175 Q2172.03 242.305 2171.22 244.226 Q2170.43 246.124 2168.33 248.717 Q2167.75 249.388 2164.65 252.606 Q2161.55 255.8 2155.9 261.564 Z" fill="#000000" fill-rule="nonzero" fill-opacity="1" /><path clip-path="url(#clip230)" d="M2180.76 229.527 L2184.46 229.527 Q2187.93 234.99 2189.65 240.222 Q2191.38 245.453 2191.38 250.615 Q2191.38 255.8 2189.65 261.055 Q2187.93 266.309 2184.46 271.749 L2180.76 271.749 Q2183.84 266.448 2185.34 261.217 Q2186.87 255.962 2186.87 250.615 Q2186.87 245.268 2185.34 240.06 Q2183.84 234.851 2180.76 229.527 Z" fill="#000000" fill-rule="nonzero" fill-opacity="1" /><polyline clip-path="url(#clip230)" style="stroke:#c271d2; stroke-linecap:round; stroke-linejoin:round; stroke-width:4; stroke-opacity:1; fill:none" stroke-dasharray="16, 10" points="1855.04,300.059 1995.12,300.059 "/>
<path clip-path="url(#clip230)" d="M2034.49 285.95 Q2029.39 285.95 2026.38 289.747 Q2023.4 293.543 2023.4 300.094 Q2023.4 306.622 2026.38 310.418 Q2029.39 314.214 2034.49 314.214 Q2039.58 314.214 2042.54 310.418 Q2045.53 306.622 2045.53 300.094 Q2045.53 293.543 2042.54 289.747 Q2039.58 285.95 2034.49 285.95 M2034.49 282.154 Q2041.75 282.154 2046.11 287.038 Q2050.46 291.9 2050.46 300.094 Q2050.46 308.265 2046.11 313.149 Q2041.75 318.01 2034.49 318.01 Q2027.19 318.01 2022.82 313.149 Q2018.47 308.288 2018.47 300.094 Q2018.47 291.9 2022.82 287.038 Q2027.19 282.154 2034.49 282.154 Z" fill="#000000" fill-rule="nonzero" fill-opacity="1" /><path clip-path="url(#clip230)" d="M2067.82 281.367 Q2064.72 286.691 2063.21 291.9 Q2061.71 297.108 2061.71 302.455 Q2061.71 307.802 2063.21 313.057 Q2064.74 318.288 2067.82 323.589 L2064.12 323.589 Q2060.64 318.149 2058.91 312.895 Q2057.19 307.64 2057.19 302.455 Q2057.19 297.293 2058.91 292.062 Q2060.62 286.83 2064.12 281.367 L2067.82 281.367 Z" fill="#000000" fill-rule="nonzero" fill-opacity="1" /><path clip-path="url(#clip230)" d="M2076.27 282.779 L2082.56 282.779 L2097.89 311.691 L2097.89 282.779 L2102.43 282.779 L2102.43 317.339 L2096.13 317.339 L2080.81 288.427 L2080.81 317.339 L2076.27 317.339 L2076.27 282.779 Z" fill="#000000" fill-rule="nonzero" fill-opacity="1" /><path clip-path="url(#clip230)" d="M2110.87 281.367 L2114.58 281.367 Q2118.05 286.83 2119.76 292.062 Q2121.5 297.293 2121.5 302.455 Q2121.5 307.64 2119.76 312.895 Q2118.05 318.149 2114.58 323.589 L2110.87 323.589 Q2113.95 318.288 2115.46 313.057 Q2116.99 307.802 2116.99 302.455 Q2116.99 297.108 2115.46 291.9 Q2113.95 286.691 2110.87 281.367 Z" fill="#000000" fill-rule="nonzero" fill-opacity="1" /></svg>
