<?xml version="1.0" encoding="utf-8"?>
<!-- Generator: Adobe Illustrator 24.2.3, SVG Export Plug-In . SVG Version: 6.00 Build 0)  -->
<svg version="1.1" id="Layer_1" xmlns="http://www.w3.org/2000/svg" xmlns:xlink="http://www.w3.org/1999/xlink" x="0px" y="0px"
	 viewBox="0 0 344.64 249.62" style="enable-background:new 0 0 344.64 249.62;" xml:space="preserve">
<style type="text/css">
	.st0{fill:none;stroke:#000000;stroke-miterlimit:10;}
	.st1{fill:none;stroke:#000000;stroke-miterlimit:10;stroke-dasharray:11.4198,11.4198;}
	.st2{opacity:0;fill:none;stroke:#010202;stroke-width:1.000000e-06;stroke-miterlimit:10;}
	.st3{clip-path:url(#SVGID_1_);}
	.st4{opacity:0;clip-path:url(#SVGID_1_);fill:none;stroke:#010202;stroke-width:9.999999e-07;stroke-miterlimit:10;}
	.st5{clip-path:url(#SVGID_2_);}
	.st6{opacity:0;clip-path:url(#SVGID_2_);fill:none;stroke:#010202;stroke-width:9.999999e-07;stroke-miterlimit:10;}
	.st7{clip-path:url(#SVGID_3_);}
	.st8{opacity:0;clip-path:url(#SVGID_4_);fill:none;stroke:#010202;stroke-width:9.999999e-07;stroke-miterlimit:10;}
	.st9{clip-path:url(#SVGID_5_);}
	.st10{opacity:0;clip-path:url(#SVGID_5_);fill:none;stroke:#010202;stroke-width:9.999999e-07;stroke-miterlimit:10;}
	.st11{clip-path:url(#SVGID_6_);}
	.st12{opacity:0;clip-path:url(#SVGID_6_);fill:none;stroke:#010202;stroke-width:9.999999e-07;stroke-miterlimit:10;}
	.st13{clip-path:url(#SVGID_7_);}
	.st14{opacity:0;clip-path:url(#SVGID_8_);fill:none;stroke:#010202;stroke-width:9.999999e-07;stroke-miterlimit:10;}
	.st15{clip-path:url(#SVGID_9_);}
	.st16{opacity:0;clip-path:url(#SVGID_9_);fill:none;stroke:#010202;stroke-width:9.999999e-07;stroke-miterlimit:10;}
	.st17{clip-path:url(#SVGID_10_);}
	.st18{opacity:0;clip-path:url(#SVGID_10_);fill:none;stroke:#010202;stroke-width:9.999999e-07;stroke-miterlimit:10;}
</style>
<g>
	<line class="st0" x1="0.35" y1="203.01" x2="149.85" y2="53.51"/>
	<line class="st0" x1="19.35" y1="99.01" x2="106.35" y2="153.01"/>
	<line class="st0" x1="2.04" y1="203.09" x2="35.8" y2="224.05"/>
	<line class="st0" x1="36.6" y1="222.76" x2="106.35" y2="153.01"/>
	<line class="st0" x1="18.66" y1="98.31" x2="95.94" y2="21.03"/>
	<line class="st0" x1="95.75" y1="20.39" x2="149.65" y2="53.84"/>
</g>
<g>
	<line class="st0" x1="194.78" y1="209.05" x2="344.28" y2="59.55"/>
	<line class="st0" x1="213.78" y1="105.05" x2="300.78" y2="159.05"/>
	<line class="st0" x1="196.47" y1="209.13" x2="230.23" y2="230.08"/>
	<line class="st0" x1="231.03" y1="228.8" x2="300.78" y2="159.05"/>
	<line class="st0" x1="213.09" y1="104.35" x2="290.37" y2="27.07"/>
	<line class="st0" x1="290.18" y1="26.43" x2="344.08" y2="59.88"/>
</g>
<g>
	<g>
		<line class="st0" x1="82.35" y1="82.01" x2="113.15" y2="110.24"/>
		<g>
			<polygon points="118.35,115.01 108.27,111.28 112.76,109.88 113.77,105.29 			"/>
		</g>
	</g>
</g>
<g>
	<g>
		<line class="st0" x1="71.48" y1="159.01" x2="113.21" y2="119.84"/>
		<g>
			<polygon points="118.35,115.01 113.88,124.78 112.82,120.2 108.32,118.85 			"/>
		</g>
	</g>
</g>
<g>
	<g>
		<line class="st0" x1="82.35" y1="82.01" x2="88.35" y2="82.09"/>
		<line class="st1" x1="99.77" y1="82.24" x2="276.76" y2="84.58"/>
		<line class="st0" x1="282.47" y1="84.66" x2="288.47" y2="84.74"/>
		<g>
			<polygon points="295.53,84.83 285.53,88.76 287.94,84.73 285.64,80.63 			"/>
		</g>
	</g>
</g>
<polygon class="st2" points="90.97,7.05 90.97,7.05 90.97,7.05 90.97,7.05 90.97,7.05 90.97,7.05 90.97,7.05 90.97,7.05 90.97,7.05 
	90.97,7.05 90.97,7.05 90.97,7.05 90.97,7.05 90.97,7.05 90.97,7.05 90.97,7.05 90.97,7.05 90.97,7.05 90.97,7.05 90.97,7.05 
	90.97,7.05 90.97,7.05 90.97,7.05 90.97,7.05 90.97,7.05 90.97,7.05 90.97,7.05 90.97,7.05 90.97,7.05 90.97,7.05 90.97,7.05 
	90.97,7.05 90.97,7.05 90.97,7.05 90.97,7.05 90.97,7.05 90.97,7.05 90.97,7.05 90.97,7.05 90.97,7.05 90.97,7.05 90.97,7.05 
	90.97,7.05 90.97,7.05 90.97,7.05 90.97,7.05 90.97,7.05 90.97,7.05 90.97,7.05 90.97,7.05 90.97,7.05 90.97,7.05 90.97,7.05 
	90.97,7.05 90.97,7.05 90.97,7.05 90.97,7.05 90.97,7.05 90.97,7.05 90.97,7.05 90.97,7.05 90.97,7.05 90.97,7.05 90.97,7.05 
	90.97,7.05 90.97,7.05 90.97,7.05 90.97,7.05 90.97,7.05 90.97,7.05 90.97,7.05 90.97,7.05 90.97,7.05 90.97,7.05 90.97,7.05 
	90.97,7.05 90.97,7.05 90.97,7.05 90.97,7.05 90.97,7.05 90.97,7.05 90.97,7.05 90.97,7.05 90.97,7.05 90.97,7.05 90.97,7.05 "/>
<g>
	<defs>
		<rect id="SVGID_25_" x="277.92" y="8.5" width="36" height="17"/>
	</defs>
	<clipPath id="SVGID_1_">
		<use xlink:href="#SVGID_25_"  style="overflow:visible;"/>
	</clipPath>
	<path class="st3" d="M286.47,15.4c1.61-0.35,3.5-1.46,3.5-3.07c0-1.37-1.43-2.38-3.51-2.38h-4.53c-0.32,0-0.46,0-0.46,0.32
		c0,0.18,0.14,0.18,0.45,0.18c0.03,0,0.33,0,0.6,0.03c0.29,0.03,0.43,0.05,0.43,0.25c0,0.06-0.02,0.11-0.06,0.3l-2.13,8.54
		c-0.16,0.62-0.19,0.75-1.45,0.75c-0.29,0-0.43,0-0.43,0.32c0,0.17,0.19,0.17,0.22,0.17c0.45,0,1.56-0.05,2-0.05
		s1.57,0.05,2.02,0.05c0.13,0,0.32,0,0.32-0.32c0-0.17-0.14-0.17-0.44-0.17c-0.59,0-1.03,0-1.03-0.29c0-0.1,0.03-0.18,0.05-0.27
		l1.05-4.21h1.89c1.45,0,1.73,0.89,1.73,1.45c0,0.24-0.13,0.73-0.22,1.1c-0.11,0.44-0.25,1.03-0.25,1.35c0,1.72,1.91,1.72,2.11,1.72
		c1.35,0,1.91-1.61,1.91-1.83c0-0.19-0.17-0.19-0.19-0.19c-0.14,0-0.17,0.11-0.21,0.22c-0.4,1.18-1.08,1.45-1.45,1.45
		c-0.53,0-0.64-0.35-0.64-0.97c0-0.49,0.1-1.3,0.16-1.81c0.03-0.22,0.06-0.52,0.06-0.75C287.97,16.05,286.9,15.55,286.47,15.4
		 M284.18,11.04c0.1-0.38,0.14-0.54,0.44-0.59c0.14-0.02,0.65-0.02,0.97-0.02c1.13,0,2.89,0,2.89,1.57c0,0.54-0.25,1.64-0.87,2.26
		c-0.41,0.41-1.26,0.92-2.69,0.92h-1.78L284.18,11.04z"/>
	<path class="st3" d="M295.68,24.61c0-0.05,0-0.08-0.27-0.35c-1.99-2-2.5-5.01-2.5-7.44c0-2.77,0.6-5.53,2.56-7.52
		c0.21-0.19,0.21-0.22,0.21-0.27c0-0.11-0.06-0.16-0.16-0.16c-0.16,0-1.59,1.08-2.53,3.1c-0.81,1.75-1,3.51-1,4.85
		c0,1.24,0.18,3.16,1.05,4.96c0.95,1.95,2.32,2.99,2.48,2.99C295.62,24.77,295.68,24.73,295.68,24.61"/>
	<path class="st3" d="M301.37,16.64l3.13-5.25l0.51,5.25H301.37z M299.47,18.97c-0.64,1.07-1.26,1.29-1.95,1.34
		c-0.19,0.02-0.33,0.02-0.33,0.32c0,0.1,0.08,0.17,0.21,0.17c0.43,0,0.92-0.05,1.37-0.05c0.52,0,1.08,0.05,1.59,0.05
		c0.1,0,0.3,0,0.3-0.3c0-0.18-0.14-0.19-0.25-0.19c-0.37-0.03-0.75-0.16-0.75-0.56c0-0.19,0.1-0.37,0.22-0.59l1.21-2.03h3.99
		c0.03,0.33,0.25,2.5,0.25,2.65c0,0.48-0.83,0.53-1.14,0.53c-0.22,0-0.38,0-0.38,0.32c0,0.17,0.19,0.17,0.22,0.17
		c0.65,0,1.33-0.05,1.99-0.05c0.4,0,1.4,0.05,1.8,0.05c0.1,0,0.29,0,0.29-0.32c0-0.17-0.16-0.17-0.37-0.17
		c-0.99,0-0.99-0.11-1.03-0.57l-0.97-9.93c-0.03-0.32-0.03-0.38-0.3-0.38c-0.25,0-0.32,0.11-0.41,0.27L299.47,18.97z"/>
	<path class="st3" d="M313.12,16.83c0-1.24-0.18-3.16-1.05-4.96c-0.95-1.95-2.32-2.99-2.48-2.99c-0.1,0-0.16,0.06-0.16,0.16
		c0,0.05,0,0.08,0.3,0.37c1.56,1.57,2.46,4.1,2.46,7.42c0,2.72-0.59,5.52-2.56,7.52c-0.21,0.19-0.21,0.22-0.21,0.27
		c0,0.1,0.06,0.16,0.16,0.16c0.16,0,1.59-1.08,2.53-3.1C312.92,19.93,313.12,18.16,313.12,16.83"/>
	<path class="st4" d="M295.92,17L295.92,17z"/>
</g>
<g>
	<defs>
		<rect id="SVGID_27_" x="71.48" width="43" height="17"/>
	</defs>
	<clipPath id="SVGID_2_">
		<use xlink:href="#SVGID_27_"  style="overflow:visible;"/>
	</clipPath>
	<path class="st5" d="M79.53,6.9c1.61-0.35,3.5-1.46,3.5-3.07c0-1.37-1.43-2.38-3.51-2.38h-4.53c-0.32,0-0.46,0-0.46,0.32
		c0,0.18,0.14,0.18,0.45,0.18c0.03,0,0.33,0,0.6,0.03C75.86,2,76,2.02,76,2.22c0,0.06-0.02,0.11-0.06,0.3l-2.13,8.54
		c-0.16,0.62-0.19,0.75-1.45,0.75c-0.29,0-0.43,0-0.43,0.32c0,0.17,0.19,0.17,0.22,0.17c0.45,0,1.56-0.05,2-0.05
		c0.45,0,1.57,0.05,2.02,0.05c0.13,0,0.32,0,0.32-0.32c0-0.17-0.14-0.17-0.44-0.17c-0.59,0-1.03,0-1.03-0.29
		c0-0.1,0.03-0.18,0.05-0.27l1.05-4.21H78c1.45,0,1.73,0.89,1.73,1.45c0,0.24-0.13,0.73-0.22,1.1c-0.11,0.44-0.25,1.03-0.25,1.35
		c0,1.72,1.91,1.72,2.11,1.72c1.35,0,1.91-1.61,1.91-1.83c0-0.19-0.17-0.19-0.19-0.19c-0.14,0-0.17,0.11-0.21,0.22
		c-0.4,1.18-1.08,1.45-1.45,1.45c-0.52,0-0.64-0.35-0.64-0.97c0-0.49,0.1-1.3,0.16-1.81c0.03-0.22,0.06-0.52,0.06-0.75
		C81.02,7.55,79.96,7.05,79.53,6.9 M77.24,2.54c0.1-0.38,0.14-0.54,0.44-0.59c0.14-0.02,0.65-0.02,0.97-0.02
		c1.13,0,2.89,0,2.89,1.57c0,0.54-0.25,1.64-0.87,2.26c-0.41,0.41-1.26,0.92-2.69,0.92h-1.78L77.24,2.54z"/>
	<path class="st5" d="M88.74,16.11c0-0.05,0-0.08-0.27-0.35c-1.99-2-2.5-5.01-2.5-7.44c0-2.77,0.6-5.53,2.56-7.52
		c0.21-0.19,0.21-0.22,0.21-0.27c0-0.11-0.06-0.16-0.16-0.16c-0.16,0-1.59,1.08-2.53,3.1c-0.81,1.75-1,3.51-1,4.85
		c0,1.24,0.17,3.16,1.05,4.96c0.95,1.95,2.32,2.99,2.48,2.99C88.68,16.27,88.74,16.23,88.74,16.11"/>
	<path class="st5" d="M94.43,8.14l3.13-5.25l0.51,5.25H94.43z M92.52,10.47c-0.64,1.07-1.26,1.29-1.95,1.34
		c-0.19,0.02-0.33,0.02-0.33,0.32c0,0.1,0.08,0.17,0.21,0.17c0.43,0,0.92-0.05,1.37-0.05c0.53,0,1.08,0.05,1.59,0.05
		c0.1,0,0.3,0,0.3-0.3c0-0.18-0.14-0.19-0.25-0.19c-0.37-0.03-0.75-0.16-0.75-0.56c0-0.19,0.1-0.37,0.22-0.59l1.21-2.03h3.99
		c0.03,0.33,0.25,2.5,0.25,2.65c0,0.48-0.83,0.53-1.14,0.53c-0.22,0-0.38,0-0.38,0.32c0,0.17,0.19,0.17,0.22,0.17
		c0.65,0,1.33-0.05,1.99-0.05c0.4,0,1.4,0.05,1.8,0.05c0.1,0,0.29,0,0.29-0.32c0-0.17-0.16-0.17-0.37-0.17
		c-0.99,0-0.99-0.11-1.03-0.57L98.77,1.3c-0.03-0.32-0.03-0.38-0.3-0.38c-0.25,0-0.32,0.11-0.41,0.27L92.52,10.47z"/>
	<path class="st5" d="M105.28,2.92c0.92-0.4,1.33-0.56,1.61-0.69c0.21-0.09,0.31-0.13,0.31-0.35c0-0.19-0.14-0.36-0.35-0.36
		c-0.08,0-0.1,0-0.23,0.1l-1.52,1.02l0.17-1.65c0.02-0.2,0-0.48-0.33-0.48c-0.13,0-0.35,0.09-0.35,0.33c0,0.1,0.04,0.44,0.05,0.55
		c0.02,0.19,0.1,0.99,0.12,1.25l-1.51-1.02c-0.11-0.07-0.15-0.1-0.25-0.1c-0.2,0-0.35,0.17-0.35,0.36c0,0.22,0.13,0.28,0.23,0.32
		l1.69,0.7c-0.92,0.4-1.33,0.56-1.61,0.69c-0.21,0.09-0.31,0.13-0.31,0.35c0,0.19,0.15,0.36,0.35,0.36c0.08,0,0.1,0,0.23-0.1
		l1.52-1.02l-0.18,1.8c0,0.25,0.21,0.33,0.35,0.33c0.13,0,0.35-0.09,0.35-0.33c0-0.1-0.04-0.43-0.05-0.55
		c-0.02-0.19-0.1-0.99-0.12-1.25l1.34,0.89c0.29,0.22,0.31,0.22,0.41,0.22c0.2,0,0.35-0.17,0.35-0.36c0-0.22-0.13-0.28-0.23-0.32
		L105.28,2.92"/>
	<path class="st5" d="M113.57,8.33c0-1.24-0.17-3.16-1.05-4.96c-0.95-1.95-2.32-2.99-2.48-2.99c-0.1,0-0.16,0.06-0.16,0.16
		c0,0.05,0,0.08,0.3,0.37c1.56,1.57,2.46,4.1,2.46,7.42c0,2.72-0.59,5.52-2.56,7.52c-0.21,0.19-0.21,0.22-0.21,0.27
		c0,0.1,0.06,0.16,0.16,0.16c0.16,0,1.59-1.08,2.53-3.1C113.38,11.43,113.57,9.66,113.57,8.33"/>
	<path class="st6" d="M92.98,8.5L92.98,8.5z"/>
</g>
<polygon class="st2" points="242.46,240.24 242.46,240.24 242.46,240.24 242.46,240.24 242.46,240.24 242.46,240.24 242.46,240.24 
	242.46,240.24 242.46,240.24 242.46,240.24 242.46,240.24 242.46,240.24 242.46,240.24 242.46,240.24 242.46,240.24 242.46,240.24 
	242.46,240.24 242.46,240.24 242.46,240.24 242.46,240.24 242.46,240.24 242.46,240.24 242.46,240.24 242.46,240.24 242.46,240.24 
	242.46,240.24 242.46,240.24 242.46,240.24 242.46,240.24 242.46,240.24 242.46,240.24 242.46,240.24 242.46,240.24 242.46,240.24 
	242.46,240.24 242.46,240.24 242.46,240.24 242.46,240.24 242.46,240.24 242.46,240.24 242.46,240.24 242.46,240.24 242.46,240.24 
	242.46,240.24 242.46,240.24 242.46,240.24 242.46,240.24 242.46,240.24 242.46,240.24 242.46,240.24 242.46,240.24 242.46,240.24 
	242.46,240.24 242.46,240.24 242.46,240.24 242.46,240.24 242.46,240.24 242.46,240.24 242.46,240.24 242.46,240.24 242.46,240.24 
	242.46,240.24 242.46,240.24 242.46,240.24 242.46,240.24 242.46,240.24 242.46,240.24 242.46,240.24 242.46,240.24 242.46,240.24 
	242.46,240.24 242.46,240.24 242.46,240.24 242.46,240.24 242.46,240.24 242.46,240.24 242.46,240.24 242.46,240.24 242.46,240.24 
	242.46,240.24 242.46,240.24 242.46,240.24 242.46,240.24 242.46,240.24 242.46,240.24 242.46,240.24 "/>
<g>
	<defs>
		<rect id="SVGID_29_" x="18.92" y="227.32" width="37.34" height="17"/>
	</defs>
	<clipPath id="SVGID_3_">
		<use xlink:href="#SVGID_29_"  style="overflow:visible;"/>
	</clipPath>
	<path class="st7" d="M30.64,230.43c0.16-0.64,0.45-1.13,1.72-1.18c0.08,0,0.27-0.02,0.27-0.32c0-0.02,0-0.18-0.21-0.18
		c-0.52,0-1.08,0.05-1.6,0.05c-0.54,0-1.1-0.05-1.62-0.05c-0.1,0-0.29,0-0.29,0.32c0,0.17,0.16,0.17,0.29,0.17
		c0.91,0.02,1.08,0.35,1.08,0.7c0,0.05-0.03,0.29-0.05,0.33l-1.78,7.07l-3.51-8.3c-0.13-0.29-0.14-0.3-0.51-0.3H22.3
		c-0.32,0-0.46,0-0.46,0.32c0,0.17,0.14,0.17,0.45,0.17c0.08,0,1.08,0,1.08,0.14l-2.13,8.54c-0.16,0.64-0.43,1.14-1.72,1.19
		c-0.1,0-0.27,0.02-0.27,0.32c0,0.11,0.08,0.18,0.21,0.18c0.51,0,1.06-0.05,1.59-0.05c0.54,0,1.11,0.05,1.64,0.05
		c0.08,0,0.29,0,0.29-0.32c0-0.16-0.14-0.18-0.32-0.18c-0.92-0.03-1.05-0.38-1.05-0.7c0-0.11,0.02-0.19,0.06-0.37l2.1-8.39
		c0.06,0.1,0.06,0.13,0.14,0.29l3.96,9.36c0.11,0.27,0.16,0.3,0.3,0.3c0.18,0,0.18-0.05,0.25-0.33L30.64,230.43"/>
	<path class="st7" d="M38.38,243.43c0-0.05,0-0.08-0.27-0.35c-1.99-2-2.5-5.01-2.5-7.44c0-2.77,0.6-5.53,2.56-7.52
		c0.21-0.19,0.21-0.22,0.21-0.27c0-0.11-0.06-0.16-0.16-0.16c-0.16,0-1.59,1.08-2.53,3.1c-0.81,1.75-1,3.51-1,4.85
		c0,1.24,0.18,3.16,1.05,4.96c0.95,1.95,2.32,2.99,2.48,2.99C38.32,243.59,38.38,243.55,38.38,243.43"/>
	<path class="st7" d="M44.08,235.46l3.13-5.25l0.51,5.25H44.08z M42.17,237.79c-0.64,1.07-1.26,1.29-1.95,1.34
		c-0.19,0.02-0.33,0.02-0.33,0.32c0,0.1,0.08,0.18,0.21,0.18c0.43,0,0.92-0.05,1.37-0.05c0.53,0,1.08,0.05,1.59,0.05
		c0.1,0,0.3,0,0.3-0.3c0-0.18-0.14-0.19-0.25-0.19c-0.37-0.03-0.75-0.16-0.75-0.56c0-0.19,0.1-0.37,0.22-0.59l1.21-2.03h3.99
		c0.03,0.33,0.25,2.5,0.25,2.65c0,0.48-0.83,0.52-1.14,0.52c-0.22,0-0.38,0-0.38,0.32c0,0.18,0.19,0.18,0.22,0.18
		c0.65,0,1.33-0.05,1.99-0.05c0.4,0,1.4,0.05,1.8,0.05c0.1,0,0.29,0,0.29-0.32c0-0.18-0.16-0.18-0.37-0.18
		c-0.99,0-0.99-0.11-1.03-0.57l-0.97-9.93c-0.03-0.32-0.03-0.38-0.3-0.38c-0.25,0-0.32,0.11-0.41,0.27L42.17,237.79z"/>
	<path class="st7" d="M55.92,235.65c0-1.24-0.17-3.16-1.05-4.96c-0.95-1.95-2.32-2.99-2.48-2.99c-0.1,0-0.16,0.06-0.16,0.16
		c0,0.05,0,0.08,0.3,0.37c1.56,1.57,2.46,4.1,2.46,7.42c0,2.72-0.59,5.52-2.56,7.52c-0.21,0.19-0.21,0.22-0.21,0.27
		c0,0.1,0.06,0.16,0.16,0.16c0.16,0,1.59-1.08,2.53-3.1C55.73,238.75,55.92,236.98,55.92,235.65"/>
</g>
<g>
	<defs>
		<rect id="SVGID_31_" x="215.02" y="232.62" width="38" height="17"/>
	</defs>
	<clipPath id="SVGID_4_">
		<use xlink:href="#SVGID_31_"  style="overflow:visible;"/>
	</clipPath>
	<path class="st8" d="M234.02,241.12L234.02,241.12z"/>
</g>
<polygon class="st2" points="233.72,241.84 233.72,241.84 233.72,241.84 233.72,241.84 233.72,241.84 233.72,241.84 233.72,241.84 
	233.72,241.84 233.72,241.84 233.72,241.84 233.72,241.84 233.72,241.84 233.72,241.84 233.72,241.84 233.72,241.84 233.72,241.84 
	233.72,241.84 233.72,241.84 233.72,241.84 233.72,241.84 233.72,241.84 233.72,241.84 233.72,241.84 233.72,241.84 233.72,241.84 
	233.72,241.84 233.72,241.84 233.72,241.84 233.72,241.84 233.72,241.84 233.72,241.84 233.72,241.84 233.72,241.84 233.72,241.84 
	233.72,241.84 233.72,241.84 233.72,241.84 233.72,241.84 233.72,241.84 233.72,241.84 233.72,241.84 233.72,241.84 233.72,241.84 
	233.72,241.84 233.72,241.84 233.72,241.84 233.72,241.84 233.72,241.84 233.72,241.84 233.72,241.84 233.72,241.84 233.72,241.84 
	233.72,241.84 233.72,241.84 233.72,241.84 233.72,241.84 233.72,241.84 233.72,241.84 233.72,241.84 233.72,241.84 233.72,241.84 
	233.72,241.84 233.72,241.84 233.72,241.84 233.72,241.84 233.72,241.84 233.72,241.84 233.72,241.84 233.72,241.84 233.72,241.84 
	233.72,241.84 233.72,241.84 233.72,241.84 233.72,241.84 233.72,241.84 233.72,241.84 233.72,241.84 233.72,241.84 233.72,241.84 
	233.72,241.84 233.72,241.84 233.72,241.84 233.72,241.84 233.72,241.84 233.72,241.84 233.72,241.84 "/>
<g>
	<defs>
		<rect id="SVGID_33_" x="207.99" y="232.62" width="45" height="17"/>
	</defs>
	<clipPath id="SVGID_5_">
		<use xlink:href="#SVGID_33_"  style="overflow:visible;"/>
	</clipPath>
	<path class="st9" d="M220.21,235.74c0.16-0.64,0.45-1.13,1.72-1.18c0.08,0,0.27-0.02,0.27-0.32c0-0.02,0-0.18-0.21-0.18
		c-0.52,0-1.08,0.05-1.6,0.05c-0.54,0-1.1-0.05-1.62-0.05c-0.1,0-0.29,0-0.29,0.32c0,0.17,0.16,0.17,0.29,0.17
		c0.91,0.02,1.08,0.35,1.08,0.7c0,0.05-0.03,0.29-0.05,0.33l-1.78,7.07l-3.51-8.3c-0.13-0.29-0.14-0.3-0.51-0.3h-2.13
		c-0.32,0-0.46,0-0.46,0.32c0,0.17,0.14,0.17,0.45,0.17c0.08,0,1.08,0,1.08,0.14l-2.13,8.54c-0.16,0.64-0.43,1.14-1.72,1.19
		c-0.1,0-0.27,0.02-0.27,0.32c0,0.11,0.08,0.17,0.21,0.17c0.51,0,1.06-0.05,1.59-0.05c0.54,0,1.11,0.05,1.64,0.05
		c0.08,0,0.29,0,0.29-0.32c0-0.16-0.14-0.18-0.32-0.18c-0.92-0.03-1.05-0.38-1.05-0.7c0-0.11,0.02-0.19,0.06-0.37l2.1-8.39
		c0.06,0.1,0.06,0.13,0.14,0.29l3.96,9.36c0.11,0.27,0.16,0.3,0.3,0.3c0.17,0,0.17-0.05,0.25-0.33L220.21,235.74"/>
	<path class="st9" d="M228.05,248.74c0-0.05,0-0.08-0.27-0.35c-1.99-2-2.5-5.01-2.5-7.44c0-2.77,0.6-5.53,2.56-7.52
		c0.21-0.19,0.21-0.22,0.21-0.27c0-0.11-0.06-0.16-0.16-0.16c-0.16,0-1.59,1.08-2.53,3.1c-0.81,1.75-1,3.51-1,4.85
		c0,1.24,0.18,3.16,1.05,4.96c0.95,1.95,2.32,2.99,2.48,2.99C227.99,248.9,228.05,248.85,228.05,248.74"/>
	<path class="st9" d="M233.74,240.76l3.13-5.25l0.51,5.25H233.74z M231.84,243.09c-0.64,1.07-1.26,1.29-1.95,1.34
		c-0.19,0.02-0.33,0.02-0.33,0.32c0,0.1,0.08,0.17,0.21,0.17c0.43,0,0.92-0.05,1.37-0.05c0.52,0,1.08,0.05,1.59,0.05
		c0.1,0,0.3,0,0.3-0.3c0-0.18-0.14-0.19-0.25-0.19c-0.37-0.03-0.75-0.16-0.75-0.56c0-0.19,0.1-0.37,0.22-0.59l1.21-2.03h3.99
		c0.03,0.33,0.25,2.5,0.25,2.65c0,0.48-0.83,0.52-1.14,0.52c-0.22,0-0.38,0-0.38,0.32c0,0.17,0.19,0.17,0.22,0.17
		c0.65,0,1.33-0.05,1.99-0.05c0.4,0,1.4,0.05,1.8,0.05c0.1,0,0.29,0,0.29-0.32c0-0.18-0.16-0.18-0.37-0.18
		c-0.99,0-0.99-0.11-1.03-0.57l-0.97-9.93c-0.03-0.32-0.03-0.38-0.3-0.38c-0.25,0-0.32,0.11-0.41,0.27L231.84,243.09z"/>
	<path class="st9" d="M244.49,235.54c0.92-0.4,1.33-0.56,1.61-0.69c0.21-0.09,0.31-0.13,0.31-0.35c0-0.19-0.14-0.36-0.35-0.36
		c-0.08,0-0.1,0-0.23,0.1l-1.52,1.02l0.17-1.65c0.02-0.2,0-0.48-0.33-0.48c-0.13,0-0.35,0.09-0.35,0.33c0,0.1,0.04,0.44,0.05,0.55
		c0.02,0.19,0.1,0.99,0.12,1.25l-1.51-1.02c-0.11-0.07-0.15-0.1-0.25-0.1c-0.2,0-0.35,0.17-0.35,0.36c0,0.22,0.13,0.28,0.23,0.32
		l1.69,0.7c-0.92,0.4-1.33,0.56-1.61,0.69c-0.21,0.09-0.31,0.13-0.31,0.35c0,0.19,0.15,0.36,0.35,0.36c0.08,0,0.1,0,0.23-0.1
		l1.52-1.02l-0.18,1.8c0,0.25,0.21,0.33,0.35,0.33s0.35-0.09,0.35-0.33c0-0.1-0.04-0.43-0.05-0.55c-0.02-0.19-0.1-0.99-0.12-1.25
		l1.34,0.89c0.29,0.22,0.31,0.22,0.41,0.22c0.2,0,0.35-0.17,0.35-0.36c0-0.22-0.13-0.28-0.23-0.32L244.49,235.54"/>
	<path class="st9" d="M252.89,240.95c0-1.24-0.18-3.16-1.05-4.96c-0.95-1.95-2.32-2.99-2.48-2.99c-0.1,0-0.16,0.06-0.16,0.16
		c0,0.05,0,0.08,0.3,0.37c1.56,1.57,2.46,4.1,2.46,7.42c0,2.72-0.59,5.52-2.56,7.52c-0.21,0.19-0.21,0.22-0.21,0.27
		c0,0.1,0.06,0.16,0.16,0.16c0.16,0,1.59-1.08,2.53-3.1C252.69,244.05,252.89,242.28,252.89,240.95"/>
	<path class="st10" d="M230.49,241.12L230.49,241.12z"/>
</g>
<polygon class="st2" points="34.84,235.82 34.84,235.82 34.84,235.82 34.84,235.82 34.84,235.82 34.84,235.82 34.84,235.82 
	34.84,235.82 34.84,235.82 34.84,235.82 34.84,235.82 34.84,235.82 34.84,235.82 34.84,235.82 34.84,235.82 34.84,235.82 
	34.84,235.82 34.84,235.82 34.84,235.82 34.84,235.82 34.84,235.82 34.84,235.82 34.84,235.82 34.84,235.82 34.84,235.82 
	34.84,235.82 34.84,235.82 34.84,235.82 34.84,235.82 34.84,235.82 34.84,235.82 34.84,235.82 34.84,235.82 34.84,235.82 
	34.84,235.82 34.84,235.82 34.84,235.82 34.84,235.82 34.84,235.82 34.84,235.82 34.84,235.82 34.84,235.82 34.84,235.82 
	34.84,235.82 34.84,235.82 34.84,235.82 34.84,235.82 34.84,235.82 34.84,235.82 34.84,235.82 34.84,235.82 34.84,235.82 
	34.84,235.82 34.84,235.82 34.84,235.82 34.84,235.82 34.84,235.82 34.84,235.82 34.84,235.82 34.84,235.82 34.84,235.82 
	34.84,235.82 34.84,235.82 34.84,235.82 34.84,235.82 34.84,235.82 34.84,235.82 34.84,235.82 34.84,235.82 34.84,235.82 
	34.84,235.82 34.84,235.82 34.84,235.82 34.84,235.82 34.84,235.82 34.84,235.82 34.84,235.82 34.84,235.82 34.84,235.82 
	34.84,235.82 34.84,235.82 34.84,235.82 34.84,235.82 34.84,235.82 34.84,235.82 34.84,235.82 "/>
<g>
	<defs>
		<rect id="SVGID_35_" x="123.63" y="105.84" width="8" height="8"/>
	</defs>
	<clipPath id="SVGID_6_">
		<use xlink:href="#SVGID_35_"  style="overflow:visible;"/>
	</clipPath>
	<path class="st11" d="M128.53,108.54c0.1-0.41,0.46-1.88,1.58-1.88c0.08,0,0.46,0,0.79,0.21c-0.45,0.08-0.76,0.48-0.76,0.86
		c0,0.25,0.17,0.56,0.6,0.56c0.35,0,0.86-0.29,0.86-0.92c0-0.83-0.94-1.05-1.48-1.05c-0.92,0-1.48,0.84-1.67,1.21
		c-0.4-1.05-1.26-1.21-1.72-1.21c-1.65,0-2.56,2.05-2.56,2.45c0,0.16,0.16,0.16,0.19,0.16c0.13,0,0.18-0.03,0.21-0.17
		c0.54-1.68,1.59-2.08,2.13-2.08c0.3,0,0.86,0.14,0.86,1.06c0,0.49-0.27,1.56-0.86,3.78c-0.25,0.99-0.81,1.65-1.51,1.65
		c-0.1,0-0.46,0-0.79-0.21c0.4-0.08,0.75-0.41,0.75-0.86c0-0.43-0.35-0.56-0.59-0.56c-0.48,0-0.87,0.41-0.87,0.92
		c0,0.73,0.8,1.05,1.49,1.05c1.05,0,1.62-1.11,1.67-1.21c0.19,0.59,0.76,1.21,1.72,1.21c1.64,0,2.54-2.05,2.54-2.45
		c0-0.16-0.14-0.16-0.19-0.16c-0.14,0-0.18,0.06-0.21,0.17c-0.52,1.7-1.6,2.08-2.11,2.08c-0.62,0-0.87-0.51-0.87-1.05
		c0-0.35,0.1-0.7,0.27-1.4L128.53,108.54"/>
	<path class="st12" d="M128.13,109.84L128.13,109.84z"/>
</g>
<polygon class="st2" points="128.07,110.2 128.07,110.19 128.07,110.19 128.07,110.19 128.07,110.2 128.07,110.2 128.07,110.19 
	128.07,110.2 128.07,110.2 128.07,110.2 128.07,110.19 128.07,110.2 128.07,110.19 128.07,110.19 128.07,110.2 128.07,110.19 
	128.07,110.19 128.07,110.2 128.07,110.19 128.07,110.19 128.07,110.2 128.07,110.19 128.07,110.2 128.07,110.19 128.07,110.2 
	128.07,110.2 128.07,110.2 128.07,110.19 128.07,110.19 128.07,110.19 128.07,110.19 128.07,110.19 128.07,110.19 128.07,110.19 
	128.07,110.2 128.07,110.19 128.07,110.2 128.07,110.2 128.07,110.19 128.07,110.19 128.07,110.19 128.07,110.19 128.07,110.19 
	128.07,110.19 128.07,110.2 128.07,110.2 128.07,110.2 128.07,110.19 128.07,110.19 128.07,110.19 128.07,110.2 128.07,110.19 
	128.07,110.2 128.07,110.19 128.07,110.19 128.07,110.19 128.07,110.19 128.07,110.2 128.07,110.2 128.07,110.19 128.07,110.2 
	128.07,110.19 128.07,110.2 128.07,110.2 128.07,110.2 128.07,110.19 128.07,110.19 128.07,110.19 128.07,110.2 128.07,110.19 
	128.07,110.2 128.07,110.2 128.07,110.2 128.07,110.2 128.07,110.2 128.07,110.19 128.07,110.2 128.07,110.2 128.07,110.2 
	128.07,110.2 128.07,110.19 128.07,110.19 128.07,110.2 128.07,110.2 128.07,110.19 "/>
<g>
	<defs>
		<rect id="SVGID_37_" x="299.86" y="75.65" width="6.94" height="12.4"/>
	</defs>
	<clipPath id="SVGID_7_">
		<use xlink:href="#SVGID_37_"  style="overflow:visible;"/>
	</clipPath>
	<path class="st13" d="M301.87,82.7c0.1-0.35,0.1-0.38,0.24-0.56c0.78-1.03,1.49-1.27,1.91-1.27c0.57,0,1,0.48,1,1.49
		c0,0.94-0.52,2.77-0.81,3.37c-0.52,1.07-1.25,1.64-1.88,1.64c-0.54,0-1.07-0.43-1.07-1.6c0-0.3,0-0.6,0.25-1.61L301.87,82.7
		 M303.36,76.69c0-0.02,0-0.17-0.21-0.17c-0.37,0-1.53,0.13-1.94,0.16c-0.13,0.02-0.3,0.03-0.3,0.32c0,0.19,0.14,0.19,0.38,0.19
		c0.76,0,0.79,0.11,0.79,0.27c0,0.11-0.14,0.65-0.22,0.98l-1.3,5.18c-0.19,0.8-0.25,1.05-0.25,1.61c0,1.51,0.84,2.5,2.02,2.5
		c1.88,0,3.83-2.37,3.83-4.66c0-1.45-0.84-2.54-2.11-2.54c-0.73,0-1.38,0.46-1.86,0.95L303.36,76.69z"/>
</g>
<g>
	<defs>
		<rect id="SVGID_39_" x="216.87" y="135.05" width="7" height="13"/>
	</defs>
	<clipPath id="SVGID_8_">
		<use xlink:href="#SVGID_39_"  style="overflow:visible;"/>
	</clipPath>
	<path class="st14" d="M220.37,141.55L220.37,141.55z"/>
</g>
<polygon class="st2" points="219.89,142.49 219.89,142.49 219.89,142.49 219.89,142.49 219.89,142.49 219.89,142.49 219.89,142.49 
	219.89,142.49 219.89,142.49 219.89,142.49 219.89,142.49 219.89,142.49 219.89,142.49 219.89,142.49 219.89,142.49 219.89,142.49 
	219.89,142.49 219.89,142.49 219.89,142.49 219.89,142.49 219.89,142.49 219.89,142.49 219.89,142.49 219.89,142.49 219.89,142.49 
	219.89,142.49 219.89,142.49 219.89,142.49 219.89,142.49 219.89,142.49 219.89,142.49 219.89,142.49 219.89,142.49 219.89,142.49 
	219.89,142.49 219.89,142.49 219.89,142.49 219.89,142.49 219.89,142.49 219.89,142.49 219.89,142.49 219.89,142.49 219.89,142.49 
	219.89,142.49 219.89,142.49 219.89,142.49 219.89,142.49 219.89,142.49 219.89,142.49 219.89,142.49 219.89,142.49 219.89,142.49 
	219.89,142.49 219.89,142.49 219.89,142.49 219.89,142.49 219.89,142.49 219.89,142.49 219.89,142.49 219.89,142.49 219.89,142.49 
	219.89,142.49 219.89,142.49 219.89,142.49 219.89,142.49 219.89,142.49 219.89,142.49 219.89,142.49 219.89,142.49 219.89,142.49 
	219.89,142.49 219.89,142.49 219.89,142.49 219.89,142.49 219.89,142.49 219.89,142.49 219.89,142.49 219.89,142.49 219.89,142.49 
	219.89,142.49 219.89,142.49 219.89,142.49 219.89,142.49 219.89,142.49 219.89,142.49 "/>
<polygon class="st2" points="303.34,77.93 303.34,77.93 303.34,77.93 303.34,77.93 303.34,77.93 303.34,77.93 303.34,77.93 
	303.34,77.93 303.34,77.93 303.34,77.93 303.34,77.93 303.34,77.93 303.34,77.93 303.34,77.93 303.34,77.93 303.34,77.93 
	303.34,77.93 303.34,77.93 303.34,77.93 303.34,77.93 303.34,77.93 303.34,77.93 303.34,77.93 303.34,77.93 303.34,77.93 
	303.34,77.93 303.34,77.93 303.34,77.93 303.34,77.93 303.34,77.93 303.34,77.93 303.34,77.93 303.34,77.93 303.34,77.93 
	303.34,77.93 303.34,77.93 303.34,77.93 303.34,77.93 303.34,77.93 303.34,77.93 303.34,77.93 303.34,77.93 303.34,77.93 
	303.34,77.93 303.34,77.93 303.34,77.93 303.34,77.93 303.34,77.93 303.34,77.93 303.34,77.93 303.34,77.93 303.34,77.93 
	303.34,77.93 303.34,77.93 303.34,77.93 303.34,77.93 303.34,77.93 303.34,77.93 303.34,77.93 303.34,77.93 303.34,77.93 
	303.34,77.93 303.34,77.93 303.34,77.93 303.34,77.93 303.34,77.93 303.34,77.93 303.34,77.93 303.34,77.93 303.34,77.93 
	303.34,77.93 303.34,77.93 303.34,77.93 303.34,77.93 303.34,77.93 303.34,77.93 303.34,77.93 303.34,77.93 303.34,77.93 
	303.34,77.93 303.34,77.93 303.34,77.93 303.34,77.93 303.34,77.93 303.34,77.93 "/>
<polygon class="st2" points="247.33,197.17 247.33,197.17 247.33,197.17 247.33,197.17 247.33,197.17 247.33,197.17 247.33,197.17 
	247.33,197.17 247.33,197.17 247.33,197.17 247.33,197.17 247.33,197.17 247.33,197.17 247.33,197.17 247.33,197.17 247.33,197.17 
	247.33,197.17 247.33,197.17 247.33,197.17 247.33,197.17 247.33,197.17 247.33,197.17 247.33,197.17 247.33,197.17 247.33,197.17 
	247.33,197.17 247.33,197.17 247.33,197.17 247.33,197.17 247.33,197.17 247.33,197.17 247.33,197.17 247.33,197.17 247.33,197.17 
	247.33,197.17 247.33,197.17 247.33,197.17 247.33,197.17 247.33,197.17 247.33,197.17 247.33,197.17 247.33,197.17 247.33,197.17 
	247.33,197.17 247.33,197.17 247.33,197.17 247.33,197.17 247.33,197.17 247.33,197.17 247.33,197.17 247.33,197.17 247.33,197.17 
	247.33,197.17 247.33,197.17 247.33,197.17 247.33,197.17 247.33,197.17 247.33,197.17 247.33,197.17 247.33,197.17 247.33,197.17 
	247.33,197.17 247.33,197.17 247.33,197.17 247.33,197.17 247.33,197.17 247.33,197.17 247.33,197.17 247.33,197.17 247.33,197.17 
	247.33,197.17 247.33,197.17 247.33,197.17 247.33,197.17 247.33,197.17 247.33,197.17 247.33,197.17 247.33,197.17 247.33,197.17 
	247.33,197.17 247.33,197.17 247.33,197.17 247.33,197.17 247.33,197.17 247.33,197.17 "/>
<g>
	<defs>
		<rect id="SVGID_45_" x="75.56" y="67.49" width="15" height="10"/>
	</defs>
	<clipPath id="SVGID_9_">
		<use xlink:href="#SVGID_45_"  style="overflow:visible;"/>
	</clipPath>
	<path class="st15" d="M80.77,70.19c0.1-0.41,0.46-1.88,1.57-1.88c0.08,0,0.46,0,0.79,0.21c-0.45,0.08-0.76,0.48-0.76,0.86
		c0,0.25,0.18,0.56,0.6,0.56c0.35,0,0.86-0.29,0.86-0.92c0-0.83-0.94-1.05-1.48-1.05c-0.92,0-1.48,0.84-1.67,1.21
		c-0.4-1.05-1.26-1.21-1.72-1.21c-1.65,0-2.56,2.05-2.56,2.45c0,0.16,0.16,0.16,0.19,0.16c0.13,0,0.17-0.03,0.21-0.18
		c0.54-1.68,1.59-2.08,2.13-2.08c0.3,0,0.86,0.14,0.86,1.06c0,0.49-0.27,1.56-0.86,3.78c-0.25,0.99-0.81,1.65-1.51,1.65
		c-0.1,0-0.46,0-0.79-0.21c0.4-0.08,0.75-0.41,0.75-0.86c0-0.43-0.35-0.56-0.59-0.56c-0.48,0-0.87,0.41-0.87,0.92
		c0,0.73,0.8,1.05,1.49,1.05c1.05,0,1.62-1.11,1.67-1.21c0.19,0.59,0.76,1.21,1.72,1.21c1.64,0,2.54-2.05,2.54-2.45
		c0-0.16-0.14-0.16-0.19-0.16c-0.14,0-0.18,0.06-0.21,0.18c-0.52,1.7-1.6,2.08-2.11,2.08c-0.62,0-0.87-0.51-0.87-1.05
		c0-0.35,0.1-0.7,0.27-1.4L80.77,70.19"/>
	<path class="st15" d="M87.18,75.14c0.01-0.07,0.27-1.07,0.29-1.13c0.02-0.09,0.35-0.65,0.7-0.92c0.12-0.09,0.42-0.31,0.9-0.31
		c0.11,0,0.39,0.01,0.61,0.16c-0.36,0.1-0.49,0.41-0.49,0.61c0,0.25,0.19,0.41,0.45,0.41c0.26,0,0.62-0.21,0.62-0.68
		c0-0.58-0.61-0.81-1.18-0.81c-0.58,0-1.08,0.23-1.57,0.79c-0.2-0.68-0.88-0.79-1.15-0.79c-0.41,0-0.69,0.26-0.87,0.57
		c-0.26,0.44-0.41,1.08-0.41,1.14c0,0.14,0.16,0.14,0.19,0.14c0.16,0,0.17-0.03,0.25-0.33c0.17-0.68,0.38-1.2,0.81-1.2
		c0.29,0,0.37,0.25,0.37,0.55c0,0.21-0.1,0.62-0.18,0.93c-0.08,0.3-0.19,0.76-0.25,1l-0.36,1.43c-0.04,0.15-0.11,0.42-0.11,0.46
		c0,0.25,0.2,0.36,0.38,0.36c0.17,0,0.39-0.1,0.48-0.32c0.02-0.07,0.15-0.56,0.21-0.84L87.18,75.14"/>
	<path class="st16" d="M83.06,72.49L83.06,72.49z"/>
</g>
<polygon class="st2" points="82.74,72.51 82.74,72.51 82.74,72.51 82.74,72.51 82.74,72.51 82.74,72.51 82.74,72.51 82.74,72.51 
	82.74,72.51 82.74,72.51 82.74,72.51 82.74,72.51 82.74,72.51 82.74,72.51 82.74,72.51 82.74,72.51 82.74,72.51 82.74,72.51 
	82.74,72.51 82.74,72.51 82.74,72.51 82.74,72.51 82.74,72.51 82.74,72.51 82.74,72.51 82.74,72.51 82.74,72.51 82.74,72.51 
	82.74,72.51 82.74,72.51 82.74,72.51 82.74,72.51 82.74,72.51 82.74,72.51 82.74,72.51 82.74,72.51 82.74,72.51 82.74,72.51 
	82.74,72.51 82.74,72.51 82.74,72.51 82.74,72.51 82.74,72.51 82.74,72.51 82.74,72.51 82.74,72.51 82.74,72.51 82.74,72.51 
	82.74,72.51 82.74,72.51 82.74,72.51 82.74,72.51 82.74,72.51 82.74,72.51 82.74,72.51 82.74,72.51 82.74,72.51 82.74,72.51 
	82.74,72.51 82.74,72.51 82.74,72.51 82.74,72.51 82.74,72.51 82.74,72.51 82.74,72.51 82.74,72.51 82.74,72.51 82.74,72.51 
	82.74,72.51 82.74,72.51 82.74,72.51 82.74,72.51 82.74,72.51 82.74,72.51 82.74,72.51 82.74,72.51 82.74,72.51 82.74,72.51 
	82.74,72.51 82.74,72.51 82.74,72.51 82.74,72.51 82.74,72.51 82.74,72.51 82.74,72.51 "/>
<g>
	<defs>
		<rect id="SVGID_47_" x="55.29" y="161.84" width="17" height="10"/>
	</defs>
	<clipPath id="SVGID_10_">
		<use xlink:href="#SVGID_47_"  style="overflow:visible;"/>
	</clipPath>
	<path class="st17" d="M60.6,164.54c0.1-0.41,0.46-1.88,1.58-1.88c0.08,0,0.46,0,0.79,0.21c-0.45,0.08-0.76,0.48-0.76,0.86
		c0,0.25,0.17,0.56,0.6,0.56c0.35,0,0.86-0.29,0.86-0.92c0-0.83-0.94-1.05-1.48-1.05c-0.92,0-1.48,0.84-1.67,1.21
		c-0.4-1.05-1.26-1.21-1.72-1.21c-1.65,0-2.56,2.05-2.56,2.45c0,0.16,0.16,0.16,0.19,0.16c0.13,0,0.18-0.03,0.21-0.17
		c0.54-1.68,1.59-2.08,2.13-2.08c0.3,0,0.86,0.14,0.86,1.06c0,0.49-0.27,1.56-0.86,3.78c-0.25,0.99-0.81,1.65-1.51,1.65
		c-0.1,0-0.46,0-0.79-0.21c0.4-0.08,0.75-0.41,0.75-0.86c0-0.43-0.35-0.56-0.59-0.56c-0.48,0-0.87,0.41-0.87,0.92
		c0,0.73,0.8,1.05,1.49,1.05c1.05,0,1.62-1.11,1.67-1.21c0.19,0.59,0.76,1.21,1.72,1.21c1.64,0,2.54-2.05,2.54-2.45
		c0-0.16-0.14-0.16-0.19-0.16c-0.14,0-0.17,0.06-0.21,0.18c-0.53,1.7-1.6,2.08-2.11,2.08c-0.62,0-0.87-0.51-0.87-1.05
		c0-0.35,0.1-0.7,0.27-1.4L60.6,164.54"/>
	<path class="st17" d="M65.85,171.04c-0.04,0.15-0.11,0.42-0.11,0.46c0,0.25,0.2,0.36,0.38,0.36c0.2,0,0.38-0.14,0.44-0.25
		c0.06-0.1,0.15-0.46,0.2-0.69c0.06-0.21,0.18-0.73,0.25-1c0.07-0.25,0.13-0.49,0.19-0.75c0.12-0.46,0.15-0.55,0.47-1
		c0.31-0.45,0.84-1.03,1.67-1.03c0.65,0,0.66,0.57,0.66,0.78c0,0.67-0.48,1.91-0.66,2.38c-0.12,0.31-0.17,0.41-0.17,0.6
		c0,0.59,0.49,0.96,1.06,0.96c1.12,0,1.61-1.54,1.61-1.71c0-0.15-0.15-0.15-0.18-0.15c-0.16,0-0.17,0.07-0.21,0.19
		c-0.26,0.89-0.74,1.35-1.18,1.35c-0.23,0-0.28-0.15-0.28-0.39c0-0.26,0.06-0.4,0.26-0.9c0.13-0.35,0.59-1.53,0.59-2.15
		c0-1.08-0.86-1.27-1.45-1.27c-0.92,0-1.55,0.57-1.88,1.02c-0.08-0.77-0.74-1.02-1.19-1.02c-0.48,0-0.74,0.35-0.88,0.6
		c-0.25,0.41-0.4,1.05-0.4,1.1c0,0.14,0.16,0.14,0.19,0.14c0.16,0,0.17-0.03,0.25-0.33c0.17-0.66,0.38-1.2,0.81-1.2
		c0.29,0,0.37,0.25,0.37,0.55c0,0.21-0.1,0.62-0.18,0.93c-0.08,0.3-0.19,0.76-0.25,1L65.85,171.04"/>
	<path class="st18" d="M63.79,166.84L63.79,166.84z"/>
</g>
<polygon class="st2" points="63.27,166.86 63.27,166.86 63.27,166.86 63.27,166.86 63.27,166.86 63.27,166.86 63.27,166.86 
	63.27,166.86 63.27,166.86 63.27,166.86 63.27,166.86 63.27,166.86 63.27,166.86 63.27,166.86 63.27,166.86 63.27,166.86 
	63.27,166.86 63.27,166.86 63.27,166.86 63.27,166.86 63.27,166.86 63.27,166.86 63.27,166.86 63.27,166.86 63.27,166.86 
	63.27,166.86 63.27,166.86 63.27,166.86 63.27,166.86 63.27,166.86 63.27,166.86 63.27,166.86 63.27,166.86 63.27,166.86 
	63.27,166.86 63.27,166.86 63.27,166.86 63.27,166.86 63.27,166.86 63.27,166.86 63.27,166.86 63.27,166.86 63.27,166.86 
	63.27,166.86 63.27,166.86 63.27,166.86 63.27,166.86 63.27,166.86 63.27,166.86 63.27,166.86 63.27,166.86 63.27,166.86 
	63.27,166.86 63.27,166.86 63.27,166.86 63.27,166.86 63.27,166.86 63.27,166.86 63.27,166.86 63.27,166.86 63.27,166.86 
	63.27,166.86 63.27,166.86 63.27,166.86 63.27,166.86 63.27,166.86 63.27,166.86 63.27,166.86 63.27,166.86 63.27,166.86 
	63.27,166.86 63.27,166.86 63.27,166.86 63.27,166.86 63.27,166.86 63.27,166.86 63.27,166.86 63.27,166.86 63.27,166.86 
	63.27,166.86 63.27,166.86 63.27,166.86 63.27,166.86 63.27,166.86 63.27,166.86 "/>
<g>
	<g>
		<line class="st0" x1="118.35" y1="115.01" x2="288.57" y2="86.02"/>
		<g>
			<polygon points="295.53,84.83 286.41,90.51 288.05,86.1 285.04,82.49 			"/>
		</g>
	</g>
</g>
</svg>
