<?xml version="1.0" encoding="utf-8"?>
<!-- Generator: Adobe Illustrator 24.2.3, SVG Export Plug-In . SVG Version: 6.00 Build 0)  -->
<svg version="1.1" id="Layer_1" xmlns="http://www.w3.org/2000/svg" xmlns:xlink="http://www.w3.org/1999/xlink" x="0px" y="0px"
	 viewBox="0 0 595.28 841.89" style="enable-background:new 0 0 595.28 841.89;" xml:space="preserve">
<style type="text/css">
	.st0{fill:none;stroke:#000000;stroke-miterlimit:10;}
	.st1{fill:none;stroke:#000000;stroke-miterlimit:10;stroke-dasharray:11.4198,11.4198;}
	.st2{opacity:0;fill:none;stroke:#010202;stroke-width:1.000000e-06;stroke-miterlimit:10;}
	.st3{clip-path:url(#SVGID_1_);}
	.st4{opacity:0;clip-path:url(#SVGID_1_);fill:none;stroke:#010202;stroke-width:9.999999e-07;stroke-miterlimit:10;}
	.st5{clip-path:url(#SVGID_2_);}
	.st6{opacity:0;clip-path:url(#SVGID_2_);fill:none;stroke:#010202;stroke-width:9.999999e-07;stroke-miterlimit:10;}
	.st7{clip-path:url(#SVGID_3_);}
	.st8{opacity:0;clip-path:url(#SVGID_4_);fill:none;stroke:#010202;stroke-width:9.999999e-07;stroke-miterlimit:10;}
	.st9{clip-path:url(#SVGID_5_);}
	.st10{opacity:0;clip-path:url(#SVGID_5_);fill:none;stroke:#010202;stroke-width:9.999999e-07;stroke-miterlimit:10;}
	.st11{clip-path:url(#SVGID_6_);}
	.st12{opacity:0;clip-path:url(#SVGID_6_);fill:none;stroke:#010202;stroke-width:9.999999e-07;stroke-miterlimit:10;}
	.st13{clip-path:url(#SVGID_7_);}
	.st14{opacity:0;clip-path:url(#SVGID_8_);fill:none;stroke:#010202;stroke-width:9.999999e-07;stroke-miterlimit:10;}
	.st15{clip-path:url(#SVGID_9_);}
	.st16{opacity:0;clip-path:url(#SVGID_9_);fill:none;stroke:#010202;stroke-width:9.999999e-07;stroke-miterlimit:10;}
	.st17{clip-path:url(#SVGID_10_);}
	.st18{opacity:0;clip-path:url(#SVGID_10_);fill:none;stroke:#010202;stroke-width:9.999999e-07;stroke-miterlimit:10;}
	.st19{clip-path:url(#SVGID_11_);}
	.st20{opacity:0;clip-path:url(#SVGID_11_);fill:none;stroke:#010202;stroke-width:9.999999e-07;stroke-miterlimit:10;}
	.st21{clip-path:url(#SVGID_12_);}
	.st22{opacity:0;clip-path:url(#SVGID_12_);fill:none;stroke:#010202;stroke-width:9.999999e-07;stroke-miterlimit:10;}
</style>
<g>
	<line class="st0" x1="126.03" y1="499.2" x2="275.53" y2="349.7"/>
	<line class="st0" x1="145.03" y1="395.2" x2="232.03" y2="449.2"/>
	<line class="st0" x1="127.72" y1="499.28" x2="161.49" y2="520.24"/>
	<line class="st0" x1="162.28" y1="518.95" x2="232.03" y2="449.2"/>
	<line class="st0" x1="144.34" y1="394.5" x2="221.62" y2="317.22"/>
	<line class="st0" x1="221.43" y1="316.58" x2="275.33" y2="350.03"/>
</g>
<g>
	<line class="st0" x1="320.47" y1="505.24" x2="469.97" y2="355.74"/>
	<line class="st0" x1="339.47" y1="401.24" x2="426.47" y2="455.24"/>
	<line class="st0" x1="322.15" y1="505.32" x2="355.92" y2="526.27"/>
	<line class="st0" x1="356.72" y1="524.99" x2="426.47" y2="455.24"/>
	<line class="st0" x1="338.77" y1="400.54" x2="416.05" y2="323.26"/>
	<line class="st0" x1="415.86" y1="322.62" x2="469.76" y2="356.07"/>
</g>
<g>
	<g>
		<line class="st0" x1="208.03" y1="378.2" x2="238.83" y2="406.43"/>
		<g>
			<polygon points="244.03,411.2 233.95,407.47 238.44,406.07 239.45,401.48 			"/>
		</g>
	</g>
</g>
<g>
	<g>
		<line class="st0" x1="197.16" y1="455.2" x2="238.89" y2="416.03"/>
		<g>
			<polygon points="244.03,411.2 239.56,420.97 238.5,416.39 234,415.04 			"/>
		</g>
	</g>
</g>
<g>
	<g>
		<line class="st0" x1="414.25" y1="382.2" x2="244.03" y2="411.2"/>
		<g>
			<polygon points="421.21,381.02 410.72,378.68 413.73,382.29 412.09,386.7 			"/>
		</g>
	</g>
</g>
<g>
	<g>
		<line class="st0" x1="366.03" y1="490.11" x2="351.99" y2="459.61"/>
		<g>
			<polygon points="349.03,453.2 356.89,460.53 352.21,460.09 349.5,463.93 			"/>
		</g>
	</g>
</g>
<g>
	<g>
		<line class="st0" x1="421.21" y1="381.02" x2="354.03" y2="448.2"/>
		<g>
			<polygon points="349.03,453.2 353.2,443.29 354.4,447.83 358.94,449.04 			"/>
		</g>
	</g>
</g>
<g>
	<g>
		<line class="st0" x1="208.03" y1="378.2" x2="214.03" y2="378.28"/>
		<line class="st1" x1="225.45" y1="378.43" x2="402.44" y2="380.77"/>
		<line class="st0" x1="408.15" y1="380.85" x2="414.15" y2="380.93"/>
		<g>
			<polygon points="421.21,381.02 411.21,384.95 413.62,380.92 411.32,376.82 			"/>
		</g>
	</g>
</g>
<polygon class="st2" points="216.65,303.24 216.65,303.24 216.65,303.24 216.65,303.24 216.65,303.24 216.65,303.24 216.65,303.24 
	216.65,303.24 216.65,303.24 216.65,303.24 216.65,303.24 216.65,303.24 216.65,303.24 216.65,303.24 216.65,303.24 216.65,303.24 
	216.65,303.24 216.65,303.24 216.65,303.24 216.65,303.24 216.65,303.24 216.65,303.24 216.65,303.24 216.65,303.24 216.65,303.24 
	216.65,303.24 216.65,303.24 216.65,303.24 216.65,303.24 216.65,303.24 216.65,303.24 216.65,303.24 216.65,303.24 216.65,303.24 
	216.65,303.24 216.65,303.24 216.65,303.24 216.65,303.24 216.65,303.24 216.65,303.24 216.65,303.24 216.65,303.24 216.65,303.24 
	216.65,303.24 216.65,303.24 216.65,303.24 216.65,303.24 216.65,303.24 216.65,303.24 216.65,303.24 216.65,303.24 216.65,303.24 
	216.65,303.24 216.65,303.24 216.65,303.24 216.65,303.24 216.65,303.24 216.65,303.24 216.65,303.24 216.65,303.24 216.65,303.24 
	216.65,303.24 216.65,303.24 216.65,303.24 216.65,303.24 216.65,303.24 216.65,303.24 216.65,303.24 216.65,303.24 216.65,303.24 
	216.65,303.24 216.65,303.24 216.65,303.24 216.65,303.24 216.65,303.24 216.65,303.24 216.65,303.24 216.65,303.24 216.65,303.24 
	216.65,303.24 216.65,303.24 216.65,303.24 216.65,303.24 216.65,303.24 216.65,303.24 216.65,303.24 "/>
<g>
	<defs>
		<rect id="SVGID_25_" x="403.6" y="304.69" width="36" height="17"/>
	</defs>
	<clipPath id="SVGID_1_">
		<use xlink:href="#SVGID_25_"  style="overflow:visible;"/>
	</clipPath>
	<path class="st3" d="M412.15,311.58c1.61-0.35,3.5-1.46,3.5-3.07c0-1.37-1.43-2.38-3.51-2.38h-4.53c-0.32,0-0.46,0-0.46,0.32
		c0,0.17,0.14,0.17,0.45,0.17c0.03,0,0.33,0,0.6,0.03c0.29,0.03,0.43,0.05,0.43,0.25c0,0.06-0.02,0.11-0.06,0.3l-2.13,8.54
		c-0.16,0.62-0.19,0.75-1.45,0.75c-0.29,0-0.43,0-0.43,0.32c0,0.18,0.19,0.18,0.22,0.18c0.45,0,1.56-0.05,2-0.05
		s1.57,0.05,2.02,0.05c0.13,0,0.32,0,0.32-0.32c0-0.17-0.14-0.17-0.44-0.17c-0.59,0-1.03,0-1.03-0.29c0-0.1,0.03-0.17,0.05-0.27
		l1.05-4.21h1.89c1.45,0,1.73,0.89,1.73,1.45c0,0.24-0.13,0.73-0.22,1.1c-0.11,0.44-0.25,1.03-0.25,1.35c0,1.72,1.91,1.72,2.11,1.72
		c1.35,0,1.91-1.61,1.91-1.83c0-0.19-0.17-0.19-0.19-0.19c-0.14,0-0.17,0.11-0.21,0.22c-0.4,1.18-1.08,1.45-1.45,1.45
		c-0.53,0-0.64-0.35-0.64-0.97c0-0.49,0.1-1.3,0.16-1.81c0.03-0.22,0.06-0.52,0.06-0.75C413.65,312.24,412.58,311.74,412.15,311.58
		 M409.86,307.23c0.1-0.38,0.14-0.54,0.44-0.59c0.14-0.02,0.65-0.02,0.97-0.02c1.13,0,2.89,0,2.89,1.57c0,0.54-0.25,1.64-0.87,2.26
		c-0.41,0.41-1.26,0.92-2.69,0.92h-1.78L409.86,307.23z"/>
	<path class="st3" d="M421.36,320.8c0-0.05,0-0.08-0.27-0.35c-1.99-2-2.5-5.01-2.5-7.44c0-2.77,0.6-5.53,2.56-7.52
		c0.21-0.19,0.21-0.22,0.21-0.27c0-0.11-0.06-0.16-0.16-0.16c-0.16,0-1.59,1.08-2.53,3.1c-0.81,1.75-1,3.51-1,4.85
		c0,1.24,0.17,3.16,1.05,4.96c0.95,1.95,2.32,2.99,2.48,2.99C421.3,320.96,421.36,320.92,421.36,320.8"/>
	<path class="st3" d="M427.05,312.82l3.13-5.25l0.51,5.25H427.05z M425.15,315.16c-0.64,1.07-1.26,1.29-1.95,1.34
		c-0.19,0.02-0.33,0.02-0.33,0.32c0,0.1,0.08,0.18,0.21,0.18c0.43,0,0.92-0.05,1.37-0.05c0.52,0,1.08,0.05,1.59,0.05
		c0.1,0,0.3,0,0.3-0.3c0-0.17-0.14-0.19-0.25-0.19c-0.37-0.03-0.75-0.16-0.75-0.56c0-0.19,0.1-0.37,0.22-0.59l1.21-2.03h3.99
		c0.03,0.33,0.25,2.5,0.25,2.65c0,0.48-0.83,0.53-1.14,0.53c-0.22,0-0.38,0-0.38,0.32c0,0.18,0.19,0.18,0.22,0.18
		c0.65,0,1.33-0.05,1.99-0.05c0.4,0,1.4,0.05,1.8,0.05c0.1,0,0.29,0,0.29-0.32c0-0.17-0.16-0.17-0.37-0.17
		c-0.99,0-0.99-0.11-1.03-0.57l-0.97-9.93c-0.03-0.32-0.03-0.38-0.3-0.38c-0.25,0-0.32,0.11-0.41,0.27L425.15,315.16z"/>
	<path class="st3" d="M438.8,313.02c0-1.24-0.17-3.16-1.05-4.96c-0.95-1.95-2.32-2.99-2.48-2.99c-0.1,0-0.16,0.06-0.16,0.16
		c0,0.05,0,0.08,0.3,0.37c1.56,1.57,2.46,4.1,2.46,7.42c0,2.72-0.59,5.52-2.56,7.52c-0.21,0.19-0.21,0.22-0.21,0.27
		c0,0.1,0.06,0.16,0.16,0.16c0.16,0,1.59-1.08,2.53-3.1C438.61,316.12,438.8,314.35,438.8,313.02"/>
	<path class="st4" d="M421.6,313.19L421.6,313.19z"/>
</g>
<g>
	<defs>
		<rect id="SVGID_27_" x="197.16" y="296.19" width="43" height="17"/>
	</defs>
	<clipPath id="SVGID_2_">
		<use xlink:href="#SVGID_27_"  style="overflow:visible;"/>
	</clipPath>
	<path class="st5" d="M205.21,303.08c1.61-0.35,3.5-1.46,3.5-3.07c0-1.37-1.43-2.38-3.51-2.38h-4.53c-0.32,0-0.46,0-0.46,0.32
		c0,0.17,0.14,0.17,0.45,0.17c0.03,0,0.33,0,0.6,0.03c0.29,0.03,0.43,0.05,0.43,0.25c0,0.06-0.02,0.11-0.06,0.3l-2.13,8.54
		c-0.16,0.62-0.19,0.75-1.45,0.75c-0.29,0-0.43,0-0.43,0.32c0,0.18,0.19,0.18,0.22,0.18c0.45,0,1.56-0.05,2-0.05
		s1.57,0.05,2.02,0.05c0.13,0,0.32,0,0.32-0.32c0-0.17-0.14-0.17-0.44-0.17c-0.59,0-1.03,0-1.03-0.29c0-0.1,0.03-0.17,0.05-0.27
		l1.05-4.21h1.89c1.45,0,1.73,0.89,1.73,1.45c0,0.24-0.13,0.73-0.22,1.1c-0.11,0.44-0.25,1.03-0.25,1.35c0,1.72,1.91,1.72,2.11,1.72
		c1.35,0,1.91-1.61,1.91-1.83c0-0.19-0.17-0.19-0.19-0.19c-0.14,0-0.18,0.11-0.21,0.22c-0.4,1.18-1.08,1.45-1.45,1.45
		c-0.52,0-0.64-0.35-0.64-0.97c0-0.49,0.1-1.3,0.16-1.81c0.03-0.22,0.06-0.52,0.06-0.75C206.7,303.74,205.64,303.24,205.21,303.08
		 M202.92,298.73c0.1-0.38,0.14-0.54,0.44-0.59c0.14-0.02,0.65-0.02,0.97-0.02c1.13,0,2.89,0,2.89,1.57c0,0.54-0.25,1.64-0.87,2.26
		c-0.41,0.41-1.26,0.92-2.69,0.92h-1.78L202.92,298.73z"/>
	<path class="st5" d="M214.42,312.3c0-0.05,0-0.08-0.27-0.35c-1.99-2-2.5-5.01-2.5-7.44c0-2.77,0.6-5.53,2.56-7.52
		c0.21-0.19,0.21-0.22,0.21-0.27c0-0.11-0.06-0.16-0.16-0.16c-0.16,0-1.59,1.08-2.53,3.1c-0.81,1.75-1,3.51-1,4.85
		c0,1.24,0.18,3.16,1.05,4.96c0.95,1.95,2.32,2.99,2.48,2.99C214.36,312.46,214.42,312.42,214.42,312.3"/>
	<path class="st5" d="M220.11,304.32l3.13-5.25l0.51,5.25H220.11z M218.21,306.66c-0.64,1.07-1.26,1.29-1.95,1.34
		c-0.19,0.02-0.33,0.02-0.33,0.32c0,0.1,0.08,0.18,0.21,0.18c0.43,0,0.92-0.05,1.37-0.05c0.52,0,1.08,0.05,1.59,0.05
		c0.1,0,0.3,0,0.3-0.3c0-0.17-0.14-0.19-0.25-0.19c-0.37-0.03-0.75-0.16-0.75-0.56c0-0.19,0.1-0.37,0.22-0.59l1.21-2.03h3.99
		c0.03,0.33,0.25,2.5,0.25,2.65c0,0.48-0.83,0.53-1.14,0.53c-0.22,0-0.38,0-0.38,0.32c0,0.18,0.19,0.18,0.22,0.18
		c0.65,0,1.33-0.05,1.99-0.05c0.4,0,1.4,0.05,1.8,0.05c0.1,0,0.29,0,0.29-0.32c0-0.17-0.16-0.17-0.37-0.17
		c-0.99,0-0.99-0.11-1.03-0.57l-0.97-9.93c-0.03-0.32-0.03-0.38-0.3-0.38c-0.25,0-0.32,0.11-0.41,0.27L218.21,306.66z"/>
	<path class="st5" d="M230.96,299.11c0.92-0.4,1.33-0.56,1.61-0.69c0.21-0.09,0.31-0.13,0.31-0.35c0-0.19-0.14-0.36-0.35-0.36
		c-0.08,0-0.1,0-0.23,0.1l-1.52,1.02l0.17-1.65c0.02-0.2,0-0.48-0.33-0.48c-0.13,0-0.35,0.09-0.35,0.33c0,0.1,0.04,0.44,0.05,0.55
		c0.02,0.19,0.1,0.99,0.12,1.25l-1.51-1.02c-0.11-0.07-0.15-0.1-0.25-0.1c-0.2,0-0.35,0.17-0.35,0.36c0,0.22,0.13,0.28,0.23,0.32
		l1.69,0.7c-0.92,0.4-1.33,0.56-1.61,0.69c-0.21,0.09-0.31,0.13-0.31,0.35c0,0.19,0.15,0.36,0.35,0.36c0.08,0,0.1,0,0.23-0.1
		l1.52-1.02l-0.18,1.8c0,0.25,0.21,0.33,0.35,0.33s0.35-0.09,0.35-0.33c0-0.1-0.04-0.43-0.05-0.55c-0.02-0.19-0.1-0.99-0.12-1.25
		l1.34,0.89c0.29,0.22,0.31,0.22,0.41,0.22c0.2,0,0.35-0.17,0.35-0.36c0-0.22-0.13-0.28-0.23-0.32L230.96,299.11"/>
	<path class="st5" d="M239.25,304.52c0-1.24-0.18-3.16-1.05-4.96c-0.95-1.95-2.32-2.99-2.48-2.99c-0.1,0-0.16,0.06-0.16,0.16
		c0,0.05,0,0.08,0.3,0.37c1.56,1.57,2.46,4.1,2.46,7.42c0,2.72-0.59,5.52-2.56,7.52c-0.21,0.19-0.21,0.22-0.21,0.27
		c0,0.1,0.06,0.16,0.16,0.16c0.16,0,1.59-1.08,2.53-3.1C239.06,307.62,239.25,305.85,239.25,304.52"/>
	<path class="st6" d="M218.66,304.69L218.66,304.69z"/>
</g>
<polygon class="st2" points="368.14,536.43 368.14,536.43 368.14,536.43 368.14,536.43 368.14,536.43 368.14,536.43 368.14,536.43 
	368.14,536.43 368.14,536.43 368.14,536.43 368.14,536.43 368.14,536.43 368.14,536.43 368.14,536.43 368.14,536.43 368.14,536.43 
	368.14,536.43 368.14,536.43 368.14,536.43 368.14,536.43 368.14,536.43 368.14,536.43 368.14,536.43 368.14,536.43 368.14,536.43 
	368.14,536.43 368.14,536.43 368.14,536.43 368.14,536.43 368.14,536.43 368.14,536.43 368.14,536.43 368.14,536.43 368.14,536.43 
	368.14,536.43 368.14,536.43 368.14,536.43 368.14,536.43 368.14,536.43 368.14,536.43 368.14,536.43 368.14,536.43 368.14,536.43 
	368.14,536.43 368.14,536.43 368.14,536.43 368.14,536.43 368.14,536.43 368.14,536.43 368.14,536.43 368.14,536.43 368.14,536.43 
	368.14,536.43 368.14,536.43 368.14,536.43 368.14,536.43 368.14,536.43 368.14,536.43 368.14,536.43 368.14,536.43 368.14,536.43 
	368.14,536.43 368.14,536.43 368.14,536.43 368.14,536.43 368.14,536.43 368.14,536.43 368.14,536.43 368.14,536.43 368.14,536.43 
	368.14,536.43 368.14,536.43 368.14,536.43 368.14,536.43 368.14,536.43 368.14,536.43 368.14,536.43 368.14,536.43 368.14,536.43 
	368.14,536.43 368.14,536.43 368.14,536.43 368.14,536.43 368.14,536.43 368.14,536.43 368.14,536.43 "/>
<g>
	<defs>
		<rect id="SVGID_29_" x="144.6" y="523.51" width="37.34" height="17"/>
	</defs>
	<clipPath id="SVGID_3_">
		<use xlink:href="#SVGID_29_"  style="overflow:visible;"/>
	</clipPath>
	<path class="st7" d="M156.32,526.62c0.16-0.64,0.45-1.13,1.72-1.18c0.08,0,0.27-0.02,0.27-0.32c0-0.02,0-0.17-0.21-0.17
		c-0.52,0-1.08,0.05-1.6,0.05c-0.54,0-1.1-0.05-1.62-0.05c-0.1,0-0.29,0-0.29,0.32c0,0.17,0.16,0.17,0.29,0.17
		c0.91,0.02,1.08,0.35,1.08,0.7c0,0.05-0.03,0.29-0.05,0.33l-1.78,7.07l-3.51-8.3c-0.13-0.29-0.14-0.3-0.51-0.3h-2.13
		c-0.32,0-0.46,0-0.46,0.32c0,0.17,0.14,0.17,0.45,0.17c0.08,0,1.08,0,1.08,0.14l-2.13,8.54c-0.16,0.64-0.43,1.14-1.72,1.19
		c-0.1,0-0.27,0.02-0.27,0.32c0,0.11,0.08,0.17,0.21,0.17c0.51,0,1.06-0.05,1.59-0.05c0.54,0,1.11,0.05,1.64,0.05
		c0.08,0,0.29,0,0.29-0.32c0-0.16-0.14-0.17-0.32-0.17c-0.92-0.03-1.05-0.38-1.05-0.7c0-0.11,0.02-0.19,0.06-0.37l2.1-8.39
		c0.06,0.1,0.06,0.13,0.14,0.29l3.96,9.36c0.11,0.27,0.16,0.3,0.3,0.3c0.17,0,0.17-0.05,0.25-0.33L156.32,526.62"/>
	<path class="st7" d="M164.07,539.62c0-0.05,0-0.08-0.27-0.35c-1.99-2-2.5-5.01-2.5-7.44c0-2.77,0.6-5.53,2.56-7.52
		c0.21-0.19,0.21-0.22,0.21-0.27c0-0.11-0.06-0.16-0.16-0.16c-0.16,0-1.59,1.08-2.53,3.1c-0.81,1.75-1,3.51-1,4.85
		c0,1.24,0.18,3.16,1.05,4.96c0.95,1.95,2.32,2.99,2.48,2.99C164,539.78,164.07,539.74,164.07,539.62"/>
	<path class="st7" d="M169.76,531.64l3.13-5.25l0.51,5.25H169.76z M167.85,533.98c-0.64,1.07-1.26,1.29-1.95,1.34
		c-0.19,0.02-0.33,0.02-0.33,0.32c0,0.1,0.08,0.17,0.21,0.17c0.43,0,0.92-0.05,1.37-0.05c0.53,0,1.08,0.05,1.59,0.05
		c0.1,0,0.3,0,0.3-0.3c0-0.17-0.14-0.19-0.25-0.19c-0.37-0.03-0.75-0.16-0.75-0.56c0-0.19,0.1-0.37,0.22-0.59l1.21-2.03h3.99
		c0.03,0.33,0.25,2.5,0.25,2.65c0,0.48-0.83,0.52-1.14,0.52c-0.22,0-0.38,0-0.38,0.32c0,0.17,0.19,0.17,0.22,0.17
		c0.65,0,1.33-0.05,1.99-0.05c0.4,0,1.4,0.05,1.8,0.05c0.1,0,0.29,0,0.29-0.32c0-0.17-0.16-0.17-0.37-0.17
		c-0.99,0-0.99-0.11-1.03-0.57l-0.97-9.93c-0.03-0.32-0.03-0.38-0.3-0.38c-0.25,0-0.32,0.11-0.41,0.27L167.85,533.98z"/>
	<path class="st7" d="M181.6,531.84c0-1.24-0.18-3.16-1.05-4.96c-0.95-1.95-2.32-2.99-2.48-2.99c-0.1,0-0.16,0.06-0.16,0.16
		c0,0.05,0,0.08,0.3,0.37c1.56,1.57,2.46,4.1,2.46,7.42c0,2.72-0.59,5.52-2.56,7.52c-0.21,0.19-0.21,0.22-0.21,0.27
		c0,0.1,0.06,0.16,0.16,0.16c0.16,0,1.59-1.08,2.53-3.1C181.41,534.94,181.6,533.17,181.6,531.84"/>
</g>
<g>
	<defs>
		<rect id="SVGID_31_" x="340.7" y="528.81" width="38" height="17"/>
	</defs>
	<clipPath id="SVGID_4_">
		<use xlink:href="#SVGID_31_"  style="overflow:visible;"/>
	</clipPath>
	<path class="st8" d="M359.7,537.31L359.7,537.31z"/>
</g>
<polygon class="st2" points="359.4,538.03 359.4,538.03 359.4,538.03 359.4,538.03 359.4,538.03 359.4,538.03 359.4,538.03 
	359.4,538.03 359.4,538.03 359.4,538.03 359.4,538.03 359.4,538.03 359.4,538.03 359.4,538.03 359.4,538.03 359.4,538.03 
	359.4,538.03 359.4,538.03 359.4,538.03 359.4,538.03 359.4,538.03 359.4,538.03 359.4,538.03 359.4,538.03 359.4,538.03 
	359.4,538.03 359.4,538.03 359.4,538.03 359.4,538.03 359.4,538.03 359.4,538.03 359.4,538.03 359.4,538.03 359.4,538.03 
	359.4,538.03 359.4,538.03 359.4,538.03 359.4,538.03 359.4,538.03 359.4,538.03 359.4,538.03 359.4,538.03 359.4,538.03 
	359.4,538.03 359.4,538.03 359.4,538.03 359.4,538.03 359.4,538.03 359.4,538.03 359.4,538.03 359.4,538.03 359.4,538.03 
	359.4,538.03 359.4,538.03 359.4,538.03 359.4,538.03 359.4,538.03 359.4,538.03 359.4,538.03 359.4,538.03 359.4,538.03 
	359.4,538.03 359.4,538.03 359.4,538.03 359.4,538.03 359.4,538.03 359.4,538.03 359.4,538.03 359.4,538.03 359.4,538.03 
	359.4,538.03 359.4,538.03 359.4,538.03 359.4,538.03 359.4,538.03 359.4,538.03 359.4,538.03 359.4,538.03 359.4,538.03 
	359.4,538.03 359.4,538.03 359.4,538.03 359.4,538.03 359.4,538.03 359.4,538.03 359.4,538.03 "/>
<g>
	<defs>
		<rect id="SVGID_33_" x="333.67" y="528.81" width="45" height="17"/>
	</defs>
	<clipPath id="SVGID_5_">
		<use xlink:href="#SVGID_33_"  style="overflow:visible;"/>
	</clipPath>
	<path class="st9" d="M345.89,531.93c0.16-0.64,0.45-1.13,1.72-1.18c0.08,0,0.27-0.02,0.27-0.32c0-0.02,0-0.17-0.21-0.17
		c-0.52,0-1.08,0.05-1.6,0.05c-0.54,0-1.1-0.05-1.62-0.05c-0.1,0-0.29,0-0.29,0.32c0,0.17,0.16,0.17,0.29,0.17
		c0.91,0.02,1.08,0.35,1.08,0.7c0,0.05-0.03,0.29-0.05,0.33l-1.78,7.07l-3.51-8.3c-0.13-0.29-0.14-0.3-0.51-0.3h-2.13
		c-0.32,0-0.46,0-0.46,0.32c0,0.17,0.14,0.17,0.45,0.17c0.08,0,1.08,0,1.08,0.14l-2.13,8.54c-0.16,0.64-0.43,1.14-1.72,1.19
		c-0.1,0-0.27,0.02-0.27,0.32c0,0.11,0.08,0.18,0.21,0.18c0.51,0,1.06-0.05,1.59-0.05c0.54,0,1.11,0.05,1.64,0.05
		c0.08,0,0.29,0,0.29-0.32c0-0.16-0.14-0.18-0.32-0.18c-0.92-0.03-1.05-0.38-1.05-0.7c0-0.11,0.02-0.19,0.06-0.37l2.1-8.39
		c0.06,0.1,0.06,0.13,0.14,0.29l3.96,9.36c0.11,0.27,0.16,0.3,0.3,0.3c0.18,0,0.18-0.05,0.25-0.33L345.89,531.93"/>
	<path class="st9" d="M353.73,544.93c0-0.05,0-0.08-0.27-0.35c-1.99-2-2.5-5.01-2.5-7.44c0-2.77,0.6-5.53,2.56-7.52
		c0.21-0.19,0.21-0.22,0.21-0.27c0-0.11-0.06-0.16-0.16-0.16c-0.16,0-1.59,1.08-2.53,3.1c-0.81,1.75-1,3.51-1,4.85
		c0,1.24,0.17,3.16,1.05,4.96c0.95,1.95,2.32,2.99,2.48,2.99C353.67,545.08,353.73,545.04,353.73,544.93"/>
	<path class="st9" d="M359.42,536.95l3.13-5.25l0.51,5.25H359.42z M357.52,539.28c-0.64,1.07-1.26,1.29-1.95,1.34
		c-0.19,0.02-0.33,0.02-0.33,0.32c0,0.1,0.08,0.18,0.21,0.18c0.43,0,0.92-0.05,1.37-0.05c0.52,0,1.08,0.05,1.59,0.05
		c0.1,0,0.3,0,0.3-0.3c0-0.17-0.14-0.19-0.25-0.19c-0.37-0.03-0.75-0.16-0.75-0.56c0-0.19,0.1-0.37,0.22-0.59l1.21-2.03h3.99
		c0.03,0.33,0.25,2.5,0.25,2.65c0,0.48-0.83,0.52-1.14,0.52c-0.22,0-0.38,0-0.38,0.32c0,0.18,0.19,0.18,0.22,0.18
		c0.65,0,1.33-0.05,1.99-0.05c0.4,0,1.4,0.05,1.8,0.05c0.1,0,0.29,0,0.29-0.32c0-0.18-0.16-0.18-0.37-0.18
		c-0.99,0-0.99-0.11-1.03-0.57l-0.97-9.93c-0.03-0.32-0.03-0.38-0.3-0.38c-0.25,0-0.32,0.11-0.41,0.27L357.52,539.28z"/>
	<path class="st9" d="M370.18,531.73c0.92-0.4,1.33-0.56,1.61-0.69c0.21-0.09,0.31-0.13,0.31-0.35c0-0.19-0.14-0.36-0.35-0.36
		c-0.08,0-0.1,0-0.23,0.1l-1.52,1.02l0.17-1.65c0.02-0.2,0-0.48-0.33-0.48c-0.13,0-0.35,0.09-0.35,0.33c0,0.1,0.04,0.44,0.05,0.55
		c0.02,0.19,0.1,0.99,0.12,1.25l-1.51-1.02c-0.11-0.07-0.15-0.1-0.25-0.1c-0.2,0-0.35,0.17-0.35,0.36c0,0.22,0.13,0.28,0.23,0.32
		l1.69,0.7c-0.92,0.4-1.33,0.56-1.61,0.69c-0.21,0.09-0.31,0.13-0.31,0.35c0,0.19,0.15,0.36,0.35,0.36c0.08,0,0.1,0,0.23-0.1
		l1.52-1.02l-0.18,1.8c0,0.25,0.21,0.33,0.35,0.33s0.35-0.09,0.35-0.33c0-0.1-0.04-0.43-0.05-0.55c-0.02-0.19-0.1-0.99-0.12-1.25
		l1.34,0.89c0.29,0.22,0.31,0.22,0.41,0.22c0.2,0,0.35-0.17,0.35-0.36c0-0.22-0.13-0.28-0.23-0.32L370.18,531.73"/>
	<path class="st9" d="M378.57,537.14c0-1.24-0.17-3.16-1.05-4.96c-0.95-1.95-2.32-2.99-2.48-2.99c-0.1,0-0.16,0.06-0.16,0.16
		c0,0.05,0,0.08,0.3,0.37c1.56,1.57,2.46,4.1,2.46,7.42c0,2.72-0.59,5.52-2.56,7.52c-0.21,0.19-0.21,0.22-0.21,0.27
		c0,0.1,0.06,0.16,0.16,0.16c0.16,0,1.59-1.08,2.53-3.1C378.38,540.24,378.57,538.47,378.57,537.14"/>
	<path class="st10" d="M356.17,537.31L356.17,537.31z"/>
</g>
<polygon class="st2" points="160.52,532.01 160.52,532.01 160.52,532.01 160.52,532.01 160.52,532.01 160.52,532.01 160.52,532.01 
	160.52,532.01 160.52,532.01 160.52,532.01 160.52,532.01 160.52,532.01 160.52,532.01 160.52,532.01 160.52,532.01 160.52,532.01 
	160.52,532.01 160.52,532.01 160.52,532.01 160.52,532.01 160.52,532.01 160.52,532.01 160.52,532.01 160.52,532.01 160.52,532.01 
	160.52,532.01 160.52,532.01 160.52,532.01 160.52,532.01 160.52,532.01 160.52,532.01 160.52,532.01 160.52,532.01 160.52,532.01 
	160.52,532.01 160.52,532.01 160.52,532.01 160.52,532.01 160.52,532.01 160.52,532.01 160.52,532.01 160.52,532.01 160.52,532.01 
	160.52,532.01 160.52,532.01 160.52,532.01 160.52,532.01 160.52,532.01 160.52,532.01 160.52,532.01 160.52,532.01 160.52,532.01 
	160.52,532.01 160.52,532.01 160.52,532.01 160.52,532.01 160.52,532.01 160.52,532.01 160.52,532.01 160.52,532.01 160.52,532.01 
	160.52,532.01 160.52,532.01 160.52,532.01 160.52,532.01 160.52,532.01 160.52,532.01 160.52,532.01 160.52,532.01 160.52,532.01 
	160.52,532.01 160.52,532.01 160.52,532.01 160.52,532.01 160.52,532.01 160.52,532.01 160.52,532.01 160.52,532.01 160.52,532.01 
	160.52,532.01 160.52,532.01 160.52,532.01 160.52,532.01 160.52,532.01 160.52,532.01 160.52,532.01 "/>
<g>
	<defs>
		<rect id="SVGID_35_" x="249.31" y="402.02" width="8" height="8"/>
	</defs>
	<clipPath id="SVGID_6_">
		<use xlink:href="#SVGID_35_"  style="overflow:visible;"/>
	</clipPath>
	<path class="st11" d="M254.22,404.72c0.1-0.41,0.46-1.88,1.57-1.88c0.08,0,0.46,0,0.79,0.21c-0.45,0.08-0.76,0.48-0.76,0.86
		c0,0.25,0.18,0.56,0.6,0.56c0.35,0,0.86-0.29,0.86-0.92c0-0.83-0.94-1.05-1.48-1.05c-0.92,0-1.48,0.84-1.67,1.21
		c-0.4-1.05-1.26-1.21-1.72-1.21c-1.65,0-2.56,2.05-2.56,2.45c0,0.16,0.16,0.16,0.19,0.16c0.13,0,0.17-0.03,0.21-0.17
		c0.54-1.68,1.59-2.08,2.13-2.08c0.3,0,0.86,0.14,0.86,1.06c0,0.49-0.27,1.56-0.86,3.78c-0.25,0.99-0.81,1.65-1.51,1.65
		c-0.1,0-0.46,0-0.79-0.21c0.4-0.08,0.75-0.41,0.75-0.86c0-0.43-0.35-0.56-0.59-0.56c-0.48,0-0.87,0.41-0.87,0.92
		c0,0.73,0.8,1.05,1.49,1.05c1.05,0,1.62-1.11,1.67-1.21c0.19,0.59,0.76,1.21,1.72,1.21c1.64,0,2.54-2.05,2.54-2.45
		c0-0.16-0.14-0.16-0.19-0.16c-0.14,0-0.18,0.06-0.21,0.18c-0.52,1.7-1.6,2.08-2.11,2.08c-0.62,0-0.87-0.51-0.87-1.05
		c0-0.35,0.1-0.7,0.27-1.4L254.22,404.72"/>
	<path class="st12" d="M253.81,406.02L253.81,406.02z"/>
</g>
<polygon class="st2" points="253.75,406.38 253.75,406.38 253.75,406.38 253.75,406.38 253.75,406.38 253.75,406.38 253.75,406.38 
	253.75,406.38 253.75,406.38 253.75,406.38 253.75,406.38 253.75,406.38 253.75,406.38 253.75,406.38 253.75,406.38 253.75,406.38 
	253.75,406.38 253.75,406.38 253.75,406.38 253.75,406.38 253.75,406.38 253.75,406.38 253.75,406.38 253.75,406.38 253.75,406.38 
	253.75,406.38 253.75,406.38 253.75,406.38 253.75,406.38 253.75,406.38 253.75,406.38 253.75,406.38 253.75,406.38 253.75,406.38 
	253.75,406.38 253.75,406.38 253.75,406.38 253.75,406.38 253.75,406.38 253.75,406.38 253.75,406.38 253.75,406.38 253.75,406.38 
	253.75,406.38 253.75,406.38 253.75,406.38 253.75,406.38 253.75,406.38 253.75,406.38 253.75,406.38 253.75,406.38 253.75,406.38 
	253.75,406.38 253.75,406.38 253.75,406.38 253.75,406.38 253.75,406.38 253.75,406.38 253.75,406.38 253.75,406.38 253.75,406.38 
	253.75,406.38 253.75,406.38 253.75,406.38 253.75,406.38 253.75,406.38 253.75,406.38 253.75,406.38 253.75,406.38 253.75,406.38 
	253.75,406.38 253.75,406.38 253.75,406.38 253.75,406.38 253.75,406.38 253.75,406.38 253.75,406.38 253.75,406.38 253.75,406.38 
	253.75,406.38 253.75,406.38 253.75,406.38 253.75,406.38 253.75,406.38 253.75,406.38 "/>
<g>
	<defs>
		<rect id="SVGID_37_" x="342.55" y="431.24" width="6.94" height="12.4"/>
	</defs>
	<clipPath id="SVGID_7_">
		<use xlink:href="#SVGID_37_"  style="overflow:visible;"/>
	</clipPath>
	<path class="st13" d="M344.56,438.29c0.1-0.35,0.1-0.38,0.24-0.56c0.78-1.03,1.49-1.27,1.91-1.27c0.57,0,1,0.48,1,1.49
		c0,0.94-0.52,2.77-0.81,3.37c-0.52,1.07-1.25,1.64-1.88,1.64c-0.54,0-1.07-0.43-1.07-1.6c0-0.3,0-0.6,0.25-1.61L344.56,438.29
		 M346.05,432.29c0-0.02,0-0.17-0.21-0.17c-0.37,0-1.53,0.13-1.94,0.16c-0.13,0.02-0.3,0.03-0.3,0.32c0,0.19,0.14,0.19,0.38,0.19
		c0.76,0,0.79,0.11,0.79,0.27c0,0.11-0.14,0.65-0.22,0.98l-1.3,5.18c-0.19,0.8-0.25,1.05-0.25,1.61c0,1.51,0.84,2.5,2.02,2.5
		c1.88,0,3.83-2.37,3.83-4.66c0-1.45-0.84-2.54-2.11-2.54c-0.73,0-1.38,0.46-1.86,0.95L346.05,432.29z"/>
</g>
<g>
	<defs>
		<rect id="SVGID_39_" x="342.55" y="431.24" width="7" height="13"/>
	</defs>
	<clipPath id="SVGID_8_">
		<use xlink:href="#SVGID_39_"  style="overflow:visible;"/>
	</clipPath>
	<path class="st14" d="M346.05,437.74L346.05,437.74z"/>
</g>
<polygon class="st2" points="345.57,438.68 345.57,438.68 345.57,438.68 345.57,438.68 345.57,438.68 345.57,438.68 345.57,438.68 
	345.57,438.68 345.57,438.68 345.57,438.68 345.57,438.68 345.57,438.68 345.57,438.68 345.57,438.68 345.57,438.68 345.57,438.68 
	345.57,438.68 345.57,438.68 345.57,438.68 345.57,438.68 345.57,438.68 345.57,438.68 345.57,438.68 345.57,438.68 345.57,438.68 
	345.57,438.68 345.57,438.68 345.57,438.68 345.57,438.68 345.57,438.68 345.57,438.68 345.57,438.68 345.57,438.68 345.57,438.68 
	345.57,438.68 345.57,438.68 345.57,438.68 345.57,438.68 345.57,438.68 345.57,438.68 345.57,438.68 345.57,438.68 345.57,438.68 
	345.57,438.68 345.57,438.68 345.57,438.68 345.57,438.68 345.57,438.68 345.57,438.68 345.57,438.68 345.57,438.68 345.57,438.68 
	345.57,438.68 345.57,438.68 345.57,438.68 345.57,438.68 345.57,438.68 345.57,438.68 345.57,438.68 345.57,438.68 345.57,438.68 
	345.57,438.68 345.57,438.68 345.57,438.68 345.57,438.68 345.57,438.68 345.57,438.68 345.57,438.68 345.57,438.68 345.57,438.68 
	345.57,438.68 345.57,438.68 345.57,438.68 345.57,438.68 345.57,438.68 345.57,438.68 345.57,438.68 345.57,438.68 345.57,438.68 
	345.57,438.68 345.57,438.68 345.57,438.68 345.57,438.68 345.57,438.68 345.57,438.68 "/>
<g>
	<defs>
		<rect id="SVGID_41_" x="423.16" y="366.9" width="12" height="14"/>
	</defs>
	<clipPath id="SVGID_9_">
		<use xlink:href="#SVGID_41_"  style="overflow:visible;"/>
	</clipPath>
	<path class="st15" d="M424.87,373.36c0.1-0.35,0.1-0.38,0.24-0.56c0.78-1.03,1.49-1.27,1.91-1.27c0.57,0,1,0.48,1,1.49
		c0,0.94-0.52,2.77-0.81,3.37c-0.52,1.07-1.25,1.64-1.88,1.64c-0.54,0-1.07-0.43-1.07-1.6c0-0.3,0-0.6,0.25-1.61L424.87,373.36
		 M426.36,367.35c0-0.02,0-0.17-0.21-0.17c-0.37,0-1.53,0.13-1.94,0.16c-0.13,0.02-0.3,0.03-0.3,0.32c0,0.19,0.14,0.19,0.38,0.19
		c0.76,0,0.79,0.11,0.79,0.27c0,0.11-0.14,0.65-0.22,0.98l-1.3,5.18c-0.19,0.8-0.25,1.05-0.25,1.61c0,1.51,0.84,2.5,2.02,2.5
		c1.88,0,3.83-2.37,3.83-4.66c0-1.45-0.84-2.54-2.11-2.54c-0.73,0-1.38,0.46-1.86,0.95L426.36,367.35z"/>
	<path class="st15" d="M431.98,378.35c0.01-0.07,0.27-1.07,0.29-1.13c0.02-0.09,0.35-0.65,0.7-0.92c0.12-0.09,0.43-0.31,0.9-0.31
		c0.11,0,0.39,0.01,0.61,0.16c-0.36,0.1-0.49,0.41-0.49,0.61c0,0.25,0.19,0.41,0.45,0.41c0.26,0,0.62-0.21,0.62-0.68
		c0-0.58-0.61-0.81-1.18-0.81c-0.58,0-1.08,0.23-1.57,0.79c-0.2-0.68-0.88-0.79-1.15-0.79c-0.41,0-0.69,0.26-0.87,0.57
		c-0.26,0.44-0.41,1.08-0.41,1.14c0,0.14,0.16,0.14,0.19,0.14c0.16,0,0.17-0.03,0.25-0.33c0.17-0.68,0.38-1.2,0.81-1.2
		c0.29,0,0.37,0.25,0.37,0.55c0,0.21-0.1,0.62-0.18,0.93c-0.08,0.3-0.19,0.76-0.25,1l-0.36,1.43c-0.04,0.15-0.11,0.42-0.11,0.46
		c0,0.25,0.2,0.36,0.38,0.36c0.17,0,0.39-0.1,0.48-0.32c0.02-0.07,0.15-0.56,0.21-0.84L431.98,378.35"/>
	<path class="st16" d="M429.16,373.9L429.16,373.9z"/>
</g>
<polygon class="st2" points="429.02,374.12 429.02,374.12 429.02,374.12 429.02,374.12 429.02,374.12 429.02,374.12 429.02,374.12 
	429.02,374.12 429.02,374.12 429.02,374.12 429.02,374.12 429.02,374.12 429.02,374.12 429.02,374.12 429.02,374.12 429.02,374.12 
	429.02,374.12 429.02,374.12 429.02,374.12 429.02,374.12 429.02,374.12 429.02,374.12 429.02,374.12 429.02,374.12 429.02,374.12 
	429.02,374.12 429.02,374.12 429.02,374.12 429.02,374.12 429.02,374.12 429.02,374.12 429.02,374.12 429.02,374.12 429.02,374.12 
	429.02,374.12 429.02,374.12 429.02,374.12 429.02,374.12 429.02,374.12 429.02,374.12 429.02,374.12 429.02,374.12 429.02,374.12 
	429.02,374.12 429.02,374.12 429.02,374.12 429.02,374.12 429.02,374.12 429.02,374.12 429.02,374.12 429.02,374.12 429.02,374.12 
	429.02,374.12 429.02,374.12 429.02,374.12 429.02,374.12 429.02,374.12 429.02,374.12 429.02,374.12 429.02,374.12 429.02,374.12 
	429.02,374.12 429.02,374.12 429.02,374.12 429.02,374.12 429.02,374.12 429.02,374.12 429.02,374.12 429.02,374.12 429.02,374.12 
	429.02,374.12 429.02,374.12 429.02,374.12 429.02,374.12 429.02,374.12 429.02,374.12 429.02,374.12 429.02,374.12 429.02,374.12 
	429.02,374.12 429.02,374.12 429.02,374.12 429.02,374.12 429.02,374.12 429.02,374.12 "/>
<g>
	<defs>
		<rect id="SVGID_43_" x="366.35" y="486.15" width="14" height="14"/>
	</defs>
	<clipPath id="SVGID_10_">
		<use xlink:href="#SVGID_43_"  style="overflow:visible;"/>
	</clipPath>
	<path class="st17" d="M368.26,492.6c0.1-0.35,0.1-0.38,0.24-0.56c0.78-1.03,1.49-1.27,1.91-1.27c0.57,0,1,0.48,1,1.49
		c0,0.94-0.52,2.77-0.81,3.37c-0.52,1.07-1.25,1.64-1.88,1.64c-0.54,0-1.07-0.43-1.07-1.6c0-0.3,0-0.6,0.25-1.61L368.26,492.6
		 M369.75,486.59c0-0.02,0-0.17-0.21-0.17c-0.37,0-1.53,0.13-1.94,0.16c-0.13,0.02-0.3,0.03-0.3,0.32c0,0.19,0.14,0.19,0.38,0.19
		c0.76,0,0.79,0.11,0.79,0.27c0,0.11-0.14,0.65-0.22,0.98l-1.3,5.18c-0.19,0.8-0.25,1.05-0.25,1.61c0,1.51,0.84,2.5,2.02,2.5
		c1.88,0,3.83-2.37,3.83-4.66c0-1.45-0.84-2.54-2.11-2.54c-0.73,0-1.38,0.46-1.86,0.95L369.75,486.59z"/>
	<path class="st17" d="M374.11,499.14c-0.04,0.15-0.11,0.42-0.11,0.46c0,0.25,0.2,0.36,0.38,0.36c0.2,0,0.38-0.14,0.44-0.25
		c0.06-0.1,0.15-0.46,0.2-0.69c0.06-0.21,0.18-0.73,0.25-1c0.07-0.25,0.13-0.49,0.19-0.75c0.12-0.46,0.15-0.55,0.47-1
		c0.31-0.45,0.84-1.03,1.67-1.03c0.65,0,0.66,0.57,0.66,0.78c0,0.67-0.48,1.91-0.66,2.38c-0.12,0.31-0.17,0.41-0.17,0.6
		c0,0.59,0.49,0.96,1.06,0.96c1.12,0,1.61-1.54,1.61-1.71c0-0.15-0.15-0.15-0.18-0.15c-0.16,0-0.17,0.07-0.21,0.19
		c-0.26,0.89-0.74,1.35-1.18,1.35c-0.23,0-0.28-0.15-0.28-0.39c0-0.26,0.06-0.4,0.26-0.9c0.13-0.35,0.59-1.53,0.59-2.15
		c0-1.08-0.86-1.27-1.45-1.27c-0.93,0-1.55,0.57-1.88,1.02c-0.08-0.77-0.74-1.02-1.19-1.02c-0.48,0-0.74,0.35-0.88,0.6
		c-0.25,0.41-0.4,1.05-0.4,1.1c0,0.14,0.16,0.14,0.19,0.14c0.16,0,0.17-0.03,0.25-0.33c0.17-0.66,0.38-1.2,0.81-1.2
		c0.29,0,0.37,0.25,0.37,0.55c0,0.21-0.1,0.62-0.18,0.93c-0.08,0.3-0.19,0.76-0.25,1L374.11,499.14"/>
	<path class="st18" d="M373.35,493.15L373.35,493.15z"/>
</g>
<polygon class="st2" points="373.01,493.36 373.01,493.36 373.01,493.36 373.01,493.36 373.01,493.36 373.01,493.36 373.01,493.36 
	373.01,493.36 373.01,493.36 373.01,493.36 373.01,493.36 373.01,493.36 373.01,493.36 373.01,493.36 373.01,493.36 373.01,493.36 
	373.01,493.36 373.01,493.36 373.01,493.36 373.01,493.36 373.01,493.36 373.01,493.36 373.01,493.36 373.01,493.36 373.01,493.36 
	373.01,493.36 373.01,493.36 373.01,493.36 373.01,493.36 373.01,493.36 373.01,493.36 373.01,493.36 373.01,493.36 373.01,493.36 
	373.01,493.36 373.01,493.36 373.01,493.36 373.01,493.36 373.01,493.36 373.01,493.36 373.01,493.36 373.01,493.36 373.01,493.36 
	373.01,493.36 373.01,493.36 373.01,493.36 373.01,493.36 373.01,493.36 373.01,493.36 373.01,493.36 373.01,493.36 373.01,493.36 
	373.01,493.36 373.01,493.36 373.01,493.36 373.01,493.36 373.01,493.36 373.01,493.36 373.01,493.36 373.01,493.36 373.01,493.36 
	373.01,493.36 373.01,493.36 373.01,493.36 373.01,493.36 373.01,493.36 373.01,493.36 373.01,493.36 373.01,493.36 373.01,493.36 
	373.01,493.36 373.01,493.36 373.01,493.36 373.01,493.36 373.01,493.36 373.01,493.36 373.01,493.36 373.01,493.36 373.01,493.36 
	373.01,493.36 373.01,493.36 373.01,493.36 373.01,493.36 373.01,493.36 373.01,493.36 "/>
<g>
	<defs>
		<rect id="SVGID_45_" x="201.24" y="363.68" width="15" height="10"/>
	</defs>
	<clipPath id="SVGID_11_">
		<use xlink:href="#SVGID_45_"  style="overflow:visible;"/>
	</clipPath>
	<path class="st19" d="M206.45,366.38c0.1-0.41,0.46-1.88,1.57-1.88c0.08,0,0.46,0,0.79,0.21c-0.45,0.08-0.76,0.48-0.76,0.86
		c0,0.25,0.18,0.56,0.6,0.56c0.35,0,0.86-0.29,0.86-0.92c0-0.83-0.94-1.05-1.48-1.05c-0.92,0-1.48,0.84-1.67,1.21
		c-0.4-1.05-1.26-1.21-1.72-1.21c-1.65,0-2.56,2.05-2.56,2.45c0,0.16,0.16,0.16,0.19,0.16c0.13,0,0.18-0.03,0.21-0.17
		c0.54-1.68,1.59-2.08,2.13-2.08c0.3,0,0.86,0.14,0.86,1.06c0,0.49-0.27,1.56-0.86,3.78c-0.25,0.99-0.81,1.65-1.51,1.65
		c-0.1,0-0.46,0-0.79-0.21c0.4-0.08,0.75-0.41,0.75-0.86c0-0.43-0.35-0.56-0.59-0.56c-0.48,0-0.87,0.41-0.87,0.92
		c0,0.73,0.8,1.05,1.49,1.05c1.05,0,1.62-1.11,1.67-1.21c0.19,0.59,0.76,1.21,1.72,1.21c1.64,0,2.54-2.05,2.54-2.45
		c0-0.16-0.14-0.16-0.19-0.16c-0.14,0-0.18,0.06-0.21,0.17c-0.53,1.7-1.6,2.08-2.11,2.08c-0.62,0-0.87-0.51-0.87-1.05
		c0-0.35,0.1-0.7,0.27-1.4L206.45,366.38"/>
	<path class="st19" d="M212.86,371.33c0.01-0.07,0.27-1.07,0.29-1.13c0.02-0.09,0.35-0.65,0.7-0.92c0.12-0.09,0.43-0.31,0.9-0.31
		c0.11,0,0.39,0.01,0.61,0.16c-0.36,0.1-0.49,0.41-0.49,0.61c0,0.25,0.19,0.41,0.45,0.41c0.26,0,0.62-0.21,0.62-0.68
		c0-0.58-0.61-0.81-1.18-0.81c-0.58,0-1.08,0.23-1.57,0.79c-0.2-0.68-0.88-0.79-1.15-0.79c-0.41,0-0.69,0.26-0.87,0.57
		c-0.26,0.44-0.41,1.08-0.41,1.14c0,0.14,0.16,0.14,0.19,0.14c0.16,0,0.17-0.03,0.25-0.33c0.17-0.68,0.38-1.2,0.81-1.2
		c0.29,0,0.37,0.25,0.37,0.55c0,0.21-0.1,0.62-0.18,0.93c-0.08,0.3-0.19,0.76-0.25,1l-0.36,1.43c-0.04,0.15-0.11,0.42-0.11,0.46
		c0,0.25,0.2,0.36,0.38,0.36c0.17,0,0.39-0.1,0.48-0.32c0.02-0.07,0.15-0.56,0.21-0.84L212.86,371.33"/>
	<path class="st20" d="M208.74,368.68L208.74,368.68z"/>
</g>
<polygon class="st2" points="208.42,368.7 208.42,368.7 208.42,368.7 208.42,368.7 208.42,368.7 208.42,368.7 208.42,368.7 
	208.42,368.7 208.42,368.7 208.42,368.7 208.42,368.7 208.42,368.7 208.42,368.7 208.42,368.7 208.42,368.7 208.42,368.7 
	208.42,368.7 208.42,368.7 208.42,368.7 208.42,368.7 208.42,368.7 208.42,368.7 208.42,368.7 208.42,368.7 208.42,368.7 
	208.42,368.7 208.42,368.7 208.42,368.7 208.42,368.7 208.42,368.7 208.42,368.7 208.42,368.7 208.42,368.7 208.42,368.7 
	208.42,368.7 208.42,368.7 208.42,368.7 208.42,368.7 208.42,368.7 208.42,368.7 208.42,368.7 208.42,368.7 208.42,368.7 
	208.42,368.7 208.42,368.7 208.42,368.7 208.42,368.7 208.42,368.7 208.42,368.7 208.42,368.7 208.42,368.7 208.42,368.7 
	208.42,368.7 208.42,368.7 208.42,368.7 208.42,368.7 208.42,368.7 208.42,368.7 208.42,368.7 208.42,368.7 208.42,368.7 
	208.42,368.7 208.42,368.7 208.42,368.7 208.42,368.7 208.42,368.7 208.42,368.7 208.42,368.7 208.42,368.7 208.42,368.7 
	208.42,368.7 208.42,368.7 208.42,368.7 208.42,368.7 208.42,368.7 208.42,368.7 208.42,368.7 208.42,368.7 208.42,368.7 
	208.42,368.7 208.42,368.7 208.42,368.7 208.42,368.7 208.42,368.7 208.42,368.7 "/>
<g>
	<defs>
		<rect id="SVGID_47_" x="180.97" y="458.03" width="17" height="10"/>
	</defs>
	<clipPath id="SVGID_12_">
		<use xlink:href="#SVGID_47_"  style="overflow:visible;"/>
	</clipPath>
	<path class="st21" d="M186.28,460.73c0.1-0.41,0.46-1.88,1.57-1.88c0.08,0,0.46,0,0.79,0.21c-0.45,0.08-0.76,0.48-0.76,0.86
		c0,0.25,0.18,0.56,0.6,0.56c0.35,0,0.86-0.29,0.86-0.92c0-0.83-0.94-1.05-1.48-1.05c-0.92,0-1.48,0.84-1.67,1.21
		c-0.4-1.05-1.26-1.21-1.72-1.21c-1.65,0-2.56,2.05-2.56,2.45c0,0.16,0.16,0.16,0.19,0.16c0.13,0,0.18-0.03,0.21-0.17
		c0.54-1.68,1.59-2.08,2.13-2.08c0.3,0,0.86,0.14,0.86,1.06c0,0.49-0.27,1.56-0.86,3.78c-0.25,0.99-0.81,1.65-1.51,1.65
		c-0.1,0-0.46,0-0.79-0.21c0.4-0.08,0.75-0.41,0.75-0.86c0-0.43-0.35-0.56-0.59-0.56c-0.48,0-0.87,0.41-0.87,0.92
		c0,0.73,0.8,1.05,1.49,1.05c1.05,0,1.62-1.11,1.67-1.21c0.19,0.59,0.76,1.21,1.72,1.21c1.64,0,2.54-2.05,2.54-2.45
		c0-0.16-0.14-0.16-0.19-0.16c-0.14,0-0.17,0.06-0.21,0.17c-0.53,1.7-1.6,2.08-2.11,2.08c-0.62,0-0.87-0.51-0.87-1.05
		c0-0.35,0.1-0.7,0.27-1.4L186.28,460.73"/>
	<path class="st21" d="M191.53,467.23c-0.04,0.15-0.11,0.42-0.11,0.46c0,0.25,0.2,0.36,0.38,0.36c0.2,0,0.38-0.14,0.44-0.25
		c0.06-0.1,0.15-0.46,0.2-0.69c0.06-0.21,0.18-0.72,0.25-1c0.07-0.25,0.13-0.49,0.19-0.75c0.12-0.46,0.15-0.55,0.47-1
		c0.31-0.45,0.84-1.03,1.67-1.03c0.65,0,0.66,0.57,0.66,0.78c0,0.67-0.48,1.91-0.66,2.38c-0.12,0.31-0.17,0.41-0.17,0.6
		c0,0.59,0.49,0.96,1.06,0.96c1.12,0,1.61-1.54,1.61-1.71c0-0.15-0.15-0.15-0.18-0.15c-0.16,0-0.17,0.07-0.21,0.19
		c-0.26,0.89-0.74,1.35-1.18,1.35c-0.23,0-0.28-0.15-0.28-0.39c0-0.26,0.06-0.4,0.26-0.9c0.13-0.35,0.59-1.53,0.59-2.15
		c0-1.08-0.86-1.27-1.45-1.27c-0.93,0-1.55,0.57-1.88,1.02c-0.08-0.77-0.74-1.02-1.19-1.02c-0.48,0-0.74,0.35-0.88,0.6
		c-0.25,0.41-0.4,1.05-0.4,1.1c0,0.14,0.16,0.14,0.19,0.14c0.16,0,0.17-0.03,0.25-0.33c0.17-0.66,0.38-1.2,0.81-1.2
		c0.29,0,0.37,0.25,0.37,0.55c0,0.21-0.1,0.62-0.18,0.93c-0.08,0.3-0.19,0.76-0.25,1L191.53,467.23"/>
	<path class="st22" d="M189.47,463.03L189.47,463.03z"/>
</g>
<polygon class="st2" points="188.95,463.05 188.95,463.05 188.95,463.05 188.95,463.05 188.95,463.05 188.95,463.05 188.95,463.05 
	188.95,463.05 188.95,463.05 188.95,463.05 188.95,463.05 188.95,463.05 188.95,463.05 188.95,463.05 188.95,463.05 188.95,463.05 
	188.95,463.05 188.95,463.05 188.95,463.05 188.95,463.05 188.95,463.05 188.95,463.05 188.95,463.05 188.95,463.05 188.95,463.05 
	188.95,463.05 188.95,463.05 188.95,463.05 188.95,463.05 188.95,463.05 188.95,463.05 188.95,463.05 188.95,463.05 188.95,463.05 
	188.95,463.05 188.95,463.05 188.95,463.05 188.95,463.05 188.95,463.05 188.95,463.05 188.95,463.05 188.95,463.05 188.95,463.05 
	188.95,463.05 188.95,463.05 188.95,463.05 188.95,463.05 188.95,463.05 188.95,463.05 188.95,463.05 188.95,463.05 188.95,463.05 
	188.95,463.05 188.95,463.05 188.95,463.05 188.95,463.05 188.95,463.05 188.95,463.05 188.95,463.05 188.95,463.05 188.95,463.05 
	188.95,463.05 188.95,463.05 188.95,463.05 188.95,463.05 188.95,463.05 188.95,463.05 188.95,463.05 188.95,463.05 188.95,463.05 
	188.95,463.05 188.95,463.05 188.95,463.05 188.95,463.05 188.95,463.05 188.95,463.05 188.95,463.05 188.95,463.05 188.95,463.05 
	188.95,463.05 188.95,463.05 188.95,463.05 188.95,463.05 188.95,463.05 188.95,463.05 "/>
</svg>
