<?xml version="1.0" encoding="utf-8"?>
<!-- Generator: Adobe Illustrator 24.2.3, SVG Export Plug-In . SVG Version: 6.00 Build 0)  -->
<svg version="1.1" id="Layer_1" xmlns="http://www.w3.org/2000/svg" xmlns:xlink="http://www.w3.org/1999/xlink" x="0px" y="0px"
	 viewBox="0 0 341.11 249.62" style="enable-background:new 0 0 341.11 249.62;" xml:space="preserve">
<style type="text/css">
	.st0{fill:none;stroke:#000000;stroke-miterlimit:10;}
	.st1{opacity:0;fill:none;stroke:#010202;stroke-width:1.000000e-06;stroke-miterlimit:10;}
	.st2{clip-path:url(#SVGID_1_);}
	.st3{opacity:0;clip-path:url(#SVGID_1_);fill:none;stroke:#010202;stroke-width:9.999999e-07;stroke-miterlimit:10;}
	.st4{clip-path:url(#SVGID_2_);}
	.st5{opacity:0;clip-path:url(#SVGID_2_);fill:none;stroke:#010202;stroke-width:9.999999e-07;stroke-miterlimit:10;}
	.st6{clip-path:url(#SVGID_3_);}
	.st7{opacity:0;clip-path:url(#SVGID_4_);fill:none;stroke:#010202;stroke-width:9.999999e-07;stroke-miterlimit:10;}
	.st8{clip-path:url(#SVGID_5_);}
	.st9{opacity:0;clip-path:url(#SVGID_5_);fill:none;stroke:#010202;stroke-width:9.999999e-07;stroke-miterlimit:10;}
	.st10{clip-path:url(#SVGID_6_);}
	.st11{clip-path:url(#SVGID_7_);}
	.st12{opacity:0;clip-path:url(#SVGID_7_);fill:none;stroke:#010202;stroke-width:9.999999e-07;stroke-miterlimit:10;}
</style>
<g>
	<line class="st0" x1="68.28" y1="131.56" x2="146.33" y2="53.51"/>
	<line class="st0" x1="15.83" y1="99.01" x2="68.28" y2="131.56"/>
	<line class="st0" x1="15.13" y1="98.31" x2="92.42" y2="21.03"/>
	<line class="st0" x1="92.23" y1="20.39" x2="146.12" y2="53.84"/>
</g>
<g>
	<line class="st0" x1="191.26" y1="209.05" x2="340.76" y2="59.55"/>
	<line class="st0" x1="210.26" y1="105.05" x2="297.26" y2="159.05"/>
	<line class="st0" x1="192.95" y1="209.13" x2="226.71" y2="230.08"/>
	<line class="st0" x1="227.51" y1="228.8" x2="297.26" y2="159.05"/>
	<line class="st0" x1="209.56" y1="104.35" x2="286.85" y2="27.07"/>
	<line class="st0" x1="286.66" y1="26.43" x2="340.55" y2="59.88"/>
</g>
<g>
	<g>
		<line class="st0" x1="78.83" y1="82.01" x2="284.95" y2="84.74"/>
		<g>
			<polygon points="292.01,84.83 282,88.76 284.42,84.73 282.11,80.63 			"/>
		</g>
	</g>
</g>
<polygon class="st1" points="87.45,7.05 87.45,7.05 87.45,7.05 87.45,7.05 87.45,7.05 87.45,7.05 87.45,7.05 87.45,7.05 87.45,7.05 
	87.45,7.05 87.45,7.05 87.45,7.05 87.45,7.05 87.45,7.05 87.45,7.05 87.45,7.05 87.45,7.05 87.45,7.05 87.45,7.05 87.45,7.05 
	87.45,7.05 87.45,7.05 87.45,7.05 87.45,7.05 87.45,7.05 87.45,7.05 87.45,7.05 87.45,7.05 87.45,7.05 87.45,7.05 87.45,7.05 
	87.45,7.05 87.45,7.05 87.45,7.05 87.45,7.05 87.45,7.05 87.45,7.05 87.45,7.05 87.45,7.05 87.45,7.05 87.45,7.05 87.45,7.05 
	87.45,7.05 87.45,7.05 87.45,7.05 87.45,7.05 87.45,7.05 87.45,7.05 87.45,7.05 87.45,7.05 87.45,7.05 87.45,7.05 87.45,7.05 
	87.45,7.05 87.45,7.05 87.45,7.05 87.45,7.05 87.45,7.05 87.45,7.05 87.45,7.05 87.45,7.05 87.45,7.05 87.45,7.05 87.45,7.05 
	87.45,7.05 87.45,7.05 87.45,7.05 87.45,7.05 87.45,7.05 87.45,7.05 87.45,7.05 87.45,7.05 87.45,7.05 87.45,7.05 87.45,7.05 
	87.45,7.05 87.45,7.05 87.45,7.05 87.45,7.05 87.45,7.05 87.45,7.05 87.45,7.05 87.45,7.05 87.45,7.05 87.45,7.05 87.45,7.05 "/>
<g>
	<defs>
		<rect id="SVGID_25_" x="274.4" y="8.5" width="36" height="17"/>
	</defs>
	<clipPath id="SVGID_1_">
		<use xlink:href="#SVGID_25_"  style="overflow:visible;"/>
	</clipPath>
	<path class="st2" d="M282.95,15.4c1.61-0.35,3.5-1.46,3.5-3.07c0-1.37-1.43-2.38-3.51-2.38h-4.53c-0.32,0-0.46,0-0.46,0.32
		c0,0.18,0.14,0.18,0.45,0.18c0.03,0,0.33,0,0.6,0.03c0.29,0.03,0.43,0.05,0.43,0.25c0,0.06-0.02,0.11-0.06,0.3l-2.13,8.54
		c-0.16,0.62-0.19,0.75-1.45,0.75c-0.29,0-0.43,0-0.43,0.32c0,0.17,0.19,0.17,0.22,0.17c0.45,0,1.56-0.05,2-0.05
		s1.57,0.05,2.02,0.05c0.13,0,0.32,0,0.32-0.32c0-0.17-0.14-0.17-0.44-0.17c-0.59,0-1.03,0-1.03-0.29c0-0.1,0.03-0.18,0.05-0.27
		l1.05-4.21h1.89c1.45,0,1.73,0.89,1.73,1.45c0,0.24-0.13,0.73-0.22,1.1c-0.11,0.44-0.25,1.03-0.25,1.35c0,1.72,1.91,1.72,2.11,1.72
		c1.35,0,1.91-1.61,1.91-1.83c0-0.19-0.18-0.19-0.19-0.19c-0.14,0-0.17,0.11-0.21,0.22c-0.4,1.18-1.08,1.45-1.45,1.45
		c-0.53,0-0.64-0.35-0.64-0.97c0-0.49,0.1-1.3,0.16-1.81c0.03-0.22,0.06-0.52,0.06-0.75C284.44,16.05,283.37,15.55,282.95,15.4
		 M280.66,11.04c0.1-0.38,0.14-0.54,0.44-0.59c0.14-0.02,0.65-0.02,0.97-0.02c1.13,0,2.89,0,2.89,1.57c0,0.54-0.25,1.64-0.87,2.26
		c-0.41,0.41-1.26,0.92-2.69,0.92h-1.78L280.66,11.04z"/>
	<path class="st2" d="M292.16,24.61c0-0.05,0-0.08-0.27-0.35c-1.99-2-2.5-5.01-2.5-7.44c0-2.77,0.6-5.53,2.56-7.52
		c0.21-0.19,0.21-0.22,0.21-0.27c0-0.11-0.06-0.16-0.16-0.16c-0.16,0-1.59,1.08-2.53,3.1c-0.81,1.75-1,3.51-1,4.85
		c0,1.24,0.18,3.16,1.05,4.96c0.95,1.95,2.32,2.99,2.48,2.99C292.09,24.77,292.16,24.73,292.16,24.61"/>
	<path class="st2" d="M297.85,16.64l3.13-5.25l0.51,5.25H297.85z M295.94,18.97c-0.64,1.07-1.26,1.29-1.95,1.34
		c-0.19,0.02-0.33,0.02-0.33,0.32c0,0.1,0.08,0.17,0.21,0.17c0.43,0,0.92-0.05,1.37-0.05c0.52,0,1.08,0.05,1.59,0.05
		c0.1,0,0.3,0,0.3-0.3c0-0.18-0.14-0.19-0.25-0.19c-0.37-0.03-0.75-0.16-0.75-0.56c0-0.19,0.1-0.37,0.22-0.59l1.21-2.03h3.99
		c0.03,0.33,0.25,2.5,0.25,2.65c0,0.48-0.83,0.53-1.14,0.53c-0.22,0-0.38,0-0.38,0.32c0,0.17,0.19,0.17,0.22,0.17
		c0.65,0,1.33-0.05,1.99-0.05c0.4,0,1.4,0.05,1.8,0.05c0.1,0,0.29,0,0.29-0.32c0-0.17-0.16-0.17-0.37-0.17
		c-0.99,0-0.99-0.11-1.03-0.57l-0.97-9.93c-0.03-0.32-0.03-0.38-0.3-0.38c-0.25,0-0.32,0.11-0.41,0.27L295.94,18.97z"/>
	<path class="st2" d="M309.59,16.83c0-1.24-0.18-3.16-1.05-4.96c-0.95-1.95-2.32-2.99-2.48-2.99c-0.1,0-0.16,0.06-0.16,0.16
		c0,0.05,0,0.08,0.3,0.37c1.56,1.57,2.46,4.1,2.46,7.42c0,2.72-0.59,5.52-2.56,7.52c-0.21,0.19-0.21,0.22-0.21,0.27
		c0,0.1,0.06,0.16,0.16,0.16c0.16,0,1.59-1.08,2.53-3.1C309.4,19.93,309.59,18.16,309.59,16.83"/>
	<path class="st3" d="M292.4,17L292.4,17z"/>
</g>
<g>
	<defs>
		<rect id="SVGID_27_" x="67.95" width="43" height="17"/>
	</defs>
	<clipPath id="SVGID_2_">
		<use xlink:href="#SVGID_27_"  style="overflow:visible;"/>
	</clipPath>
	<path class="st4" d="M76,6.9c1.61-0.35,3.5-1.46,3.5-3.07c0-1.37-1.43-2.38-3.51-2.38h-4.53c-0.32,0-0.46,0-0.46,0.32
		c0,0.18,0.14,0.18,0.45,0.18c0.03,0,0.33,0,0.6,0.03c0.29,0.03,0.43,0.05,0.43,0.25c0,0.06-0.02,0.11-0.06,0.3l-2.13,8.54
		c-0.16,0.62-0.19,0.75-1.45,0.75c-0.29,0-0.43,0-0.43,0.32c0,0.17,0.19,0.17,0.22,0.17c0.45,0,1.56-0.05,2-0.05
		c0.45,0,1.57,0.05,2.02,0.05c0.13,0,0.32,0,0.32-0.32c0-0.17-0.14-0.17-0.44-0.17c-0.59,0-1.03,0-1.03-0.29
		c0-0.1,0.03-0.18,0.05-0.27l1.05-4.21h1.89c1.45,0,1.73,0.89,1.73,1.45c0,0.24-0.13,0.73-0.22,1.1c-0.11,0.44-0.25,1.03-0.25,1.35
		c0,1.72,1.91,1.72,2.11,1.72c1.35,0,1.91-1.61,1.91-1.83c0-0.19-0.18-0.19-0.19-0.19c-0.14,0-0.17,0.11-0.21,0.22
		c-0.4,1.18-1.08,1.45-1.45,1.45c-0.53,0-0.64-0.35-0.64-0.97c0-0.49,0.1-1.3,0.16-1.81c0.03-0.22,0.06-0.52,0.06-0.75
		C77.5,7.55,76.43,7.05,76,6.9 M73.71,2.54c0.1-0.38,0.14-0.54,0.44-0.59c0.14-0.02,0.65-0.02,0.97-0.02c1.13,0,2.89,0,2.89,1.57
		c0,0.54-0.25,1.64-0.87,2.26c-0.41,0.41-1.26,0.92-2.69,0.92h-1.78L73.71,2.54z"/>
	<path class="st4" d="M85.21,16.11c0-0.05,0-0.08-0.27-0.35c-1.99-2-2.5-5.01-2.5-7.44c0-2.77,0.6-5.53,2.56-7.52
		c0.21-0.19,0.21-0.22,0.21-0.27c0-0.11-0.06-0.16-0.16-0.16c-0.16,0-1.59,1.08-2.53,3.1c-0.81,1.75-1,3.51-1,4.85
		c0,1.24,0.17,3.16,1.05,4.96c0.95,1.95,2.32,2.99,2.48,2.99C85.15,16.27,85.21,16.23,85.21,16.11"/>
	<path class="st4" d="M90.91,8.14l3.13-5.25l0.51,5.25H90.91z M89,10.47c-0.64,1.07-1.26,1.29-1.95,1.34
		c-0.19,0.02-0.33,0.02-0.33,0.32c0,0.1,0.08,0.17,0.21,0.17c0.43,0,0.92-0.05,1.37-0.05c0.52,0,1.08,0.05,1.59,0.05
		c0.1,0,0.3,0,0.3-0.3c0-0.18-0.14-0.19-0.25-0.19c-0.37-0.03-0.75-0.16-0.75-0.56c0-0.19,0.1-0.37,0.22-0.59l1.21-2.03h3.99
		c0.03,0.33,0.25,2.5,0.25,2.65c0,0.48-0.83,0.53-1.14,0.53c-0.22,0-0.38,0-0.38,0.32c0,0.17,0.19,0.17,0.22,0.17
		c0.65,0,1.33-0.05,1.99-0.05c0.4,0,1.4,0.05,1.8,0.05c0.1,0,0.29,0,0.29-0.32c0-0.17-0.16-0.17-0.37-0.17
		c-0.99,0-0.99-0.11-1.03-0.57L95.24,1.3c-0.03-0.32-0.03-0.38-0.3-0.38c-0.25,0-0.32,0.11-0.41,0.27L89,10.47z"/>
	<path class="st4" d="M101.76,2.92c0.92-0.4,1.33-0.56,1.61-0.69c0.21-0.09,0.31-0.13,0.31-0.35c0-0.19-0.14-0.36-0.35-0.36
		c-0.08,0-0.1,0-0.23,0.1l-1.52,1.02l0.17-1.65c0.02-0.2,0-0.48-0.33-0.48c-0.13,0-0.35,0.09-0.35,0.33c0,0.1,0.04,0.44,0.05,0.55
		c0.02,0.19,0.1,0.99,0.12,1.25l-1.51-1.02c-0.11-0.07-0.15-0.1-0.25-0.1c-0.2,0-0.35,0.17-0.35,0.36c0,0.22,0.13,0.28,0.23,0.32
		l1.69,0.7c-0.92,0.4-1.33,0.56-1.61,0.69c-0.21,0.09-0.31,0.13-0.31,0.35c0,0.19,0.15,0.36,0.35,0.36c0.08,0,0.1,0,0.23-0.1
		l1.52-1.02l-0.18,1.8c0,0.25,0.21,0.33,0.35,0.33s0.35-0.09,0.35-0.33c0-0.1-0.04-0.43-0.05-0.55c-0.02-0.19-0.1-0.99-0.12-1.25
		l1.34,0.89c0.29,0.22,0.31,0.22,0.41,0.22c0.2,0,0.35-0.17,0.35-0.36c0-0.22-0.13-0.28-0.23-0.32L101.76,2.92"/>
	<path class="st4" d="M110.05,8.33c0-1.24-0.18-3.16-1.05-4.96c-0.95-1.95-2.32-2.99-2.48-2.99c-0.1,0-0.16,0.06-0.16,0.16
		c0,0.05,0,0.08,0.3,0.37c1.56,1.57,2.46,4.1,2.46,7.42c0,2.72-0.59,5.52-2.56,7.52c-0.21,0.19-0.21,0.22-0.21,0.27
		c0,0.1,0.06,0.16,0.16,0.16c0.16,0,1.59-1.08,2.53-3.1C109.86,11.43,110.05,9.66,110.05,8.33"/>
	<path class="st5" d="M89.45,8.5L89.45,8.5z"/>
</g>
<polygon class="st1" points="238.93,240.24 238.93,240.24 238.93,240.24 238.93,240.24 238.93,240.24 238.93,240.24 238.93,240.24 
	238.93,240.24 238.93,240.24 238.93,240.24 238.93,240.24 238.93,240.24 238.93,240.24 238.93,240.24 238.93,240.24 238.93,240.24 
	238.93,240.24 238.93,240.24 238.93,240.24 238.93,240.24 238.93,240.24 238.93,240.24 238.93,240.24 238.93,240.24 238.93,240.24 
	238.93,240.24 238.93,240.24 238.93,240.24 238.93,240.24 238.93,240.24 238.93,240.24 238.93,240.24 238.93,240.24 238.93,240.24 
	238.93,240.24 238.93,240.24 238.93,240.24 238.93,240.24 238.93,240.24 238.93,240.24 238.93,240.24 238.93,240.24 238.93,240.24 
	238.93,240.24 238.93,240.24 238.93,240.24 238.93,240.24 238.93,240.24 238.93,240.24 238.93,240.24 238.93,240.24 238.93,240.24 
	238.93,240.24 238.93,240.24 238.93,240.24 238.93,240.24 238.93,240.24 238.93,240.24 238.93,240.24 238.93,240.24 238.93,240.24 
	238.93,240.24 238.93,240.24 238.93,240.24 238.93,240.24 238.93,240.24 238.93,240.24 238.93,240.24 238.93,240.24 238.93,240.24 
	238.93,240.24 238.93,240.24 238.93,240.24 238.93,240.24 238.93,240.24 238.93,240.24 238.93,240.24 238.93,240.24 238.93,240.24 
	238.93,240.24 238.93,240.24 238.93,240.24 238.93,240.24 238.93,240.24 238.93,240.24 238.93,240.24 "/>
<g>
	<defs>
		<rect id="SVGID_29_" x="26.37" y="140.71" width="37.34" height="17"/>
	</defs>
	<clipPath id="SVGID_3_">
		<use xlink:href="#SVGID_29_"  style="overflow:visible;"/>
	</clipPath>
	<path class="st6" d="M38.09,143.82c0.16-0.64,0.45-1.13,1.72-1.18c0.08,0,0.27-0.02,0.27-0.32c0-0.02,0-0.18-0.21-0.18
		c-0.52,0-1.08,0.05-1.6,0.05c-0.54,0-1.1-0.05-1.62-0.05c-0.1,0-0.29,0-0.29,0.32c0,0.18,0.16,0.18,0.29,0.18
		c0.91,0.02,1.08,0.35,1.08,0.7c0,0.05-0.03,0.29-0.05,0.33l-1.78,7.07l-3.51-8.3c-0.13-0.29-0.14-0.3-0.51-0.3h-2.13
		c-0.32,0-0.46,0-0.46,0.32c0,0.18,0.14,0.18,0.45,0.18c0.08,0,1.08,0,1.08,0.14l-2.13,8.54c-0.16,0.64-0.43,1.14-1.72,1.19
		c-0.1,0-0.27,0.02-0.27,0.32c0,0.11,0.08,0.18,0.21,0.18c0.51,0,1.06-0.05,1.59-0.05c0.54,0,1.11,0.05,1.64,0.05
		c0.08,0,0.29,0,0.29-0.32c0-0.16-0.14-0.18-0.32-0.18c-0.92-0.03-1.05-0.38-1.05-0.7c0-0.11,0.02-0.19,0.06-0.37l2.1-8.39
		c0.06,0.1,0.06,0.13,0.14,0.29l3.96,9.36c0.11,0.27,0.16,0.3,0.3,0.3c0.17,0,0.17-0.05,0.25-0.33L38.09,143.82"/>
	<path class="st6" d="M45.83,156.82c0-0.05,0-0.08-0.27-0.35c-1.99-2-2.5-5.01-2.5-7.44c0-2.77,0.6-5.53,2.56-7.52
		c0.21-0.19,0.21-0.22,0.21-0.27c0-0.11-0.06-0.16-0.16-0.16c-0.16,0-1.59,1.08-2.53,3.1c-0.81,1.75-1,3.51-1,4.85
		c0,1.24,0.17,3.16,1.05,4.96c0.95,1.95,2.32,2.99,2.48,2.99C45.77,156.98,45.83,156.94,45.83,156.82"/>
	<path class="st6" d="M51.52,148.85l3.13-5.25l0.51,5.25H51.52z M49.62,151.18c-0.64,1.07-1.26,1.29-1.95,1.34
		c-0.19,0.02-0.33,0.02-0.33,0.32c0,0.1,0.08,0.18,0.21,0.18c0.43,0,0.92-0.05,1.37-0.05c0.53,0,1.08,0.05,1.59,0.05
		c0.1,0,0.3,0,0.3-0.3c0-0.17-0.14-0.19-0.25-0.19c-0.37-0.03-0.75-0.16-0.75-0.56c0-0.19,0.1-0.37,0.22-0.59l1.21-2.03h3.99
		c0.03,0.33,0.25,2.5,0.25,2.65c0,0.48-0.83,0.52-1.14,0.52c-0.22,0-0.38,0-0.38,0.32c0,0.18,0.19,0.18,0.22,0.18
		c0.65,0,1.33-0.05,1.99-0.05c0.4,0,1.4,0.05,1.8,0.05c0.1,0,0.29,0,0.29-0.32c0-0.18-0.16-0.18-0.37-0.18
		c-0.99,0-0.99-0.11-1.03-0.57l-0.97-9.93c-0.03-0.32-0.03-0.38-0.3-0.38c-0.25,0-0.32,0.11-0.41,0.27L49.62,151.18z"/>
	<path class="st6" d="M63.37,149.04c0-1.24-0.17-3.16-1.05-4.96c-0.95-1.95-2.32-2.99-2.48-2.99c-0.1,0-0.16,0.06-0.16,0.16
		c0,0.05,0,0.08,0.3,0.37c1.56,1.57,2.46,4.1,2.46,7.42c0,2.72-0.59,5.52-2.56,7.52c-0.21,0.19-0.21,0.22-0.21,0.27
		c0,0.1,0.06,0.16,0.16,0.16c0.16,0,1.59-1.08,2.53-3.1C63.18,152.14,63.37,150.37,63.37,149.04"/>
</g>
<g>
	<defs>
		<rect id="SVGID_31_" x="211.5" y="232.62" width="38" height="17"/>
	</defs>
	<clipPath id="SVGID_4_">
		<use xlink:href="#SVGID_31_"  style="overflow:visible;"/>
	</clipPath>
	<path class="st7" d="M230.5,241.12L230.5,241.12z"/>
</g>
<polygon class="st1" points="230.19,241.84 230.19,241.84 230.19,241.84 230.19,241.84 230.19,241.84 230.19,241.84 230.19,241.84 
	230.19,241.84 230.19,241.84 230.19,241.84 230.19,241.84 230.19,241.84 230.19,241.84 230.19,241.84 230.19,241.84 230.19,241.84 
	230.19,241.84 230.19,241.84 230.19,241.84 230.19,241.84 230.19,241.84 230.19,241.84 230.19,241.84 230.19,241.84 230.19,241.84 
	230.19,241.84 230.19,241.84 230.19,241.84 230.19,241.84 230.19,241.84 230.19,241.84 230.19,241.84 230.19,241.84 230.19,241.84 
	230.19,241.84 230.19,241.84 230.19,241.84 230.19,241.84 230.19,241.84 230.19,241.84 230.19,241.84 230.19,241.84 230.19,241.84 
	230.19,241.84 230.19,241.84 230.19,241.84 230.19,241.84 230.19,241.84 230.19,241.84 230.19,241.84 230.19,241.84 230.19,241.84 
	230.19,241.84 230.19,241.84 230.19,241.84 230.19,241.84 230.19,241.84 230.19,241.84 230.19,241.84 230.19,241.84 230.19,241.84 
	230.19,241.84 230.19,241.84 230.19,241.84 230.19,241.84 230.19,241.84 230.19,241.84 230.19,241.84 230.19,241.84 230.19,241.84 
	230.19,241.84 230.19,241.84 230.19,241.84 230.19,241.84 230.19,241.84 230.19,241.84 230.19,241.84 230.19,241.84 230.19,241.84 
	230.19,241.84 230.19,241.84 230.19,241.84 230.19,241.84 230.19,241.84 230.19,241.84 230.19,241.84 "/>
<g>
	<defs>
		<rect id="SVGID_33_" x="233.93" y="227.62" width="45" height="17"/>
	</defs>
	<clipPath id="SVGID_5_">
		<use xlink:href="#SVGID_33_"  style="overflow:visible;"/>
	</clipPath>
	<path class="st8" d="M246.15,230.73c0.16-0.64,0.45-1.13,1.72-1.18c0.08,0,0.27-0.02,0.27-0.32c0-0.02,0-0.18-0.21-0.18
		c-0.52,0-1.08,0.05-1.6,0.05c-0.54,0-1.1-0.05-1.62-0.05c-0.1,0-0.29,0-0.29,0.32c0,0.18,0.16,0.18,0.29,0.18
		c0.91,0.02,1.08,0.35,1.08,0.7c0,0.05-0.03,0.29-0.05,0.33l-1.78,7.07l-3.51-8.3c-0.13-0.29-0.14-0.3-0.51-0.3h-2.13
		c-0.32,0-0.46,0-0.46,0.32c0,0.18,0.14,0.18,0.45,0.18c0.08,0,1.08,0,1.08,0.14l-2.13,8.54c-0.16,0.64-0.43,1.14-1.72,1.19
		c-0.1,0-0.27,0.02-0.27,0.32c0,0.11,0.08,0.18,0.21,0.18c0.51,0,1.06-0.05,1.59-0.05c0.54,0,1.11,0.05,1.64,0.05
		c0.08,0,0.29,0,0.29-0.32c0-0.16-0.14-0.17-0.32-0.17c-0.92-0.03-1.05-0.38-1.05-0.7c0-0.11,0.02-0.19,0.06-0.37l2.1-8.39
		c0.06,0.1,0.06,0.13,0.14,0.29l3.96,9.36c0.11,0.27,0.16,0.3,0.3,0.3c0.18,0,0.18-0.05,0.25-0.33L246.15,230.73"/>
	<path class="st8" d="M253.99,243.73c0-0.05,0-0.08-0.27-0.35c-1.99-2-2.5-5.01-2.5-7.44c0-2.77,0.6-5.53,2.56-7.52
		c0.21-0.19,0.21-0.22,0.21-0.27c0-0.11-0.06-0.16-0.16-0.16c-0.16,0-1.59,1.08-2.53,3.1c-0.81,1.75-1,3.51-1,4.85
		c0,1.24,0.17,3.16,1.05,4.96c0.95,1.95,2.32,2.99,2.48,2.99C253.93,243.89,253.99,243.85,253.99,243.73"/>
	<path class="st8" d="M259.68,235.76l3.13-5.25l0.51,5.25H259.68z M257.78,238.09c-0.64,1.07-1.26,1.29-1.95,1.34
		c-0.19,0.02-0.33,0.02-0.33,0.32c0,0.1,0.08,0.18,0.21,0.18c0.43,0,0.92-0.05,1.37-0.05c0.52,0,1.08,0.05,1.59,0.05
		c0.1,0,0.3,0,0.3-0.3c0-0.18-0.14-0.19-0.25-0.19c-0.37-0.03-0.75-0.16-0.75-0.56c0-0.19,0.1-0.37,0.22-0.59l1.21-2.03h3.99
		c0.03,0.33,0.25,2.5,0.25,2.65c0,0.48-0.83,0.53-1.14,0.53c-0.22,0-0.38,0-0.38,0.32c0,0.18,0.19,0.18,0.22,0.18
		c0.65,0,1.33-0.05,1.99-0.05c0.4,0,1.4,0.05,1.8,0.05c0.1,0,0.29,0,0.29-0.32c0-0.17-0.16-0.17-0.37-0.17
		c-0.99,0-0.99-0.11-1.03-0.57l-0.97-9.93c-0.03-0.32-0.03-0.38-0.3-0.38c-0.25,0-0.32,0.11-0.41,0.27L257.78,238.09z"/>
	<path class="st8" d="M270.44,230.54c0.92-0.4,1.33-0.56,1.61-0.69c0.21-0.09,0.31-0.13,0.31-0.35c0-0.19-0.14-0.36-0.35-0.36
		c-0.08,0-0.1,0-0.23,0.1l-1.52,1.02l0.17-1.65c0.02-0.2,0-0.48-0.33-0.48c-0.13,0-0.35,0.09-0.35,0.33c0,0.1,0.04,0.44,0.05,0.55
		c0.02,0.19,0.1,0.99,0.12,1.25l-1.51-1.02c-0.11-0.07-0.15-0.1-0.25-0.1c-0.2,0-0.35,0.17-0.35,0.36c0,0.22,0.13,0.28,0.23,0.32
		l1.69,0.7c-0.92,0.4-1.33,0.56-1.61,0.69c-0.21,0.09-0.31,0.13-0.31,0.35c0,0.19,0.15,0.36,0.35,0.36c0.08,0,0.1,0,0.23-0.1
		l1.52-1.02l-0.18,1.8c0,0.25,0.21,0.33,0.35,0.33s0.35-0.09,0.35-0.33c0-0.1-0.04-0.43-0.05-0.55c-0.02-0.19-0.1-0.99-0.12-1.25
		l1.34,0.89c0.29,0.22,0.31,0.22,0.41,0.22c0.2,0,0.35-0.17,0.35-0.36c0-0.22-0.13-0.28-0.23-0.32L270.44,230.54"/>
	<path class="st8" d="M278.83,235.95c0-1.24-0.17-3.16-1.05-4.96c-0.95-1.95-2.32-2.99-2.48-2.99c-0.1,0-0.16,0.06-0.16,0.16
		c0,0.05,0,0.08,0.3,0.37c1.56,1.57,2.46,4.1,2.46,7.42c0,2.72-0.59,5.52-2.56,7.52c-0.21,0.19-0.21,0.22-0.21,0.27
		c0,0.1,0.06,0.16,0.16,0.16c0.16,0,1.59-1.08,2.53-3.1C278.64,239.05,278.83,237.28,278.83,235.95"/>
	<path class="st9" d="M256.43,236.12L256.43,236.12z"/>
</g>
<g>
	<defs>
		<rect id="SVGID_37_" x="292.4" y="71.73" width="6.94" height="12.4"/>
	</defs>
	<clipPath id="SVGID_6_">
		<use xlink:href="#SVGID_37_"  style="overflow:visible;"/>
	</clipPath>
	<path class="st10" d="M294.4,78.78c0.1-0.35,0.1-0.38,0.24-0.56c0.78-1.03,1.49-1.27,1.91-1.27c0.57,0,1,0.48,1,1.49
		c0,0.94-0.52,2.77-0.81,3.37c-0.52,1.07-1.25,1.64-1.88,1.64c-0.54,0-1.07-0.43-1.07-1.6c0-0.3,0-0.6,0.25-1.61L294.4,78.78
		 M295.9,72.78c0-0.02,0-0.17-0.21-0.17c-0.37,0-1.53,0.13-1.94,0.16c-0.13,0.02-0.3,0.03-0.3,0.32c0,0.19,0.14,0.19,0.38,0.19
		c0.76,0,0.79,0.11,0.79,0.27c0,0.11-0.14,0.65-0.22,0.98l-1.3,5.18c-0.19,0.8-0.25,1.05-0.25,1.61c0,1.51,0.84,2.5,2.02,2.5
		c1.88,0,3.83-2.37,3.83-4.66c0-1.45-0.84-2.54-2.11-2.54c-0.73,0-1.38,0.46-1.86,0.95L295.9,72.78z"/>
</g>
<polygon class="st1" points="216.36,142.49 216.36,142.49 216.36,142.49 216.36,142.49 216.36,142.49 216.36,142.49 216.36,142.49 
	216.36,142.49 216.36,142.49 216.36,142.49 216.36,142.49 216.36,142.49 216.36,142.49 216.36,142.49 216.36,142.49 216.36,142.49 
	216.36,142.49 216.36,142.49 216.36,142.49 216.36,142.49 216.36,142.49 216.36,142.49 216.36,142.49 216.36,142.49 216.36,142.49 
	216.36,142.49 216.36,142.49 216.36,142.49 216.36,142.49 216.36,142.49 216.36,142.49 216.36,142.49 216.36,142.49 216.36,142.49 
	216.36,142.49 216.36,142.49 216.36,142.49 216.36,142.49 216.36,142.49 216.36,142.49 216.36,142.49 216.36,142.49 216.36,142.49 
	216.36,142.49 216.36,142.49 216.36,142.49 216.36,142.49 216.36,142.49 216.36,142.49 216.36,142.49 216.36,142.49 216.36,142.49 
	216.36,142.49 216.36,142.49 216.36,142.49 216.36,142.49 216.36,142.49 216.36,142.49 216.36,142.49 216.36,142.49 216.36,142.49 
	216.36,142.49 216.36,142.49 216.36,142.49 216.36,142.49 216.36,142.49 216.36,142.49 216.36,142.49 216.36,142.49 216.36,142.49 
	216.36,142.49 216.36,142.49 216.36,142.49 216.36,142.49 216.36,142.49 216.36,142.49 216.36,142.49 216.36,142.49 216.36,142.49 
	216.36,142.49 216.36,142.49 216.36,142.49 216.36,142.49 216.36,142.49 216.36,142.49 "/>
<polygon class="st1" points="299.81,77.93 299.81,77.93 299.81,77.93 299.81,77.93 299.81,77.93 299.81,77.93 299.81,77.93 
	299.81,77.93 299.81,77.93 299.81,77.93 299.81,77.93 299.81,77.93 299.81,77.93 299.81,77.93 299.81,77.93 299.81,77.93 
	299.81,77.93 299.81,77.93 299.81,77.93 299.81,77.93 299.81,77.93 299.81,77.93 299.81,77.93 299.81,77.93 299.81,77.93 
	299.81,77.93 299.81,77.93 299.81,77.93 299.81,77.93 299.81,77.93 299.81,77.93 299.81,77.93 299.81,77.93 299.81,77.93 
	299.81,77.93 299.81,77.93 299.81,77.93 299.81,77.93 299.81,77.93 299.81,77.93 299.81,77.93 299.81,77.93 299.81,77.93 
	299.81,77.93 299.81,77.93 299.81,77.93 299.81,77.93 299.81,77.93 299.81,77.93 299.81,77.93 299.81,77.93 299.81,77.93 
	299.81,77.93 299.81,77.93 299.81,77.93 299.81,77.93 299.81,77.93 299.81,77.93 299.81,77.93 299.81,77.93 299.81,77.93 
	299.81,77.93 299.81,77.93 299.81,77.93 299.81,77.93 299.81,77.93 299.81,77.93 299.81,77.93 299.81,77.93 299.81,77.93 
	299.81,77.93 299.81,77.93 299.81,77.93 299.81,77.93 299.81,77.93 299.81,77.93 299.81,77.93 299.81,77.93 299.81,77.93 
	299.81,77.93 299.81,77.93 299.81,77.93 299.81,77.93 299.81,77.93 299.81,77.93 "/>
<polygon class="st1" points="243.81,197.17 243.81,197.17 243.81,197.17 243.81,197.17 243.81,197.17 243.81,197.17 243.81,197.17 
	243.81,197.17 243.81,197.17 243.81,197.17 243.81,197.17 243.81,197.17 243.81,197.17 243.81,197.17 243.81,197.17 243.81,197.17 
	243.81,197.17 243.81,197.17 243.81,197.17 243.81,197.17 243.81,197.17 243.81,197.17 243.81,197.17 243.81,197.17 243.81,197.17 
	243.81,197.17 243.81,197.17 243.81,197.17 243.81,197.17 243.81,197.17 243.81,197.17 243.81,197.17 243.81,197.17 243.81,197.17 
	243.81,197.17 243.81,197.17 243.81,197.17 243.81,197.17 243.81,197.17 243.81,197.17 243.81,197.17 243.81,197.17 243.81,197.17 
	243.81,197.17 243.81,197.17 243.81,197.17 243.81,197.17 243.81,197.17 243.81,197.17 243.81,197.17 243.81,197.17 243.81,197.17 
	243.81,197.17 243.81,197.17 243.81,197.17 243.81,197.17 243.81,197.17 243.81,197.17 243.81,197.17 243.81,197.17 243.81,197.17 
	243.81,197.17 243.81,197.17 243.81,197.17 243.81,197.17 243.81,197.17 243.81,197.17 243.81,197.17 243.81,197.17 243.81,197.17 
	243.81,197.17 243.81,197.17 243.81,197.17 243.81,197.17 243.81,197.17 243.81,197.17 243.81,197.17 243.81,197.17 243.81,197.17 
	243.81,197.17 243.81,197.17 243.81,197.17 243.81,197.17 243.81,197.17 243.81,197.17 "/>
<g>
	<defs>
		<rect id="SVGID_45_" x="72.04" y="67.49" width="15" height="10"/>
	</defs>
	<clipPath id="SVGID_7_">
		<use xlink:href="#SVGID_45_"  style="overflow:visible;"/>
	</clipPath>
	<path class="st11" d="M77.24,70.19c0.1-0.41,0.46-1.88,1.57-1.88c0.08,0,0.46,0,0.79,0.21c-0.45,0.08-0.76,0.48-0.76,0.86
		c0,0.25,0.18,0.56,0.6,0.56c0.35,0,0.86-0.29,0.86-0.92c0-0.83-0.94-1.05-1.48-1.05c-0.92,0-1.48,0.84-1.67,1.21
		c-0.4-1.05-1.26-1.21-1.72-1.21c-1.65,0-2.56,2.05-2.56,2.45c0,0.16,0.16,0.16,0.19,0.16c0.13,0,0.18-0.03,0.21-0.18
		c0.54-1.68,1.59-2.08,2.13-2.08c0.3,0,0.86,0.14,0.86,1.06c0,0.49-0.27,1.56-0.86,3.78c-0.25,0.99-0.81,1.65-1.51,1.65
		c-0.1,0-0.46,0-0.79-0.21c0.4-0.08,0.75-0.41,0.75-0.86c0-0.43-0.35-0.56-0.59-0.56c-0.48,0-0.87,0.41-0.87,0.92
		c0,0.73,0.8,1.05,1.49,1.05c1.05,0,1.62-1.11,1.67-1.21c0.19,0.59,0.76,1.21,1.72,1.21c1.64,0,2.54-2.05,2.54-2.45
		c0-0.16-0.14-0.16-0.19-0.16c-0.14,0-0.17,0.06-0.21,0.18c-0.53,1.7-1.6,2.08-2.11,2.08c-0.62,0-0.87-0.51-0.87-1.05
		c0-0.35,0.1-0.7,0.27-1.4L77.24,70.19"/>
	<path class="st12" d="M79.54,72.49L79.54,72.49z"/>
</g>
<polygon class="st1" points="79.21,72.51 79.21,72.51 79.21,72.51 79.21,72.51 79.21,72.51 79.21,72.51 79.21,72.51 79.21,72.51 
	79.21,72.51 79.21,72.51 79.21,72.51 79.21,72.51 79.21,72.51 79.21,72.51 79.21,72.51 79.21,72.51 79.21,72.51 79.21,72.51 
	79.21,72.51 79.21,72.51 79.21,72.51 79.21,72.51 79.21,72.51 79.21,72.51 79.21,72.51 79.21,72.51 79.21,72.51 79.21,72.51 
	79.21,72.51 79.21,72.51 79.21,72.51 79.21,72.51 79.21,72.51 79.21,72.51 79.21,72.51 79.21,72.51 79.21,72.51 79.21,72.51 
	79.21,72.51 79.21,72.51 79.21,72.51 79.21,72.51 79.21,72.51 79.21,72.51 79.21,72.51 79.21,72.51 79.21,72.51 79.21,72.51 
	79.21,72.51 79.21,72.51 79.21,72.51 79.21,72.51 79.21,72.51 79.21,72.51 79.21,72.51 79.21,72.51 79.21,72.51 79.21,72.51 
	79.21,72.51 79.21,72.51 79.21,72.51 79.21,72.51 79.21,72.51 79.21,72.51 79.21,72.51 79.21,72.51 79.21,72.51 79.21,72.51 
	79.21,72.51 79.21,72.51 79.21,72.51 79.21,72.51 79.21,72.51 79.21,72.51 79.21,72.51 79.21,72.51 79.21,72.51 79.21,72.51 
	79.21,72.51 79.21,72.51 79.21,72.51 79.21,72.51 79.21,72.51 79.21,72.51 79.21,72.51 "/>
<polygon class="st1" points="59.74,166.86 59.74,166.86 59.74,166.86 59.74,166.86 59.74,166.86 59.74,166.86 59.74,166.86 
	59.74,166.86 59.74,166.86 59.74,166.86 59.74,166.86 59.74,166.86 59.74,166.86 59.74,166.86 59.74,166.86 59.74,166.86 
	59.74,166.86 59.74,166.86 59.74,166.86 59.74,166.86 59.74,166.86 59.74,166.86 59.74,166.86 59.74,166.86 59.74,166.86 
	59.74,166.86 59.74,166.86 59.74,166.86 59.74,166.86 59.74,166.86 59.74,166.86 59.74,166.86 59.74,166.86 59.74,166.86 
	59.74,166.86 59.74,166.86 59.74,166.86 59.74,166.86 59.74,166.86 59.74,166.86 59.74,166.86 59.74,166.86 59.74,166.86 
	59.74,166.86 59.74,166.86 59.74,166.86 59.74,166.86 59.74,166.86 59.74,166.86 59.74,166.86 59.74,166.86 59.74,166.86 
	59.74,166.86 59.74,166.86 59.74,166.86 59.74,166.86 59.74,166.86 59.74,166.86 59.74,166.86 59.74,166.86 59.74,166.86 
	59.74,166.86 59.74,166.86 59.74,166.86 59.74,166.86 59.74,166.86 59.74,166.86 59.74,166.86 59.74,166.86 59.74,166.86 
	59.74,166.86 59.74,166.86 59.74,166.86 59.74,166.86 59.74,166.86 59.74,166.86 59.74,166.86 59.74,166.86 59.74,166.86 
	59.74,166.86 59.74,166.86 59.74,166.86 59.74,166.86 59.74,166.86 59.74,166.86 "/>
<circle cx="68.21" cy="131.63" r="3.37"/>
</svg>
